SplineFontDB: 3.0
FontName: Smokum-Regular
FullName: Smokum
FamilyName: Smokum
Weight: Book
Copyright: Copyright (c) 2011 by Brian J. Bonislawsky DBA Astigmatic (AOETI). All rights reserved. Available under the Apache 2.0 licence.\nhttp://www.apache.org/licenses/LICENSE-2.0.html
Version: 1.000
ItalicAngle: 0
UnderlinePosition: -103
UnderlineWidth: 102
Ascent: 1638
Descent: 410
sfntRevision: 0x00010000
LayerCount: 2
Layer: 0 1 "Back"  1
Layer: 1 1 "Fore"  0
XUID: [1021 288 713564382 6817380]
FSType: 0
OS2Version: 3
OS2_WeightWidthSlopeOnly: 0
OS2_UseTypoMetrics: 1
CreationTime: 1311478380
ModificationTime: 1311972204
PfmFamily: 17
TTFWeight: 400
TTFWidth: 5
LineGap: 0
VLineGap: 0
Panose: 2 0 5 6 0 0 0 2 0 4
OS2TypoAscent: 348
OS2TypoAOffset: 1
OS2TypoDescent: -102
OS2TypoDOffset: 1
OS2TypoLinegap: 0
OS2WinAscent: 0
OS2WinAOffset: 1
OS2WinDescent: 0
OS2WinDOffset: 1
HheadAscent: 0
HheadAOffset: 1
HheadDescent: 0
HheadDOffset: 1
OS2SubXSize: 1434
OS2SubYSize: 1331
OS2SubXOff: 0
OS2SubYOff: 287
OS2SupXSize: 1434
OS2SupYSize: 1331
OS2SupXOff: 0
OS2SupYOff: 977
OS2StrikeYSize: 102
OS2StrikeYPos: 512
OS2Vendor: 'AOEF'
OS2CodePages: 00000093.00000000
OS2UnicodeRanges: a00000af.4000004a.00000000.00000000
Lookup: 258 0 0 "'kern' Horizontal Kerning in Latin lookup 0"  {"'kern' Horizontal Kerning in Latin lookup 0 subtable"  } ['kern' ('DFLT' <'dflt' > 'latn' <'dflt' > ) ]
DEI: 91125
TtTable: prep
PUSHW_1
 511
SCANCTRL
PUSHB_1
 4
SCANTYPE
EndTTInstrs
ShortTable: maxp 16
  1
  0
  372
  131
  7
  106
  4
  2
  0
  1
  1
  0
  64
  0
  2
  1
EndShort

StartChar: exclam
Encoding: 33 33 4
Width: 502
Flags: W
LayerCount: 2
Fore
SplineSet
223 1153 m 2,0,1
 223 1194 223 1194 193 1194 c 2,2,-1
 82 1194 l 1,3,-1
 80 1536 l 1,4,-1
 430 1530 l 1,5,-1
 424 1192 l 1,6,-1
 326 1192 l 2,7,8
 297 1192 297 1192 297 1163 c 2,9,-1
 287 436 l 1,10,-1
 211 438 l 1,11,-1
 223 1153 l 2,0,1
82 146 m 0,12,13
 82 172 82 172 89 199.5 c 128,-1,14
 96 227 96 227 115 251 c 0,15,16
 159 307 159 307 254 307 c 0,17,18
 335 307 335 307 382 254 c 1,19,20
 422 207 422 207 422 165.5 c 128,-1,21
 422 124 422 124 413 95.5 c 128,-1,22
 404 67 404 67 384 44 c 0,23,24
 338 -10 338 -10 252 -10 c 256,25,26
 166 -10 166 -10 120 42 c 0,27,28
 82 84 82 84 82 146 c 0,12,13
EndSplineSet
EndChar

StartChar: quotedbl
Encoding: 34 34 5
Width: 780
Flags: W
LayerCount: 2
Fore
SplineSet
184 1194 m 0,0,1
 184 1235 184 1235 154 1235 c 2,2,-1
 104 1235 l 1,3,-1
 102 1536 l 1,4,-1
 350 1530 l 1,5,-1
 344 1233 l 1,6,-1
 287 1233 l 2,7,8
 258 1233 258 1233 258 1204 c 2,9,-1
 258 1186 l 1,10,-1
 257 1098 l 2,11,12
 257 1070 257 1070 256.5 1022 c 128,-1,13
 256 974 256 974 256 891 c 1,14,-1
 180 891 l 1,15,16
 181 964 181 964 182 1026 c 2,17,-1
 184 1168 l 1,18,19
 184 1168 184 1168 184 1194 c 0,0,1
514 1204 m 2,20,21
 514 1233 514 1233 485 1233 c 2,22,-1
 428 1233 l 1,23,-1
 430 1534 l 1,24,-1
 678 1530 l 1,25,-1
 668 1235 l 1,26,-1
 618 1235 l 2,27,28
 588 1235 588 1235 588 1194 c 2,29,-1
 585 1029 l 2,30,31
 583 968 583 968 582 897 c 1,32,-1
 506 899 l 1,33,-1
 514 1204 l 2,20,21
EndSplineSet
EndChar

StartChar: numbersign
Encoding: 35 35 6
Width: 838
Flags: W
LayerCount: 2
Fore
SplineSet
307 1245 m 1,0,-1
 303 967 l 1,1,-1
 541 973 l 1,2,-1
 535 1255 l 1,3,-1
 612 1255 l 1,4,-1
 612 979 l 1,5,-1
 776 977 l 1,6,-1
 774 895 l 1,7,-1
 616 895 l 1,8,-1
 625 537 l 1,9,-1
 770 539 l 1,10,-1
 764 465 l 1,11,-1
 625 463 l 1,12,-1
 627 135 l 1,13,-1
 553 135 l 1,14,-1
 549 463 l 1,15,-1
 299 455 l 1,16,-1
 299 119 l 1,17,-1
 221 121 l 1,18,-1
 227 457 l 1,19,-1
 63 453 l 1,20,-1
 63 524 l 1,21,-1
 227 528 l 1,22,-1
 231 887 l 1,23,-1
 61 883 l 1,24,-1
 63 958 l 1,25,-1
 233 965 l 1,26,-1
 233 1247 l 1,27,-1
 307 1245 l 1,0,-1
299 530 m 1,28,-1
 549 537 l 1,29,-1
 545 897 l 1,30,-1
 305 887 l 1,31,-1
 299 530 l 1,28,-1
EndSplineSet
EndChar

StartChar: dollar
Encoding: 36 36 7
Width: 711
Flags: W
LayerCount: 2
Fore
SplineSet
383 1358 m 1,0,1
 485 1343 485 1343 524 1286 c 1,2,-1
 532 1286 l 1,3,-1
 532 1352 l 1,4,-1
 602 1352 l 1,5,-1
 602 889 l 1,6,-1
 537 889 l 1,7,-1
 537 971 l 2,8,9
 537 1011 537 1011 513 1038 c 128,-1,10
 489 1065 489 1065 444 1065 c 2,11,-1
 383 1065 l 1,12,-1
 383 741 l 1,13,-1
 432 741 l 2,14,15
 532 741 532 741 590 669 c 0,16,17
 639 607 639 607 639 518 c 2,18,-1
 639 285 l 2,19,20
 639 92 639 92 504 36 c 0,21,22
 455 15 455 15 383 12 c 1,23,-1
 383 -154 l 1,24,-1
 319 -156 l 1,25,-1
 319 14 l 1,26,27
 240 22 240 22 187 69 c 0,28,29
 165 89 165 89 154 113 c 1,30,-1
 141 113 l 1,31,-1
 141 20 l 1,32,-1
 72 20 l 1,33,-1
 72 547 l 1,34,-1
 141 545 l 1,35,36
 140 531 140 531 139.5 514.5 c 128,-1,37
 139 498 139 498 139 476 c 2,38,-1
 139 428 l 2,39,40
 139 374 139 374 155 351 c 128,-1,41
 171 328 171 328 209 328 c 2,42,-1
 319 328 l 1,43,-1
 319 668 l 1,44,-1
 276 668 l 2,45,46
 194 668 194 668 166 685 c 128,-1,47
 138 702 138 702 124 724 c 1,48,49
 92 770 92 770 92 864 c 2,50,-1
 92 906 l 1,51,-1
 93 964 l 1,52,-1
 94 1046 l 1,53,-1
 94 1120 l 2,54,55
 94 1350 94 1350 319 1360 c 1,56,-1
 319 1505 l 1,57,-1
 383 1505 l 1,58,-1
 383 1358 l 1,0,1
383 668 m 1,59,-1
 383 328 l 1,60,-1
 467 328 l 2,61,62
 552 328 552 328 562 404 c 0,63,64
 565 427 565 427 565 453 c 2,65,-1
 565 510 l 2,66,67
 565 585 565 585 539 614 c 0,68,69
 492 668 492 668 403 668 c 2,70,-1
 383 668 l 1,59,-1
168 958 m 2,71,-1
 166 834 l 1,72,73
 168 774 168 774 188 760 c 0,74,75
 215 741 215 741 279 741 c 2,76,-1
 319 741 l 1,77,-1
 319 1065 l 1,78,-1
 258 1065 l 2,79,80
 220 1065 220 1065 194 1037 c 128,-1,81
 168 1009 168 1009 168 958 c 2,71,-1
EndSplineSet
EndChar

StartChar: percent
Encoding: 37 37 8
Width: 971
Flags: W
LayerCount: 2
Fore
SplineSet
63 806 m 2,0,-1
 61 1214 l 1,1,-1
 61 1272 l 2,2,3
 61 1324 61 1324 102 1354 c 0,4,5
 134 1378 134 1378 172 1378 c 2,6,-1
 295 1378 l 2,7,8
 346 1378 346 1378 374 1333 c 0,9,10
 395 1301 395 1301 395 1282 c 2,11,-1
 395 1228 l 1,12,-1
 393 815 l 1,13,-1
 393 748 l 2,14,15
 393 662 393 662 328 647 c 0,16,17
 310 643 310 643 295 643 c 2,18,-1
 160 643 l 2,19,20
 109 643 109 643 83 684 c 0,21,22
 63 716 63 716 63 742 c 2,23,24
 63 742 63 742 63 806 c 2,0,-1
578 162 m 1,25,-1
 575 571 l 1,26,-1
 575 629 l 2,27,28
 575 681 575 681 616 712 c 0,29,30
 648 735 648 735 686 735 c 2,31,-1
 809 735 l 2,32,33
 860 735 860 735 888 690 c 0,34,35
 909 658 909 658 909 639 c 2,36,-1
 909 584 l 1,37,-1
 907 172 l 1,38,-1
 907 104 l 2,39,40
 907 19 907 19 842 4 c 0,41,42
 824 0 824 0 809 0 c 2,43,-1
 674 0 l 2,44,45
 600 0 600 0 582 79 c 0,46,47
 578 99 578 99 578 112 c 2,48,-1
 578 162 l 1,25,-1
170 23 m 1,49,-1
 733 1378 l 1,50,-1
 799 1354 l 1,51,-1
 236 0 l 1,52,-1
 170 23 l 1,49,-1
266 866 m 1,53,54
 334 866 334 866 334 920 c 2,55,-1
 334 1100 l 2,56,57
 334 1138 334 1138 312 1153.5 c 128,-1,58
 290 1169 290 1169 274.5 1168.5 c 128,-1,59
 259 1168 259 1168 250.5 1167.5 c 128,-1,60
 242 1167 242 1167 230 1167 c 2,61,-1
 197 1167 l 2,62,63
 141 1167 141 1167 127 1120 c 0,64,65
 123 1107 123 1107 123 1094 c 2,66,-1
 124 1013 l 1,67,-1
 125 922 l 2,68,69
 125 862 125 862 190 862 c 1,70,-1
 266 866 l 1,53,54
780 223 m 1,71,72
 848 223 848 223 848 276 c 2,73,-1
 848 457 l 2,74,75
 848 495 848 495 826 510.5 c 128,-1,76
 804 526 804 526 788.5 525.5 c 128,-1,77
 773 525 773 525 764.5 524.5 c 128,-1,78
 756 524 756 524 744 524 c 2,79,-1
 711 524 l 2,80,81
 655 524 655 524 641 477 c 0,82,83
 637 464 637 464 637 451 c 2,84,-1
 638 370 l 1,85,-1
 639 279 l 2,86,87
 639 219 639 219 705 219 c 1,88,-1
 780 223 l 1,71,72
EndSplineSet
EndChar

StartChar: ampersand
Encoding: 38 38 9
Width: 864
Flags: W
LayerCount: 2
Fore
SplineSet
177 1226 m 1,0,-1
 176 1389 l 2,1,2
 176 1463 176 1463 230 1502 c 0,3,4
 274 1534 274 1534 316 1534 c 128,-1,5
 358 1534 358 1534 383 1535 c 2,6,-1
 487 1536 l 2,7,8
 545 1536 545 1536 589 1494 c 0,9,10
 633 1451 633 1451 633 1395 c 2,11,-1
 634 1280 l 1,12,13
 634 1280 634 1280 635 1124 c 0,14,15
 635 970 635 970 539 922 c 1,16,17
 508 903 508 903 451 873.5 c 128,-1,18
 394 844 394 844 358 825 c 1,19,20
 369 799 369 799 415 723.5 c 128,-1,21
 461 648 461 648 492 597 c 128,-1,22
 523 546 523 546 550.5 501.5 c 128,-1,23
 578 457 578 457 598 425 c 2,24,-1
 623 385 l 1,25,26
 636 476 636 476 636 565.5 c 128,-1,27
 636 655 636 655 635 670 c 1,28,-1
 709 672 l 1,29,30
 704 452 704 452 690 299 c 1,31,-1
 864 27 l 1,32,-1
 801 -14 l 1,33,34
 777 24 777 24 755 58 c 0,35,36
 698 144 698 144 674 186 c 1,37,38
 672 172 672 172 670 141.5 c 128,-1,39
 668 111 668 111 654 80 c 0,40,41
 620 0 620 0 530 0 c 2,42,-1
 250 0 l 2,43,44
 172 0 172 0 125 52 c 0,45,46
 82 101 82 101 82 166 c 2,47,-1
 82 530 l 2,48,49
 82 648 82 648 111 706 c 128,-1,50
 140 764 140 764 174.5 797 c 128,-1,51
 209 830 209 830 260 856 c 1,52,-1
 246 884 l 2,53,54
 239 898 239 898 230 915.5 c 128,-1,55
 221 933 221 933 208 959 c 0,56,57
 178 1019 178 1019 178 1104 c 2,58,-1
 177 1226 l 1,0,-1
569 334 m 1,59,60
 445 522 445 522 293 791 c 1,61,62
 189 746 189 746 163 630 c 0,63,64
 156 599 156 599 156 573 c 2,65,-1
 158 401 l 2,66,67
 158 322 158 322 252 322 c 2,68,-1
 512 322 l 2,69,70
 553 322 553 322 569 334 c 1,59,60
561 1137 m 2,71,72
 561 1202 561 1202 492 1202 c 2,73,-1
 326 1202 l 2,74,75
 270 1202 270 1202 258 1162 c 0,76,77
 254 1151 254 1151 254 1140 c 2,78,-1
 254 1110 l 2,79,80
 254 1032 254 1032 271 999 c 128,-1,81
 288 966 288 966 296 949.5 c 128,-1,82
 304 933 304 933 311 919 c 2,83,-1
 326 889 l 1,84,-1
 382 917 l 2,85,86
 405 928 405 928 427.5 940 c 128,-1,87
 450 952 450 952 481 967.5 c 128,-1,88
 512 983 512 983 536.5 1008.5 c 128,-1,89
 561 1034 561 1034 561 1063 c 2,90,-1
 561 1137 l 2,71,72
EndSplineSet
EndChar

StartChar: quotesingle
Encoding: 39 39 10
Width: 453
Flags: W
LayerCount: 2
Fore
SplineSet
184 1194 m 0,0,1
 184 1235 184 1235 154 1235 c 2,2,-1
 104 1235 l 1,3,-1
 102 1536 l 1,4,-1
 350 1530 l 1,5,-1
 344 1233 l 1,6,-1
 287 1233 l 2,7,8
 258 1233 258 1233 258 1204 c 2,9,-1
 258 1186 l 1,10,-1
 257 1098 l 1,11,-1
 257 1041 l 1,12,13
 256 973 256 973 256 889 c 1,14,-1
 180 891 l 1,15,16
 181 964 181 964 182 1026 c 2,17,-1
 184 1168 l 1,18,19
 184 1168 184 1168 184 1194 c 0,0,1
EndSplineSet
EndChar

StartChar: parenleft
Encoding: 40 40 11
Width: 600
Flags: W
LayerCount: 2
Fore
SplineSet
530 1483 m 1,0,1
 245 1265 245 1265 176 890 c 0,2,3
 158 791 158 791 158 671 c 128,-1,4
 158 551 158 551 170.5 452.5 c 128,-1,5
 183 354 183 354 206 275 c 128,-1,6
 229 196 229 196 261.5 133.5 c 128,-1,7
 294 71 294 71 335 20 c 0,8,9
 407 -68 407 -68 526 -152 c 1,10,-1
 475 -217 l 1,11,12
 143 29 143 29 96 432 c 0,13,14
 82 553 82 553 82 672.5 c 128,-1,15
 82 792 82 792 99 888.5 c 128,-1,16
 116 985 116 985 144 1066 c 0,17,18
 195 1212 195 1212 283.5 1334.5 c 128,-1,19
 372 1457 372 1457 485 1540 c 1,20,-1
 530 1483 l 1,0,1
EndSplineSet
EndChar

StartChar: parenright
Encoding: 41 41 12
Width: 600
Flags: W
LayerCount: 2
Fore
SplineSet
115 1540 m 1,0,1
 280 1418 280 1418 390 1214 c 0,2,3
 518 978 518 978 518 680 c 0,4,5
 518 387 518 387 448 199 c 0,6,7
 357 -45 357 -45 125 -217 c 1,8,-1
 74 -152 l 1,9,10
 193 -68 193 -68 249.5 1.5 c 128,-1,11
 306 71 306 71 338.5 133.5 c 128,-1,12
 371 196 371 196 394 275 c 0,13,14
 442 440 442 440 442 674 c 0,15,16
 442 1066 442 1066 226 1331 c 0,17,18
 157 1417 157 1417 70 1483 c 1,19,-1
 115 1540 l 1,0,1
EndSplineSet
EndChar

StartChar: asterisk
Encoding: 42 42 13
Width: 686
Flags: W
LayerCount: 2
Fore
SplineSet
371 1534 m 1,0,-1
 367 1309 l 1,1,-1
 571 1427 l 1,2,-1
 604 1372 l 1,3,-1
 391 1249 l 1,4,-1
 588 1135 l 1,5,-1
 551 1075 l 1,6,-1
 369 1184 l 1,7,-1
 371 969 l 1,8,-1
 305 967 l 1,9,-1
 301 1182 l 1,10,-1
 113 1063 l 1,11,-1
 82 1124 l 1,12,-1
 289 1247 l 1,13,-1
 82 1366 l 1,14,-1
 111 1421 l 1,15,-1
 303 1317 l 1,16,-1
 295 1536 l 1,17,-1
 371 1534 l 1,0,-1
EndSplineSet
EndChar

StartChar: plus
Encoding: 43 43 14
Width: 717
Flags: W
LayerCount: 2
Fore
SplineSet
393 977 m 1,0,-1
 395 680 l 1,1,-1
 649 680 l 1,2,-1
 653 608 l 1,3,-1
 395 606 l 1,4,-1
 393 326 l 1,5,-1
 319 322 l 1,6,-1
 319 606 l 1,7,-1
 66 602 l 1,8,-1
 68 678 l 1,9,-1
 322 680 l 1,10,-1
 322 973 l 1,11,-1
 393 977 l 1,0,-1
EndSplineSet
EndChar

StartChar: comma
Encoding: 44 44 15
Width: 479
Flags: W
LayerCount: 2
Fore
SplineSet
305 6 m 0,0,1
 305 18 305 18 297.5 18 c 128,-1,2
 290 18 290 18 283 13.5 c 128,-1,3
 276 9 276 9 264 4 c 0,4,5
 178 -34 178 -34 110 26 c 0,6,7
 61 70 61 70 61 127 c 128,-1,8
 61 184 61 184 76.5 215 c 128,-1,9
 92 246 92 246 116 267 c 0,10,11
 164 309 164 309 212.5 309 c 128,-1,12
 261 309 261 309 295.5 298 c 128,-1,13
 330 287 330 287 357 262 c 0,14,15
 418 207 418 207 418 121 c 128,-1,16
 418 35 418 35 389 -21.5 c 128,-1,17
 360 -78 360 -78 316 -122 c 0,18,19
 246 -194 246 -194 123 -256 c 1,20,-1
 86 -195 l 1,21,22
 189 -157 189 -157 254 -85 c 1,23,24
 305 -30 305 -30 305 6 c 0,0,1
EndSplineSet
EndChar

StartChar: hyphen
Encoding: 45 45 16
Width: 655
Flags: W
LayerCount: 2
Fore
SplineSet
547 444 m 1,0,1
 449 448 449 448 342.5 444.5 c 128,-1,2
 236 441 236 441 109 444 c 1,3,-1
 102 717 l 1,4,-1
 553 713 l 1,5,-1
 547 444 l 1,0,1
EndSplineSet
EndChar

StartChar: period
Encoding: 46 46 17
Width: 463
Flags: W
LayerCount: 2
Fore
SplineSet
61 146 m 0,0,1
 61 172 61 172 68 199.5 c 128,-1,2
 75 227 75 227 94 251 c 0,3,4
 138 307 138 307 233 307 c 0,5,6
 314 307 314 307 360 254 c 0,7,8
 401 207 401 207 401 165.5 c 128,-1,9
 401 124 401 124 392 95.5 c 128,-1,10
 383 67 383 67 363 44 c 0,11,12
 317 -10 317 -10 231 -10 c 256,13,14
 145 -10 145 -10 99 42 c 0,15,16
 61 84 61 84 61 146 c 0,0,1
EndSplineSet
EndChar

StartChar: slash
Encoding: 47 47 18
Width: 676
Flags: W
LayerCount: 2
Fore
SplineSet
41 23 m 1,0,-1
 563 1536 l 1,1,-1
 635 1511 l 1,2,-1
 113 0 l 1,3,-1
 41 23 l 1,0,-1
EndSplineSet
EndChar

StartChar: zero
Encoding: 48 48 19
Width: 721
Flags: W
LayerCount: 2
Fore
SplineSet
66 262 m 1,0,-1
 61 1115 l 1,1,-1
 61 1188 l 2,2,3
 61 1282 61 1282 134 1336 c 0,4,5
 191 1378 191 1378 260 1378 c 2,6,-1
 479 1378 l 2,7,8
 568 1378 568 1378 620 1299 c 0,9,10
 659 1240 659 1240 659 1184 c 2,11,-1
 654 401 l 1,12,-1
 653 186 l 2,13,14
 653 81 653 81 593 35 c 0,15,16
 548 0 548 0 477 0 c 2,17,-1
 236 0 l 2,18,19
 146 0 146 0 100 73 c 0,20,21
 66 128 66 128 66 203 c 2,22,-1
 66 262 l 1,0,-1
254 352 m 1,23,-1
 465 358 l 1,24,25
 528 358 528 358 556 381 c 128,-1,26
 584 404 584 404 584 455 c 2,27,-1
 584 922 l 2,28,29
 584 1042 584 1042 459 1042 c 1,30,31
 343 1038 343 1038 266 1038 c 0,32,33
 202 1038 202 1038 166 996 c 0,34,35
 135 961 135 961 135 909 c 2,36,-1
 135 860 l 1,37,-1
 137 516 l 1,38,-1
 137 457 l 2,39,40
 137 352 137 352 254 352 c 1,23,-1
EndSplineSet
EndChar

StartChar: one
Encoding: 49 49 20
Width: 612
Flags: W
LayerCount: 2
Fore
SplineSet
289 934 m 2,0,1
 289 995 289 995 186 995 c 2,2,-1
 49 995 l 1,3,-1
 53 1282 l 1,4,-1
 195 1282 l 2,5,6
 245 1282 245 1282 265 1332 c 0,7,8
 270 1345 270 1345 270 1354 c 2,9,-1
 270 1382 l 1,10,-1
 369 1380 l 1,11,-1
 354 387 l 2,12,13
 354 365 354 365 366 352.5 c 128,-1,14
 378 340 378 340 393 340 c 2,15,-1
 571 340 l 1,16,-1
 571 0 l 1,17,-1
 59 0 l 1,18,-1
 66 340 l 1,19,-1
 242 340 l 2,20,21
 273 340 273 340 281 369 c 0,22,23
 283 376 283 376 283 381 c 2,24,-1
 289 934 l 2,0,1
EndSplineSet
EndChar

StartChar: two
Encoding: 50 50 21
Width: 684
Flags: W
LayerCount: 2
Fore
SplineSet
483 1047 m 2,0,-1
 190 1042 l 2,1,2
 142 1042 142 1042 133.5 1028 c 128,-1,3
 125 1014 125 1014 125 999 c 2,4,-1
 125 905 l 1,5,-1
 51 907 l 1,6,-1
 55 1378 l 1,7,-1
 129 1378 l 1,8,-1
 127 1278 l 1,9,10
 170 1378 170 1378 287 1378 c 2,11,-1
 438 1378 l 2,12,13
 609 1378 609 1378 620 1244 c 0,14,15
 623 1209 623 1209 623 1178 c 2,16,-1
 622 1022 l 1,17,-1
 621 834 l 2,18,19
 621 730 621 730 516 683 c 0,20,21
 487 670 487 670 459 657 c 2,22,-1
 242 557 l 2,23,24
 141 510 141 510 141 393 c 2,25,-1
 141 338 l 1,26,-1
 506 350 l 1,27,28
 549 350 549 350 549 383 c 2,29,-1
 549 506 l 1,30,-1
 621 508 l 1,31,-1
 606 0 l 1,32,-1
 72 -4 l 1,33,34
 68 216 68 216 68 322.5 c 128,-1,35
 68 429 68 429 83 475 c 128,-1,36
 98 521 98 521 120 552 c 0,37,38
 157 604 157 604 221 633 c 2,39,-1
 436 727 l 2,40,41
 508 759 508 759 522 775 c 0,42,43
 547 803 547 803 547 872 c 2,44,-1
 547 983 l 2,45,46
 547 1015 547 1015 529 1031 c 128,-1,47
 511 1047 511 1047 483 1047 c 2,0,-1
EndSplineSet
EndChar

StartChar: three
Encoding: 51 51 22
Width: 682
Flags: W
LayerCount: 2
Fore
SplineSet
207 1047 m 1,0,1
 131 1047 131 1047 131 971 c 2,2,-1
 131 926 l 1,3,-1
 61 926 l 1,4,-1
 63 1378 l 1,5,-1
 147 1378 l 1,6,-1
 147 1294 l 1,7,8
 197 1378 197 1378 287 1378 c 2,9,-1
 463 1378 l 2,10,11
 526 1378 526 1378 558 1352 c 0,12,13
 614 1305 614 1305 614 1245 c 1,14,-1
 621 866 l 1,15,16
 621 700 621 700 498 694 c 1,17,-1
 498 690 l 1,18,19
 557 684 557 684 577 667 c 0,20,21
 621 631 621 631 621 539 c 2,22,-1
 621 223 l 2,23,24
 621 69 621 69 520 16 c 0,25,26
 489 0 489 0 451 0 c 2,27,-1
 279 0 l 2,28,29
 210 0 210 0 169 42 c 0,30,31
 148 64 148 64 139 92 c 1,32,-1
 141 2 l 1,33,-1
 63 0 l 1,34,-1
 68 475 l 1,35,-1
 141 475 l 1,36,-1
 141 383 l 2,37,38
 141 311 141 311 207 311 c 2,39,-1
 492 311 l 2,40,41
 542 311 542 311 546 376 c 0,42,43
 547 393 547 393 547 408 c 2,44,-1
 547 578 l 2,45,46
 547 612 547 612 518.5 635.5 c 128,-1,47
 490 659 490 659 442 659 c 2,48,-1
 213 659 l 1,49,-1
 213 735 l 1,50,51
 256 734 256 734 294 733.5 c 128,-1,52
 332 733 332 733 372 733 c 2,53,-1
 440 733 l 2,54,55
 520 733 520 733 541 790 c 0,56,57
 547 807 547 807 547 825 c 2,58,-1
 547 965 l 2,59,60
 547 1042 547 1042 461 1042 c 1,61,-1
 207 1047 l 1,0,1
EndSplineSet
EndChar

StartChar: four
Encoding: 52 52 23
Width: 776
Flags: W
LayerCount: 2
Fore
SplineSet
418 360 m 2,0,-1
 416 508 l 2,1,2
 416 522 416 522 412 526 c 128,-1,3
 408 530 408 530 395 530 c 2,4,-1
 41 530 l 2,5,6
 -8 530 -8 530 18 573 c 0,7,8
 21 577 21 577 45 621 c 128,-1,9
 69 665 69 665 106.5 732.5 c 128,-1,10
 144 800 144 800 189 882.5 c 128,-1,11
 234 965 234 965 279 1047 c 1,12,13
 256 1049 256 1049 233 1049 c 128,-1,14
 210 1049 210 1049 190 1051 c 1,15,-1
 186 1378 l 1,16,-1
 592 1378 l 1,17,-1
 584 1047 l 1,18,-1
 487 1047 l 1,19,-1
 487 623 l 2,20,21
 487 612 487 612 489.5 609 c 128,-1,22
 492 606 492 606 502 606 c 2,23,-1
 631 606 l 2,24,25
 643 606 643 606 646 611 c 128,-1,26
 649 616 649 616 649 627 c 2,27,-1
 649 758 l 1,28,-1
 721 758 l 1,29,-1
 723 389 l 1,30,-1
 655 389 l 1,31,-1
 655 512 l 2,32,33
 655 532 655 532 637 532 c 2,34,-1
 506 532 l 2,35,36
 490 532 490 532 489.5 524.5 c 128,-1,37
 489 517 489 517 489 508 c 2,38,-1
 492 358 l 2,39,40
 492 336 492 336 518 336 c 2,41,-1
 637 336 l 1,42,-1
 645 0 l 1,43,-1
 281 0 l 1,44,-1
 285 332 l 1,45,-1
 399 332 l 2,46,47
 415 332 415 332 416.5 341.5 c 128,-1,48
 418 351 418 351 418 360 c 2,0,-1
414 782 m 1,49,-1
 412 1047 l 1,50,-1
 354 1047 l 1,51,-1
 121 604 l 1,52,-1
 393 604 l 2,53,54
 410 604 410 604 412 605.5 c 128,-1,55
 414 607 414 607 414 614 c 2,56,-1
 414 782 l 1,49,-1
EndSplineSet
EndChar

StartChar: five
Encoding: 53 53 24
Width: 674
Flags: W
LayerCount: 2
Fore
SplineSet
256 719 m 2,0,1
 155 719 155 719 145 629 c 1,2,-1
 74 631 l 1,3,-1
 80 1378 l 1,4,-1
 604 1380 l 1,5,-1
 596 915 l 1,6,-1
 528 915 l 1,7,-1
 528 1004 l 2,8,9
 528 1059 528 1059 471 1059 c 2,10,-1
 444 1059 l 1,11,-1
 232 1057 l 1,12,-1
 205 1057 l 2,13,14
 182 1057 182 1057 166 1040.5 c 128,-1,15
 150 1024 150 1024 150 1003 c 2,16,17
 150 1003 150 1003 150 959 c 2,18,-1
 147 756 l 1,19,-1
 147 739 l 2,20,21
 147 749 147 749 166 762 c 0,22,23
 210 791 210 791 266 791 c 2,24,-1
 442 791 l 2,25,26
 513 791 513 791 560 748 c 0,27,28
 604 707 604 707 604 647 c 2,29,-1
 604 213 l 2,30,31
 604 56 604 56 506 12 c 0,32,33
 480 0 480 0 453 0 c 2,34,-1
 270 0 l 2,35,36
 206 0 206 0 181 22 c 0,37,38
 138 60 138 60 123 137 c 1,39,-1
 123 0 l 1,40,-1
 53 0 l 1,41,-1
 53 479 l 1,42,-1
 125 479 l 1,43,-1
 125 381 l 2,44,45
 125 319 125 319 182 319 c 2,46,-1
 459 319 l 2,47,48
 500 319 500 319 515 336 c 128,-1,49
 530 353 530 353 530 399 c 2,50,-1
 530 633 l 2,51,52
 530 683 530 683 479 710 c 0,53,54
 461 719 461 719 436 719 c 2,55,-1
 256 719 l 2,0,1
EndSplineSet
EndChar

StartChar: six
Encoding: 54 54 25
Width: 672
Flags: W
LayerCount: 2
Fore
SplineSet
139 944 m 2,0,-1
 138 812 l 2,1,2
 137 767 137 767 137 717 c 1,3,4
 157 746 157 746 182.5 758 c 128,-1,5
 208 770 208 770 254 770 c 2,6,-1
 459 770 l 2,7,8
 566 770 566 770 602 672 c 0,9,10
 614 637 614 637 614 588 c 2,11,-1
 614 178 l 2,12,13
 614 102 614 102 566 50 c 0,14,15
 520 0 520 0 451 0 c 2,16,-1
 242 0 l 2,17,18
 145 0 145 0 96 68 c 0,19,20
 61 117 61 117 61 186 c 0,21,22
 61 190 61 190 61.5 230 c 128,-1,23
 62 270 62 270 62.5 333.5 c 128,-1,24
 63 397 63 397 63.5 479 c 128,-1,25
 64 561 64 561 64.5 648 c 128,-1,26
 65 735 65 735 65.5 822 c 128,-1,27
 66 909 66 909 66.5 983.5 c 128,-1,28
 67 1058 67 1058 67.5 1113.5 c 128,-1,29
 68 1169 68 1169 68 1207 c 128,-1,30
 68 1245 68 1245 77 1280.5 c 128,-1,31
 86 1316 86 1316 104 1338 c 0,32,33
 139 1378 139 1378 217 1378 c 2,34,-1
 403 1378 l 2,35,36
 458 1378 458 1378 494 1330 c 0,37,38
 520 1296 520 1296 526 1255 c 1,39,-1
 524 1378 l 1,40,-1
 598 1376 l 1,41,-1
 602 893 l 1,42,-1
 530 893 l 1,43,-1
 530 973 l 2,44,45
 530 1019 530 1019 507.5 1036 c 128,-1,46
 485 1053 485 1053 440 1053 c 2,47,-1
 233 1053 l 2,48,49
 188 1053 188 1053 163.5 1030 c 128,-1,50
 139 1007 139 1007 139 944 c 2,0,-1
358 695 m 2,51,-1
 225 696 l 2,52,53
 184 696 184 696 158 654 c 1,54,55
 137 622 137 622 137 598 c 2,56,-1
 137 391 l 2,57,58
 137 332 137 332 193 310 c 0,59,60
 207 305 207 305 219 305 c 2,61,-1
 442 305 l 2,62,63
 483 305 483 305 505 326 c 0,64,65
 541 360 541 360 541 399 c 2,66,-1
 541 596 l 2,67,68
 541 671 541 671 472 690 c 0,69,70
 455 694 455 694 426.5 694 c 128,-1,71
 398 694 398 694 358 695 c 2,51,-1
EndSplineSet
EndChar

StartChar: seven
Encoding: 55 55 26
Width: 651
Flags: W
LayerCount: 2
Fore
SplineSet
139 1012 m 2,0,1
 113 1012 113 1012 113 981 c 2,2,-1
 113 961 l 2,3,4
 113 946 113 946 113.5 928 c 128,-1,5
 114 910 114 910 115 887 c 1,6,-1
 41 889 l 1,7,-1
 41 1374 l 1,8,9
 83 1375 83 1375 148 1375 c 2,10,-1
 290 1375 l 2,11,12
 496 1375 496 1375 621 1378 c 1,13,-1
 606 1014 l 1,14,-1
 199 -6 l 1,15,-1
 121 18 l 1,16,-1
 520 1001 l 1,17,18
 524 1014 524 1014 508 1014 c 2,19,-1
 476 1014 l 1,20,-1
 166 1012 l 1,21,-1
 139 1012 l 2,0,1
EndSplineSet
EndChar

StartChar: eight
Encoding: 56 56 27
Width: 717
Flags: W
LayerCount: 2
Fore
SplineSet
67 1002 m 1,0,-1
 68 1198 l 2,1,2
 68 1290 68 1290 132 1338 c 0,3,4
 185 1378 185 1378 260 1378 c 2,5,-1
 494 1378 l 2,6,7
 612 1378 612 1378 645 1268 c 0,8,9
 655 1234 655 1234 655 1194 c 2,10,-1
 655 872 l 2,11,12
 655 750 655 750 590 705 c 1,13,14
 616 691 616 691 635.5 655.5 c 128,-1,15
 655 620 655 620 655 569 c 2,16,-1
 655 178 l 2,17,18
 655 94 655 94 602 43 c 0,19,20
 557 0 557 0 496 0 c 2,21,-1
 236 0 l 2,22,23
 152 0 152 0 104 56 c 0,24,25
 61 105 61 105 61 184 c 2,26,-1
 61 563 l 2,27,28
 61 669 61 669 110 696 c 0,29,30
 121 702 121 702 127 705 c 1,31,32
 121 712 121 712 110.5 720.5 c 128,-1,33
 100 729 100 729 90 746 c 0,34,35
 66 790 66 790 66 872 c 2,36,-1
 67 1002 l 1,0,-1
217 662 m 2,37,38
 163 662 163 662 144 620 c 1,39,40
 135 597 135 597 135 549 c 2,41,-1
 135 403 l 2,42,43
 135 368 135 368 157 349 c 128,-1,44
 179 330 179 330 217 330 c 2,45,-1
 498 330 l 2,46,47
 577 330 577 330 581 397 c 0,48,49
 582 413 582 413 582 424 c 2,50,-1
 582 573 l 2,51,52
 582 617 582 617 568 633 c 0,53,54
 543 662 543 662 485 662 c 2,55,-1
 217 662 l 2,37,38
528 1037 m 0,56,57
 511 1044 511 1044 475 1043.5 c 128,-1,58
 439 1043 439 1043 394.5 1042.5 c 128,-1,59
 350 1042 350 1042 308 1042 c 2,60,-1
 238 1042 l 2,61,62
 162 1042 162 1042 144 981 c 0,63,64
 139 966 139 966 139 954 c 2,65,-1
 139 827 l 2,66,67
 139 769 139 769 176 746 c 0,68,69
 196 733 196 733 223 733 c 2,70,-1
 498 733 l 2,71,72
 534 733 534 733 552 754 c 0,73,74
 582 790 582 790 582 815 c 2,75,-1
 582 965 l 2,76,77
 582 1016 582 1016 528 1037 c 0,56,57
EndSplineSet
EndChar

StartChar: nine
Encoding: 57 57 28
Width: 672
Flags: W
LayerCount: 2
Fore
SplineSet
605 394 m 1,0,-1
 604 184 l 2,1,2
 604 38 604 38 521 10 c 0,3,4
 493 0 493 0 455 0 c 2,5,-1
 268 0 l 2,6,7
 214 0 214 0 177 48 c 0,8,9
 151 81 151 81 145 121 c 1,10,-1
 147 0 l 1,11,-1
 74 2 l 1,12,-1
 70 485 l 1,13,-1
 141 485 l 1,14,-1
 141 406 l 2,15,16
 141 359 141 359 163.5 342.5 c 128,-1,17
 186 326 186 326 231 326 c 2,18,-1
 438 326 l 2,19,20
 483 326 483 326 507.5 348.5 c 128,-1,21
 532 371 532 371 532 434 c 2,22,-1
 532 490 l 1,23,-1
 533 566 l 2,24,25
 534 611 534 611 535 662 c 1,26,27
 515 633 515 633 489.5 620.5 c 128,-1,28
 464 608 464 608 418 608 c 2,29,-1
 213 608 l 2,30,31
 107 608 107 608 70 706 c 0,32,33
 57 741 57 741 57 791 c 2,34,-1
 57 1200 l 2,35,36
 57 1278 57 1278 106 1328 c 1,37,38
 153 1378 153 1378 221 1378 c 2,39,-1
 430 1378 l 2,40,41
 527 1378 527 1378 574 1312 c 0,42,43
 610 1262 610 1262 610 1192 c 2,44,-1
 605 394 l 1,0,-1
201 688 m 0,45,46
 220 683 220 683 284 682.5 c 128,-1,47
 348 682 348 682 384 682 c 2,48,-1
 446 682 l 2,49,50
 488 682 488 682 514 724 c 1,51,52
 535 756 535 756 535 780 c 2,53,-1
 535 987 l 2,54,55
 535 1046 535 1046 478 1068 c 0,56,57
 464 1073 464 1073 453 1073 c 2,58,-1
 229 1073 l 2,59,60
 189 1073 189 1073 167 1052 c 0,61,62
 131 1018 131 1018 131 979 c 2,63,-1
 131 782 l 2,64,65
 131 707 131 707 201 688 c 0,45,46
EndSplineSet
EndChar

StartChar: colon
Encoding: 58 58 29
Width: 545
Flags: W
LayerCount: 2
Fore
SplineSet
102 146 m 0,0,1
 102 172 102 172 109 199.5 c 128,-1,2
 116 227 116 227 135 251 c 0,3,4
 179 307 179 307 274 307 c 0,5,6
 355 307 355 307 402 254 c 1,7,8
 442 207 442 207 442 165.5 c 128,-1,9
 442 124 442 124 433 95.5 c 128,-1,10
 424 67 424 67 404 44 c 0,11,12
 358 -10 358 -10 272 -10 c 256,13,14
 186 -10 186 -10 140 42 c 0,15,16
 102 84 102 84 102 146 c 0,0,1
102 760 m 0,17,18
 102 786 102 786 109 813.5 c 128,-1,19
 116 841 116 841 135 865 c 0,20,21
 180 922 180 922 274 922 c 0,22,23
 353 922 353 922 402 868 c 0,24,25
 442 823 442 823 442 780.5 c 128,-1,26
 442 738 442 738 433 709.5 c 128,-1,27
 424 681 424 681 404 658 c 0,28,29
 358 604 358 604 272 604 c 256,30,31
 186 604 186 604 140 656 c 0,32,33
 102 698 102 698 102 760 c 0,17,18
EndSplineSet
EndChar

StartChar: semicolon
Encoding: 59 59 30
Width: 561
Flags: W
LayerCount: 2
Fore
SplineSet
102 760 m 0,0,1
 102 786 102 786 109 813.5 c 128,-1,2
 116 841 116 841 135 865 c 0,3,4
 180 922 180 922 274 922 c 0,5,6
 353 922 353 922 402 868 c 0,7,8
 442 823 442 823 442 780.5 c 128,-1,9
 442 738 442 738 433 709.5 c 128,-1,10
 424 681 424 681 404 658 c 0,11,12
 358 604 358 604 272 604 c 256,13,14
 186 604 186 604 140 656 c 0,15,16
 102 698 102 698 102 760 c 0,0,1
346 6 m 0,17,18
 346 18 346 18 338.5 18 c 128,-1,19
 331 18 331 18 324 13.5 c 128,-1,20
 317 9 317 9 306 4 c 0,21,22
 219 -34 219 -34 151 26 c 0,23,24
 102 70 102 70 102 127 c 128,-1,25
 102 184 102 184 117.5 215 c 128,-1,26
 133 246 133 246 157 267 c 0,27,28
 205 309 205 309 253.5 309 c 128,-1,29
 302 309 302 309 336.5 298 c 128,-1,30
 371 287 371 287 398 262 c 0,31,32
 459 207 459 207 459 121 c 128,-1,33
 459 35 459 35 430 -21.5 c 128,-1,34
 401 -78 401 -78 358 -122 c 0,35,36
 287 -194 287 -194 164 -256 c 1,37,-1
 127 -195 l 1,38,39
 230 -157 230 -157 296 -85 c 0,40,41
 346 -30 346 -30 346 6 c 0,17,18
EndSplineSet
EndChar

StartChar: less
Encoding: 60 60 31
Width: 717
Flags: W
LayerCount: 2
Fore
SplineSet
567 942 m 1,0,-1
 227 645 l 1,1,-1
 559 344 l 1,2,-1
 508 287 l 1,3,-1
 113 643 l 1,4,-1
 516 1001 l 1,5,-1
 567 942 l 1,0,-1
EndSplineSet
EndChar

StartChar: equal
Encoding: 61 61 32
Width: 717
Flags: W
LayerCount: 2
Fore
SplineSet
86 737 m 1,0,-1
 88 813 l 1,1,-1
 629 815 l 1,2,-1
 631 739 l 1,3,-1
 86 737 l 1,0,-1
88 492 m 1,4,-1
 88 567 l 1,5,-1
 629 569 l 1,6,-1
 627 494 l 1,7,-1
 88 492 l 1,4,-1
EndSplineSet
EndChar

StartChar: greater
Encoding: 62 62 33
Width: 717
Flags: W
LayerCount: 2
Fore
SplineSet
150 348 m 1,0,-1
 489 645 l 1,1,-1
 158 946 l 1,2,-1
 209 1004 l 1,3,-1
 604 647 l 1,4,-1
 201 289 l 1,5,-1
 150 348 l 1,0,-1
EndSplineSet
EndChar

StartChar: question
Encoding: 63 63 34
Width: 655
Flags: W
LayerCount: 2
Fore
SplineSet
215 1196 m 2,0,1
 158 1196 158 1196 158 1118 c 2,2,-1
 158 1032 l 1,3,-1
 88 1032 l 1,4,-1
 82 1534 l 1,5,-1
 160 1536 l 1,6,-1
 156 1425 l 1,7,8
 176 1479 176 1479 208.5 1507.5 c 128,-1,9
 241 1536 241 1536 303 1536 c 2,10,-1
 442 1536 l 2,11,12
 501 1536 501 1536 540 1490 c 0,13,14
 573 1451 573 1451 573 1411 c 2,15,-1
 572 1309 l 1,16,-1
 570 1148 l 1,17,-1
 569 1012 l 2,18,19
 569 937 569 937 503 892 c 0,20,21
 487 881 487 881 475 872 c 2,22,-1
 397 819 l 1,23,24
 334 778 334 778 334 717 c 2,25,-1
 334 692 l 1,26,-1
 336 561 l 2,27,28
 337 506 337 506 338 440 c 1,29,-1
 260 440 l 1,30,-1
 260 725 l 2,31,32
 260 815 260 815 326 865 c 0,33,34
 341 876 341 876 348 881 c 2,35,-1
 449 944 l 1,36,37
 496 975 496 975 496 1026 c 2,38,-1
 496 1143 l 2,39,40
 496 1166 496 1166 478.5 1182 c 128,-1,41
 461 1198 461 1198 444 1198 c 2,42,-1
 215 1196 l 2,0,1
141 146 m 0,43,44
 141 172 141 172 148 199.5 c 128,-1,45
 155 227 155 227 174 251 c 0,46,47
 218 307 218 307 313 307 c 0,48,49
 394 307 394 307 440 254 c 0,50,51
 481 207 481 207 481 165.5 c 128,-1,52
 481 124 481 124 472 95.5 c 128,-1,53
 463 67 463 67 443 44 c 0,54,55
 397 -10 397 -10 311 -10 c 256,56,57
 225 -10 225 -10 179 42 c 0,58,59
 141 84 141 84 141 146 c 0,43,44
EndSplineSet
EndChar

StartChar: at
Encoding: 64 64 35
Width: 1202
Flags: W
LayerCount: 2
Fore
SplineSet
111 371 m 1,0,-1
 102 1092 l 1,1,2
 102 1366 102 1366 274 1478 c 0,3,4
 398 1559 398 1559 616 1559 c 0,5,6
 841 1559 841 1559 962 1470 c 0,7,8
 1093 1373 1093 1373 1097 1196 c 0,9,10
 1098 1155 1098 1155 1098 1130 c 2,11,-1
 1098 1064 l 1,12,-1
 1100 622 l 1,13,-1
 1100 526 l 2,14,15
 1100 428 1100 428 1044 376 c 0,16,17
 998 332 998 332 942 332 c 128,-1,18
 886 332 886 332 856.5 346 c 128,-1,19
 827 360 827 360 809 377 c 0,20,21
 783 402 783 402 774 428 c 1,22,23
 772 426 772 426 760.5 409 c 128,-1,24
 749 392 749 392 725 372 c 0,25,26
 661 319 661 319 565 319 c 0,27,28
 362 319 362 319 362 565 c 0,29,30
 362 741 362 741 490 782 c 0,31,32
 529 795 529 795 573 795 c 2,33,-1
 764 795 l 1,34,-1
 764 887 l 2,35,36
 764 929 764 929 729.5 951 c 128,-1,37
 695 973 695 973 646.5 973 c 128,-1,38
 598 973 598 973 563 967 c 128,-1,39
 528 961 528 961 502 952 c 0,40,41
 446 931 446 931 446 901 c 2,42,-1
 446 854 l 1,43,-1
 379 852 l 1,44,-1
 381 1180 l 1,45,-1
 451 1180 l 1,46,-1
 449 1108 l 1,47,48
 557 1180 557 1180 676 1180 c 0,49,50
 834 1180 834 1180 834 1028 c 2,51,-1
 834 976 l 1,52,-1
 831 570 l 1,53,-1
 831 514 l 2,54,55
 831 468 831 468 855.5 435.5 c 128,-1,56
 880 403 880 403 930 403 c 0,57,58
 1024 403 1024 403 1024 516 c 2,59,-1
 1024 1135 l 2,60,61
 1024 1244 1024 1244 1006 1294 c 128,-1,62
 988 1344 988 1344 961.5 1377 c 128,-1,63
 935 1410 935 1410 890 1434 c 0,64,65
 796 1485 796 1485 644 1485 c 128,-1,66
 492 1485 492 1485 406 1457.5 c 128,-1,67
 320 1430 320 1430 270 1379 c 0,68,69
 178 1287 178 1287 178 1092 c 2,70,-1
 180 365 l 2,71,72
 180 172 180 172 282 94 c 0,73,74
 370 27 370 27 571 27 c 128,-1,75
 772 27 772 27 909 125 c 1,76,-1
 944 57 l 1,77,78
 842 -9 842 -9 684 -36 c 0,79,80
 628 -45 628 -45 534 -45 c 128,-1,81
 440 -45 440 -45 353 -20 c 128,-1,82
 266 5 266 5 212 56 c 0,83,84
 111 153 111 153 111 371 c 1,0,-1
682 726 m 2,85,-1
 559 727 l 2,86,87
 500 727 500 727 468 696.5 c 128,-1,88
 436 666 436 666 436 636 c 128,-1,89
 436 606 436 606 441.5 587 c 128,-1,90
 447 568 447 568 462 552 c 1,91,92
 494 514 494 514 553.5 514 c 128,-1,93
 613 514 613 514 649.5 525.5 c 128,-1,94
 686 537 686 537 711 556 c 0,95,96
 762 593 762 593 762 645 c 2,97,-1
 762 725 l 1,98,99
 721 725 721 725 682 726 c 2,85,-1
EndSplineSet
EndChar

StartChar: A
Encoding: 65 65 36
Width: 872
Flags: W
LayerCount: 2
Fore
SplineSet
750 1206 m 1,0,1
 610 1202 610 1202 608 1202 c 0,2,3
 593 1202 593 1202 596 1184 c 0,4,5
 596 1179 596 1179 596 1176.5 c 128,-1,6
 596 1174 596 1174 602 1140 c 128,-1,7
 608 1106 608 1106 617.5 1051 c 128,-1,8
 627 996 627 996 639.5 926 c 128,-1,9
 652 856 652 856 665 783 c 128,-1,10
 678 710 678 710 691 639 c 128,-1,11
 704 568 704 568 714 512 c 0,12,13
 740 366 740 366 747 351 c 128,-1,14
 754 336 754 336 774 336 c 2,15,-1
 852 336 l 1,16,-1
 856 -4 l 1,17,-1
 489 4 l 1,18,-1
 485 338 l 1,19,-1
 606 338 l 2,20,21
 631 338 631 338 643 357.5 c 128,-1,22
 655 377 655 377 653.5 387.5 c 128,-1,23
 652 398 652 398 647.5 425.5 c 128,-1,24
 643 453 643 453 635.5 497.5 c 128,-1,25
 628 542 628 542 618.5 599.5 c 128,-1,26
 609 657 609 657 598 719 c 1,27,-1
 317 719 l 1,28,-1
 250 393 l 2,29,30
 242 359 242 359 246 345.5 c 128,-1,31
 250 332 250 332 268 332 c 2,32,-1
 383 332 l 1,33,-1
 379 -2 l 1,34,-1
 10 -2 l 1,35,-1
 18 336 l 1,36,-1
 102 336 l 2,37,38
 154 336 154 336 162 371 c 0,39,40
 167 391 167 391 185 473.5 c 128,-1,41
 203 556 203 556 218.5 625.5 c 128,-1,42
 234 695 234 695 250 767.5 c 128,-1,43
 266 840 266 840 281.5 910 c 128,-1,44
 297 980 297 980 309.5 1036.5 c 128,-1,45
 322 1093 322 1093 330 1130.5 c 128,-1,46
 338 1168 338 1168 340 1179 c 0,47,48
 345 1200 345 1200 319 1200 c 2,49,-1
 199 1200 l 1,50,-1
 195 1536 l 1,51,-1
 748 1532 l 1,52,-1
 750 1206 l 1,0,1
332 791 m 1,53,-1
 586 793 l 1,54,55
 573 867 573 867 562 937 c 0,56,57
 521 1182 521 1182 514.5 1192 c 128,-1,58
 508 1202 508 1202 496 1202 c 2,59,-1
 436 1202 l 2,60,61
 418 1202 418 1202 414 1182 c 2,62,-1
 332 791 l 1,53,-1
EndSplineSet
EndChar

StartChar: B
Encoding: 66 66 37
Width: 874
Flags: W
LayerCount: 2
Fore
SplineSet
147 1204 m 0,0,1
 138 1204 138 1204 66 1196 c 1,2,-1
 49 1524 l 1,3,4
 329 1536 329 1536 398 1536 c 128,-1,5
 467 1536 467 1536 525 1519.5 c 128,-1,6
 583 1503 583 1503 634 1460 c 0,7,8
 754 1357 754 1357 754 1147 c 0,9,10
 754 915 754 915 656 836 c 0,11,12
 632 816 632 816 614 801 c 1,13,14
 834 737 834 737 834 401 c 0,15,16
 834 105 834 105 634 26 c 0,17,18
 567 0 567 0 479 0 c 2,19,-1
 72 0 l 1,20,-1
 70 340 l 1,21,-1
 172 340 l 2,22,23
 211 340 211 340 220 388 c 0,24,25
 223 401 223 401 223 410 c 2,26,-1
 223 1096 l 2,27,28
 223 1204 223 1204 147 1204 c 0,0,1
297 418 m 2,29,30
 297 376 297 376 317 361 c 0,31,32
 345 340 345 340 376 340 c 2,33,-1
 455 340 l 2,34,35
 608 340 608 340 640 353 c 128,-1,36
 672 366 672 366 692 390 c 0,37,38
 731 439 731 439 731 543 c 0,39,40
 731 633 731 633 676 693 c 0,41,42
 623 752 623 752 535 752 c 2,43,-1
 340 752 l 2,44,45
 309 752 309 752 304 740 c 0,46,47
 297 726 297 726 297 696 c 2,48,-1
 297 418 l 2,29,30
299 860 m 2,49,50
 300 838 300 838 305.5 830.5 c 128,-1,51
 311 823 311 823 334 823 c 2,52,-1
 502 823 l 2,53,54
 605 823 605 823 650 926 c 0,55,56
 668 966 668 966 668 1019 c 128,-1,57
 668 1072 668 1072 655.5 1101.5 c 128,-1,58
 643 1131 643 1131 623 1150.5 c 128,-1,59
 603 1170 603 1170 579 1180.5 c 128,-1,60
 555 1191 555 1191 533 1196 c 0,61,62
 503 1204 503 1204 467 1204 c 2,63,-1
 360 1204 l 2,64,65
 333 1204 333 1204 316.5 1191.5 c 128,-1,66
 300 1179 300 1179 297 1141 c 1,67,-1
 299 860 l 2,49,50
EndSplineSet
EndChar

StartChar: C
Encoding: 67 67 38
Width: 795
Flags: W
LayerCount: 2
Fore
SplineSet
76 330 m 1,0,-1
 72 1168 l 1,1,-1
 72 1270 l 2,2,3
 72 1458 72 1458 234 1517 c 0,4,5
 287 1536 287 1536 348 1536 c 2,6,-1
 453 1536 l 2,7,8
 544 1536 544 1536 605 1484 c 0,9,10
 639 1454 639 1454 655 1423 c 1,11,-1
 651 1532 l 1,12,-1
 729 1532 l 1,13,-1
 725 948 l 1,14,-1
 655 944 l 1,15,-1
 655 1059 l 2,16,17
 655 1124 655 1124 617 1162 c 128,-1,18
 579 1200 579 1200 508 1200 c 2,19,-1
 307 1202 l 1,20,21
 196 1202 196 1202 158 1113 c 0,22,23
 145 1084 145 1084 145 1047 c 2,24,-1
 150 492 l 1,25,26
 150 366 150 366 238 347 c 0,27,28
 262 342 262 342 285 342 c 2,29,-1
 522 342 l 2,30,31
 585 342 585 342 620 373.5 c 128,-1,32
 655 405 655 405 655 453 c 2,33,-1
 656 526 l 2,34,35
 656 563 656 563 651 643 c 1,36,-1
 723 649 l 1,37,38
 723 597 723 597 724 536 c 2,39,-1
 725 276 l 2,40,41
 725 69 725 69 604 18 c 0,42,43
 566 2 566 2 528 2 c 2,44,-1
 474 2 l 1,45,-1
 430 1 l 1,46,-1
 368 0 l 1,47,-1
 301 0 l 2,48,49
 76 0 76 0 76 256 c 2,50,-1
 76 330 l 1,0,-1
EndSplineSet
EndChar

StartChar: D
Encoding: 68 68 39
Width: 831
Flags: W
LayerCount: 2
Fore
SplineSet
223 473 m 1,0,-1
 219 1041 l 1,1,-1
 219 1090 l 2,2,3
 219 1148 219 1148 199.5 1172 c 128,-1,4
 180 1196 180 1196 133 1196 c 2,5,-1
 51 1196 l 1,6,-1
 51 1534 l 1,7,8
 130 1534 130 1534 212 1535 c 2,9,-1
 520 1536 l 2,10,11
 721 1536 721 1536 750 1396 c 0,12,13
 760 1351 760 1351 760 1296 c 2,14,-1
 760 256 l 2,15,16
 760 31 760 31 623 7 c 0,17,18
 583 0 583 0 539 0 c 2,19,-1
 61 0 l 1,20,-1
 61 332 l 1,21,-1
 168 332 l 2,22,23
 204 332 204 332 212 349 c 0,24,25
 223 373 223 373 223 408 c 2,26,-1
 223 473 l 1,0,-1
295 771 m 2,27,-1
 297 424 l 1,28,-1
 297 379 l 2,29,30
 297 335 297 335 330 330 c 0,31,32
 339 328 339 328 348 328 c 2,33,-1
 612 328 l 2,34,35
 679 328 679 328 684 382 c 0,36,37
 686 398 686 398 686 416 c 2,38,-1
 686 1120 l 2,39,40
 686 1199 686 1199 628 1208 c 0,41,42
 611 1210 611 1210 590 1210 c 2,43,-1
 352 1210 l 2,44,45
 315 1210 315 1210 304 1186.5 c 128,-1,46
 293 1163 293 1163 293 1130 c 0,47,48
 294 931 294 931 295 771 c 2,27,-1
EndSplineSet
EndChar

StartChar: E
Encoding: 69 69 40
Width: 842
Flags: W
LayerCount: 2
Fore
SplineSet
180 344 m 2,0,1
 223 344 223 344 223 422 c 2,2,-1
 223 1116 l 2,3,4
 223 1185 223 1185 182 1197 c 0,5,6
 157 1204 157 1204 92 1204 c 2,7,-1
 35 1204 l 1,8,-1
 35 1532 l 1,9,10
 125 1533 125 1533 207 1534 c 2,11,-1
 411 1536 l 1,12,-1
 739 1536 l 1,13,-1
 733 1024 l 1,14,-1
 659 1022 l 1,15,16
 662 1043 662 1043 662 1094 c 128,-1,17
 662 1145 662 1145 647 1164 c 128,-1,18
 632 1183 632 1183 605 1194 c 0,19,20
 557 1212 557 1212 476 1212 c 128,-1,21
 395 1212 395 1212 363.5 1204 c 128,-1,22
 332 1196 332 1196 317 1185 c 0,23,24
 297 1170 297 1170 297 1137 c 2,25,-1
 297 827 l 1,26,-1
 440 827 l 2,27,28
 457 827 457 827 472 839.5 c 128,-1,29
 487 852 487 852 488.5 875.5 c 128,-1,30
 490 899 490 899 490 923 c 2,31,32
 490 923 490 923 490 969 c 0,33,34
 490 995 490 995 489 1022 c 1,35,-1
 563 1026 l 1,36,-1
 569 526 l 1,37,-1
 498 526 l 1,38,-1
 498 593 l 1,39,40
 497 621 497 621 496 650 c 0,41,42
 494 710 494 710 482.5 726 c 128,-1,43
 471 742 471 742 460 748 c 0,44,45
 443 758 443 758 428 758 c 0,46,47
 396 758 396 758 361 756.5 c 128,-1,48
 326 755 326 755 297 754 c 1,49,50
 296 682 296 682 296 619 c 2,51,-1
 295 510 l 1,52,-1
 295 428 l 2,53,54
 295 381 295 381 314 364 c 0,55,56
 342 340 342 340 367 340 c 2,57,-1
 637 340 l 2,58,59
 709 340 709 340 709 428 c 1,60,-1
 708 509 l 2,61,62
 707 531 707 531 707 553 c 1,63,-1
 780 555 l 1,64,-1
 768 -6 l 1,65,66
 595 4 595 4 531 4 c 2,67,-1
 436 4 l 1,68,-1
 387 4 l 1,69,-1
 200 2 l 2,70,71
 127 1 127 1 49 0 c 1,72,-1
 49 344 l 1,73,-1
 180 344 l 2,0,1
EndSplineSet
EndChar

StartChar: F
Encoding: 70 70 41
Width: 776
Flags: W
LayerCount: 2
Fore
SplineSet
231 1180 m 2,0,1
 231 1202 231 1202 212 1202 c 0,2,3
 203 1202 203 1202 35 1198 c 1,4,-1
 41 1530 l 1,5,6
 123 1531 123 1531 197 1533 c 1,7,-1
 422 1536 l 1,8,-1
 729 1536 l 1,9,10
 735 1284 735 1284 735 1274 c 2,11,-1
 734 1056 l 2,12,13
 733 992 733 992 733 924 c 1,14,-1
 666 930 l 1,15,16
 666 950 666 950 667 973.5 c 128,-1,17
 668 997 668 997 668.5 1026 c 128,-1,18
 669 1055 669 1055 670 1103.5 c 128,-1,19
 671 1152 671 1152 637.5 1179 c 128,-1,20
 604 1206 604 1206 547 1206 c 2,21,-1
 476 1205 l 1,22,-1
 384 1203 l 1,23,-1
 332 1202 l 2,24,25
 307 1202 307 1202 307 1180 c 2,26,-1
 295 840 l 2,27,28
 295 827 295 827 315 827 c 2,29,-1
 446 831 l 1,30,31
 483 831 483 831 483 881 c 0,32,33
 483 904 483 904 484.5 932.5 c 128,-1,34
 486 961 486 961 487 985 c 1,35,-1
 559 987 l 1,36,-1
 541 582 l 1,37,-1
 471 575 l 1,38,39
 479 735 479 735 479 737 c 0,40,41
 479 760 479 760 446 760 c 2,42,-1
 384 759 l 1,43,-1
 309 758 l 2,44,45
 295 758 295 758 295 737 c 2,46,-1
 287 399 l 1,47,48
 287 344 287 344 350 344 c 1,49,-1
 498 338 l 1,50,-1
 496 -2 l 1,51,-1
 43 2 l 1,52,-1
 49 344 l 1,53,54
 81 345 81 345 106 346 c 0,55,56
 154 348 154 348 176 348 c 0,57,58
 219 348 219 348 219 383 c 2,59,-1
 231 1180 l 2,0,1
EndSplineSet
EndChar

StartChar: G
Encoding: 71 71 42
Width: 774
Flags: W
LayerCount: 2
Fore
SplineSet
721 682 m 2,0,1
 680 682 680 682 680 633 c 2,2,-1
 680 0 l 1,3,-1
 606 0 l 1,4,5
 607 9 607 9 607 22 c 2,6,-1
 607 78 l 2,7,8
 607 92 607 92 608 102 c 1,9,10
 602 90 602 90 592.5 71.5 c 128,-1,11
 583 53 583 53 558 35 c 0,12,13
 497 -8 497 -8 383 -8 c 128,-1,14
 269 -8 269 -8 215 1 c 128,-1,15
 161 10 161 10 129 36 c 0,16,17
 72 84 72 84 72 242 c 2,18,-1
 72 1292 l 2,19,20
 72 1447 72 1447 146 1500 c 1,21,22
 210 1548 210 1548 375 1548 c 0,23,24
 514 1548 514 1548 579 1480 c 0,25,26
 594 1465 594 1465 602 1456 c 1,27,-1
 602 1536 l 1,28,-1
 674 1534 l 1,29,-1
 674 1008 l 1,30,-1
 604 1008 l 1,31,-1
 604 1147 l 2,32,33
 604 1221 604 1221 518 1221 c 2,34,-1
 240 1221 l 2,35,36
 157 1221 157 1221 148 1170 c 0,37,38
 145 1157 145 1157 145 1145 c 2,39,-1
 145 424 l 2,40,41
 145 376 145 376 164 362 c 1,42,43
 191 344 191 344 236 344 c 2,44,-1
 539 344 l 2,45,46
 610 344 610 344 610 416 c 2,47,-1
 610 631 l 2,48,49
 610 666 610 666 600 675 c 1,50,51
 585 686 585 686 543 686 c 2,52,-1
 395 686 l 1,53,-1
 395 760 l 1,54,-1
 754 760 l 1,55,-1
 754 682 l 1,56,-1
 721 682 l 2,0,1
EndSplineSet
EndChar

StartChar: H
Encoding: 72 72 43
Width: 940
Flags: W
LayerCount: 2
Fore
SplineSet
199 1200 m 2,0,-1
 37 1204 l 1,1,-1
 37 1530 l 1,2,-1
 446 1538 l 1,3,-1
 453 1208 l 1,4,-1
 332 1208 l 2,5,6
 315 1208 315 1208 312 1196.5 c 128,-1,7
 309 1185 309 1185 309 1174 c 2,8,-1
 301 887 l 2,9,10
 301 860 301 860 319 860 c 0,11,12
 393 859 393 859 455 859 c 2,13,-1
 554 858 l 2,14,15
 582 858 582 858 610 858 c 0,16,17
 645 858 645 858 645 899 c 0,18,19
 644 973 644 973 644 1033 c 2,20,-1
 643 1128 l 2,21,22
 643 1174 643 1174 640 1185 c 0,23,24
 636 1204 636 1204 604 1204 c 2,25,-1
 516 1204 l 1,26,-1
 520 1522 l 1,27,-1
 895 1534 l 1,28,-1
 887 1208 l 1,29,30
 854 1205 854 1205 829 1202 c 0,31,32
 764 1196 764 1196 756 1196 c 0,33,34
 723 1196 723 1196 723 1169 c 2,35,-1
 715 381 l 2,36,37
 715 372 715 372 716 362 c 128,-1,38
 717 352 717 352 731 352 c 2,39,-1
 887 352 l 1,40,-1
 895 0 l 1,41,-1
 528 4 l 1,42,-1
 516 340 l 1,43,44
 540 341 540 341 559.5 343 c 128,-1,45
 579 345 579 345 596 346 c 128,-1,46
 613 347 613 347 622 348 c 0,47,48
 639 351 639 351 639 381 c 2,49,-1
 639 758 l 2,50,51
 639 784 639 784 608 784 c 2,52,-1
 406 787 l 1,53,-1
 326 788 l 2,54,55
 303 788 303 788 303 768 c 2,56,-1
 300 472 l 1,57,-1
 299 360 l 2,58,59
 299 336 299 336 324 336 c 2,60,-1
 451 336 l 1,61,-1
 442 8 l 1,62,-1
 57 -16 l 1,63,-1
 41 336 l 1,64,65
 185 332 185 332 199 332 c 128,-1,66
 213 332 213 332 216 342.5 c 128,-1,67
 219 353 219 353 219 369 c 2,68,-1
 227 1165 l 2,69,70
 227 1200 227 1200 199 1200 c 2,0,-1
EndSplineSet
EndChar

StartChar: I
Encoding: 73 73 44
Width: 518
Flags: W
LayerCount: 2
Fore
SplineSet
225 1155 m 2,0,1
 225 1198 225 1198 186 1198 c 2,2,-1
 70 1198 l 1,3,4
 70 1474 70 1474 76 1528 c 1,5,6
 114 1530 114 1530 150 1532 c 0,7,8
 222 1536 222 1536 295 1536 c 0,9,10
 359 1536 359 1536 475 1532 c 1,11,-1
 457 1204 l 1,12,13
 437 1203 437 1203 419 1202.5 c 128,-1,14
 401 1202 401 1202 384 1202 c 2,15,-1
 354 1202 l 2,16,17
 330 1202 330 1202 315.5 1185 c 128,-1,18
 301 1168 301 1168 301 1137 c 2,19,20
 301 1137 301 1137 293 395 c 0,21,22
 293 348 293 348 332 348 c 2,23,-1
 469 348 l 1,24,-1
 457 4 l 1,25,26
 350 1 350 1 288.5 -1 c 128,-1,27
 227 -3 227 -3 191 -4 c 128,-1,28
 155 -5 155 -5 126 -6 c 0,29,30
 66 -8 66 -8 51 -8 c 1,31,-1
 53 132 l 1,32,-1
 53 354 l 1,33,-1
 184 354 l 2,34,35
 219 354 219 354 219 395 c 2,36,-1
 224 1021 l 1,37,-1
 225 1155 l 2,0,1
EndSplineSet
EndChar

StartChar: J
Encoding: 74 74 45
Width: 662
Flags: W
LayerCount: 2
Fore
SplineSet
387 385 m 2,0,-1
 395 1153 l 2,1,2
 395 1190 395 1190 366 1198 c 0,3,4
 359 1200 359 1200 354 1200 c 2,5,-1
 324 1200 l 2,6,7
 299 1200 299 1200 268 1200.5 c 128,-1,8
 237 1201 237 1201 195 1202 c 1,9,-1
 188 1536 l 1,10,-1
 641 1532 l 1,11,-1
 635 1202 l 1,12,13
 606 1202 606 1202 580 1203 c 2,14,-1
 506 1204 l 2,15,16
 471 1204 471 1204 471 1161 c 0,17,18
 471 1155 471 1155 470 1109 c 128,-1,19
 469 1063 469 1063 468 988 c 128,-1,20
 467 913 467 913 465 816.5 c 128,-1,21
 463 720 463 720 462 614 c 0,22,23
 459 298 459 298 459 222.5 c 128,-1,24
 459 147 459 147 450 114.5 c 128,-1,25
 441 82 441 82 426 59.5 c 128,-1,26
 411 37 411 37 392.5 24 c 128,-1,27
 374 11 374 11 356 4 c 0,28,29
 327 -8 327 -8 291 -8 c 2,30,-1
 141 -6 l 2,31,32
 96 -6 96 -6 69 20 c 0,33,34
 20 66 20 66 20 102.5 c 128,-1,35
 20 139 20 139 31 524 c 1,36,-1
 100 522 l 1,37,38
 96 386 96 386 96 372 c 128,-1,39
 96 358 96 358 108 346 c 128,-1,40
 120 334 120 334 138.5 332.5 c 128,-1,41
 157 331 157 331 184.5 331.5 c 128,-1,42
 212 332 212 332 242 332 c 0,43,44
 309 334 309 334 336.5 336.5 c 128,-1,45
 364 339 364 339 375.5 354.5 c 128,-1,46
 387 370 387 370 387 385 c 2,0,-1
EndSplineSet
EndChar

StartChar: K
Encoding: 75 75 46
Width: 877
Flags: W
LayerCount: 2
Fore
SplineSet
170 1204 m 0,0,1
 155 1204 155 1204 51 1196 c 1,2,-1
 55 1528 l 1,3,-1
 414 1536 l 1,4,-1
 414 1204 l 1,5,-1
 324 1204 l 2,6,7
 301 1204 301 1204 291 1193.5 c 128,-1,8
 281 1183 281 1183 281 1157 c 2,9,-1
 281 788 l 1,10,11
 395 926 395 926 537 1153 c 1,12,13
 562 1200 562 1200 522 1200 c 2,14,-1
 492 1200 l 1,15,-1
 489 1536 l 1,16,-1
 817 1534 l 1,17,-1
 807 1200 l 1,18,-1
 731 1200 l 2,19,20
 655 1200 655 1200 614 1148 c 0,21,22
 601 1132 601 1132 575 1094 c 2,23,-1
 534 1034 l 2,24,25
 499 982 499 982 457 918 c 1,26,27
 640 412 640 412 651.5 386 c 128,-1,28
 663 360 663 360 676 356 c 128,-1,29
 689 352 689 352 705 352 c 2,30,-1
 856 346 l 1,31,-1
 846 2 l 1,32,-1
 535 -4 l 1,33,-1
 528 346 l 1,34,-1
 573 346 l 2,35,36
 585 346 585 346 580 360.5 c 128,-1,37
 575 375 575 375 562 413 c 128,-1,38
 549 451 549 451 532.5 498.5 c 128,-1,39
 516 546 516 546 498 597.5 c 128,-1,40
 480 649 480 649 464 694 c 0,41,42
 415 835 415 835 403 840 c 0,43,44
 399 841 399 841 395 836 c 0,45,46
 382 817 382 817 347 773.5 c 128,-1,47
 312 730 312 730 285 694 c 1,48,-1
 295 391 l 1,49,50
 295 350 295 350 352 350 c 2,51,-1
 434 350 l 1,52,-1
 438 2 l 1,53,54
 278 -2 278 -2 51 -2 c 1,55,-1
 47 344 l 1,56,57
 167 348 167 348 181 348 c 128,-1,58
 195 348 195 348 208 361.5 c 128,-1,59
 221 375 221 375 221 401 c 2,60,-1
 207 1176 l 2,61,62
 207 1204 207 1204 170 1204 c 0,0,1
EndSplineSet
EndChar

StartChar: L
Encoding: 76 76 47
Width: 791
Flags: W
LayerCount: 2
Fore
SplineSet
193 346 m 2,0,1
 213 346 213 346 213 383 c 2,2,-1
 213 1180 l 2,3,4
 213 1194 213 1194 206.5 1196 c 128,-1,5
 200 1198 200 1198 180 1198 c 2,6,-1
 47 1198 l 1,7,-1
 41 1536 l 1,8,-1
 455 1534 l 1,9,-1
 451 1200 l 1,10,-1
 315 1200 l 2,11,12
 294 1200 294 1200 291.5 1189 c 128,-1,13
 289 1178 289 1178 289 1167 c 2,14,-1
 284 532 l 1,15,-1
 283 395 l 2,16,17
 283 363 283 363 296 354.5 c 128,-1,18
 309 346 309 346 332 346 c 2,19,-1
 417 347 l 1,20,-1
 548 349 l 1,21,22
 548 349 548 349 631 350 c 0,23,24
 684 350 684 350 684 403 c 1,25,-1
 681 518 l 2,26,27
 679 562 679 562 678 616 c 1,28,-1
 750 616 l 1,29,-1
 748 0 l 1,30,-1
 55 -4 l 1,31,-1
 55 346 l 1,32,-1
 193 346 l 2,0,1
EndSplineSet
EndChar

StartChar: M
Encoding: 77 77 48
Width: 1182
Flags: W
LayerCount: 2
Fore
SplineSet
219 397 m 2,0,-1
 231 1143 l 2,1,2
 231 1175 231 1175 217 1187.5 c 128,-1,3
 203 1200 203 1200 172 1200 c 2,4,-1
 94 1200 l 1,5,-1
 94 1536 l 1,6,-1
 303 1536 l 2,7,8
 320 1536 320 1536 352.5 1533.5 c 128,-1,9
 385 1531 385 1531 421 1528 c 128,-1,10
 457 1525 457 1525 500 1522 c 1,11,-1
 502 1198 l 1,12,-1
 436 1198 l 1,13,-1
 594 358 l 1,14,-1
 780 1194 l 1,15,-1
 723 1194 l 1,16,-1
 731 1528 l 1,17,18
 768 1530 768 1530 802 1532 c 0,19,20
 868 1536 868 1536 928 1536 c 1,21,-1
 1122 1530 l 1,22,-1
 1100 1198 l 1,23,24
 1081 1198 1081 1198 1063 1199 c 2,25,26
 1063 1199 1063 1199 1010 1200 c 0,27,28
 991 1200 991 1200 980 1186.5 c 128,-1,29
 969 1173 969 1173 969 1153 c 2,30,-1
 954 395 l 2,31,32
 954 346 954 346 1008 346 c 2,33,-1
 1104 346 l 1,34,-1
 1096 0 l 1,35,-1
 735 2 l 1,36,-1
 741 344 l 1,37,-1
 827 344 l 2,38,39
 877 344 877 344 877 403 c 0,40,41
 877 431 877 431 895 1198 c 1,42,-1
 860 1196 l 1,43,-1
 623 180 l 1,44,-1
 557 178 l 1,45,-1
 358 1196 l 1,46,-1
 309 1196 l 1,47,48
 294 560 294 560 294 482 c 128,-1,49
 294 404 294 404 295 394 c 128,-1,50
 296 384 296 384 296.5 374 c 128,-1,51
 297 364 297 364 301 357 c 0,52,53
 310 342 310 342 324 342 c 128,-1,54
 338 342 338 342 442 338 c 1,55,-1
 424 -6 l 1,56,-1
 55 2 l 1,57,-1
 55 344 l 1,58,-1
 182 344 l 2,59,60
 205 344 205 344 212 356 c 128,-1,61
 219 368 219 368 219 397 c 2,0,-1
EndSplineSet
EndChar

StartChar: N
Encoding: 78 78 49
Width: 950
Flags: W
LayerCount: 2
Fore
SplineSet
108 335 m 2,0,-1
 178 336 l 2,1,2
 215 336 215 336 215 391 c 2,3,-1
 215 1178 l 2,4,5
 215 1195 215 1195 208.5 1199.5 c 128,-1,6
 202 1204 202 1204 180 1204 c 2,7,-1
 59 1204 l 1,8,-1
 59 1536 l 1,9,-1
 260 1536 l 2,10,11
 293 1536 293 1536 298 1522.5 c 128,-1,12
 303 1509 303 1509 307 1497 c 2,13,-1
 659 369 l 1,14,-1
 670 373 l 1,15,16
 672 584 672 584 673.5 705 c 128,-1,17
 675 826 675 826 675.5 896.5 c 128,-1,18
 676 967 676 967 676.5 1024 c 128,-1,19
 677 1081 677 1081 677.5 1119 c 128,-1,20
 678 1157 678 1157 678 1165 c 0,21,22
 678 1210 678 1210 623 1210 c 2,23,-1
 555 1209 l 2,24,25
 538 1208 538 1208 524 1208 c 1,26,-1
 510 1532 l 1,27,28
 662 1536 662 1536 696 1536 c 2,29,-1
 901 1536 l 1,30,-1
 889 1210 l 1,31,32
 870 1210 870 1210 853 1211 c 2,33,-1
 799 1212 l 2,34,35
 752 1212 752 1212 752 1161 c 2,36,-1
 735 12 l 2,37,38
 735 -12 735 -12 719 -12 c 0,39,40
 700 -12 700 -12 692 12 c 2,41,-1
 317 1204 l 1,42,43
 314 1219 314 1219 302 1218 c 1,44,45
 291 1216 291 1216 291 1204 c 2,46,-1
 291 412 l 2,47,48
 291 346 291 346 342 346 c 2,49,-1
 446 346 l 1,50,-1
 459 -2 l 1,51,-1
 55 2 l 1,52,-1
 55 334 l 1,53,54
 83 334 83 334 108 335 c 2,0,-1
EndSplineSet
EndChar

StartChar: O
Encoding: 79 79 50
Width: 805
Flags: W
LayerCount: 2
Fore
SplineSet
76 284 m 1,0,-1
 72 1248 l 1,1,-1
 72 1329 l 2,2,3
 72 1421 72 1421 130 1478 c 0,4,5
 186 1532 186 1532 254.5 1532.5 c 128,-1,6
 323 1533 323 1533 376 1534 c 2,7,-1
 500 1536 l 1,8,-1
 524 1536 l 2,9,10
 622 1536 622 1536 678 1446 c 0,11,12
 723 1374 723 1374 723 1294 c 2,13,-1
 728 443 l 1,14,-1
 729 229 l 2,15,16
 729 72 729 72 594 20 c 0,17,18
 553 4 553 4 504 4 c 2,19,-1
 262 0 l 1,20,21
 169 0 169 0 117 80 c 0,22,23
 76 142 76 142 76 219 c 2,24,-1
 76 284 l 1,0,-1
319 338 m 1,25,-1
 530 342 l 1,26,27
 611 342 611 342 639 418 c 0,28,29
 649 446 649 446 649 487 c 2,30,-1
 649 1044 l 2,31,32
 649 1190 649 1190 498 1190 c 2,33,-1
 307 1190 l 2,34,35
 193 1190 193 1190 159 1101 c 0,36,37
 147 1070 147 1070 147 1039 c 2,38,-1
 147 970 l 1,39,-1
 150 572 l 1,40,-1
 150 496 l 2,41,42
 150 412 150 412 205 371 c 0,43,44
 249 338 249 338 319 338 c 1,25,-1
EndSplineSet
EndChar

StartChar: P
Encoding: 80 80 51
Width: 831
Flags: W
LayerCount: 2
Fore
SplineSet
229 1178 m 1,0,1
 226 1200 226 1200 201 1200 c 2,2,-1
 41 1200 l 1,3,-1
 41 1536 l 1,4,-1
 461 1536 l 2,5,6
 555 1536 555 1536 648 1468 c 1,7,8
 731 1406 731 1406 770 1272 c 0,9,10
 790 1202 790 1202 790 1104 c 0,11,12
 790 927 790 927 724 825 c 0,13,14
 675 750 675 750 592 719 c 0,15,16
 546 702 546 702 497 702 c 2,17,-1
 319 702 l 2,18,19
 307 702 307 702 306 696.5 c 128,-1,20
 305 691 305 691 305 688 c 2,21,-1
 305 661 l 1,22,-1
 303 392 l 1,23,24
 303 392 303 392 303 362 c 0,25,26
 303 350 303 350 308.5 348 c 128,-1,27
 314 346 314 346 324 346 c 2,28,-1
 477 346 l 1,29,-1
 483 0 l 1,30,-1
 51 0 l 1,31,-1
 59 344 l 1,32,33
 97 344 97 344 128 345 c 2,34,35
 128 345 128 345 203 346 c 0,36,37
 219 346 219 346 219 365 c 2,38,-1
 229 1178 l 1,0,1
299 811 m 0,39,40
 299 778 299 778 340 778 c 2,41,-1
 506 778 l 2,42,43
 608 778 608 778 658 888 c 0,44,45
 678 933 678 933 678 1004 c 128,-1,46
 678 1075 678 1075 652.5 1113.5 c 128,-1,47
 627 1152 627 1152 592 1172 c 0,48,49
 539 1202 539 1202 469 1202 c 2,50,-1
 344 1202 l 2,51,52
 315 1202 315 1202 310 1194.5 c 128,-1,53
 305 1187 305 1187 305 1177 c 128,-1,54
 305 1167 305 1167 304.5 1143.5 c 128,-1,55
 304 1120 304 1120 303.5 1083 c 128,-1,56
 303 1046 303 1046 302 1002 c 128,-1,57
 301 958 301 958 300.5 918.5 c 128,-1,58
 300 879 300 879 299.5 849 c 128,-1,59
 299 819 299 819 299 811 c 0,39,40
EndSplineSet
EndChar

StartChar: Q
Encoding: 81 81 52
Width: 768
Flags: W
LayerCount: 2
Fore
SplineSet
66 225 m 2,0,-1
 61 1249 l 1,1,2
 61 1482 61 1482 218 1525 c 0,3,4
 259 1536 259 1536 326 1536 c 2,5,-1
 471 1536 l 2,6,7
 628 1536 628 1536 686 1421 c 0,8,9
 707 1381 707 1381 707 1325 c 2,10,-1
 707 238 l 2,11,12
 707 56 707 56 618 14 c 1,13,14
 592 3 592 3 565 4 c 128,-1,15
 538 5 538 5 530 3.5 c 128,-1,16
 522 2 522 2 522 -8 c 0,17,18
 522 -41 522 -41 623 -41 c 0,19,20
 664 -41 664 -41 715 -35 c 1,21,-1
 723 -319 l 1,22,23
 711 -324 711 -324 640.5 -324 c 128,-1,24
 570 -324 570 -324 533.5 -300 c 128,-1,25
 497 -276 497 -276 479 -236 c 0,26,27
 453 -177 453 -177 453 -29 c 0,28,29
 453 0 453 0 414 0 c 2,30,-1
 221 0 l 2,31,32
 139 0 139 0 96 85 c 0,33,34
 66 146 66 146 66 225 c 2,0,-1
135 612 m 1,35,36
 195 676 195 676 326 676 c 0,37,38
 445 676 445 676 492 585 c 0,39,40
 508 554 508 554 508 512 c 2,41,-1
 508 342 l 1,42,43
 574 340 574 340 613 378 c 0,44,45
 633 398 633 398 633 436 c 2,46,-1
 633 1051 l 2,47,48
 633 1169 633 1169 542 1191 c 0,49,50
 513 1198 513 1198 477 1198 c 2,51,-1
 272 1198 l 2,52,53
 203 1198 203 1198 169 1162.5 c 128,-1,54
 135 1127 135 1127 135 1067 c 2,55,-1
 135 612 l 1,35,36
438 485 m 0,56,57
 438 606 438 606 322 606 c 0,58,59
 200 606 200 606 152 542 c 0,60,61
 135 520 135 520 135 483 c 128,-1,62
 135 446 135 446 141.5 417.5 c 128,-1,63
 148 389 148 389 163 372 c 0,64,65
 192 338 192 338 260 338 c 2,66,-1
 434 338 l 1,67,68
 438 430 438 430 438 485 c 0,56,57
EndSplineSet
EndChar

StartChar: R
Encoding: 82 82 53
Width: 887
Flags: W
LayerCount: 2
Fore
SplineSet
221 1169 m 2,0,1
 221 1200 221 1200 176 1200 c 2,2,-1
 150 1200 l 2,3,4
 130 1200 130 1200 106 1200.5 c 128,-1,5
 82 1201 82 1201 51 1202 c 1,6,-1
 51 1534 l 1,7,8
 138 1534 138 1534 193.5 1534.5 c 128,-1,9
 249 1535 249 1535 284 1535 c 2,10,-1
 414 1536 l 1,11,-1
 465 1536 l 2,12,13
 715 1536 715 1536 780 1289 c 0,14,15
 797 1224 797 1224 797 1145 c 128,-1,16
 797 1066 797 1066 784 1016 c 128,-1,17
 771 966 771 966 749.5 930 c 128,-1,18
 728 894 728 894 701 871.5 c 128,-1,19
 674 849 674 849 646 836 c 0,20,21
 598 812 598 812 545 807 c 1,22,-1
 545 801 l 1,23,24
 594 787 594 787 624.5 743.5 c 128,-1,25
 655 700 655 700 655 635 c 2,26,-1
 655 369 l 2,27,28
 655 340 655 340 670 326.5 c 128,-1,29
 685 313 685 313 705 313 c 128,-1,30
 725 313 725 313 739.5 330.5 c 128,-1,31
 754 348 754 348 754 367 c 2,32,33
 754 367 754 367 754 414 c 0,34,35
 754 442 754 442 754.5 473 c 128,-1,36
 755 504 755 504 756 543 c 1,37,-1
 825 545 l 1,38,-1
 825 178 l 2,39,40
 825 49 825 49 769 4 c 0,41,42
 744 -16 744 -16 700 -16 c 0,43,44
 589 -16 589 -16 578 113 c 0,45,46
 575 149 575 149 575 184 c 2,47,-1
 582 627 l 1,48,49
 582 713 582 713 521 756 c 0,50,51
 477 786 477 786 428 786 c 2,52,-1
 324 786 l 2,53,54
 305 786 305 786 305 768 c 2,55,-1
 305 738 l 1,56,-1
 303 421 l 1,57,-1
 303 385 l 2,58,59
 303 344 303 344 338 344 c 2,60,-1
 461 344 l 1,61,-1
 459 4 l 1,62,-1
 53 -2 l 1,63,-1
 53 344 l 1,64,-1
 182 344 l 2,65,66
 225 344 225 344 225 395 c 2,67,-1
 225 434 l 1,68,-1
 221 1130 l 1,69,-1
 221 1169 l 2,0,1
328 1202 m 2,70,71
 301 1202 301 1202 301 1169 c 0,72,73
 301 1160 301 1160 300.5 1120.5 c 128,-1,74
 300 1081 300 1081 300 1024 c 2,75,-1
 299 932 l 1,76,-1
 299 879 l 2,77,78
 299 860 299 860 317 860 c 2,79,-1
 400 859 l 1,80,-1
 522 858 l 2,81,82
 631 858 631 858 680 948 c 0,83,84
 698 981 698 981 698 1030.5 c 128,-1,85
 698 1080 698 1080 682.5 1112.5 c 128,-1,86
 667 1145 667 1145 645 1164 c 0,87,88
 605 1200 605 1200 561 1200 c 2,89,-1
 328 1202 l 2,70,71
EndSplineSet
EndChar

StartChar: S
Encoding: 83 83 54
Width: 780
Flags: W
LayerCount: 2
Fore
SplineSet
87 1104 m 1,0,-1
 88 1307 l 1,1,2
 88 1511 88 1511 266 1536 c 0,3,4
 317 1544 317 1544 376 1544 c 0,5,6
 472 1544 472 1544 540 1503 c 0,7,8
 569 1485 569 1485 586 1462 c 1,9,-1
 594 1462 l 1,10,-1
 594 1536 l 1,11,-1
 672 1536 l 1,12,-1
 668 995 l 1,13,-1
 596 995 l 1,14,-1
 596 1122 l 2,15,16
 596 1167 596 1167 569.5 1192 c 128,-1,17
 543 1217 543 1217 492 1217 c 2,18,-1
 266 1217 l 2,19,20
 223 1217 223 1217 193.5 1192 c 128,-1,21
 164 1167 164 1167 164 1121 c 128,-1,22
 164 1075 164 1075 162 1030.5 c 128,-1,23
 160 986 160 986 161.5 945 c 128,-1,24
 163 904 163 904 171 882.5 c 128,-1,25
 179 861 179 861 194 850 c 0,26,27
 218 831 218 831 289 831 c 2,28,-1
 477 831 l 2,29,30
 589 831 589 831 654 749 c 0,31,32
 709 679 709 679 709 580 c 2,33,-1
 709 250 l 2,34,35
 709 109 709 109 642 52 c 0,36,37
 571 -8 571 -8 395 -8 c 0,38,39
 223 -8 223 -8 147 104 c 1,40,-1
 135 104 l 1,41,-1
 135 0 l 1,42,-1
 61 0 l 1,43,-1
 76 635 l 1,44,-1
 145 633 l 1,45,46
 144 587 144 587 143.5 546 c 128,-1,47
 143 505 143 505 143 464 c 2,48,-1
 143 393 l 2,49,50
 143 334 143 334 158 319 c 0,51,52
 181 295 181 295 225 295 c 2,53,-1
 349 294 l 1,54,-1
 524 293 l 2,55,56
 618 293 618 293 630 368 c 0,57,58
 633 391 633 391 633 420 c 2,59,-1
 633 569 l 2,60,61
 633 745 633 745 446 745 c 2,62,-1
 293 745 l 2,63,64
 200 745 200 745 164 768 c 0,65,66
 86 819 86 819 86 967 c 1,67,-1
 87 1104 l 1,0,-1
EndSplineSet
EndChar

StartChar: T
Encoding: 84 84 55
Width: 725
Flags: W
LayerCount: 2
Fore
SplineSet
154 1206 m 2,0,1
 100 1206 100 1206 100 1141 c 2,2,-1
 100 930 l 1,3,-1
 31 930 l 1,4,-1
 31 1530 l 1,5,6
 289 1536 289 1536 694 1536 c 1,7,-1
 694 961 l 1,8,-1
 625 963 l 1,9,-1
 625 1153 l 2,10,11
 625 1204 625 1204 591 1210 c 0,12,13
 580 1212 580 1212 567 1212 c 2,14,-1
 416 1212 l 2,15,16
 397 1212 397 1212 397 1190 c 2,17,18
 397 1190 397 1190 397 1153 c 2,19,-1
 393 414 l 1,20,-1
 393 373 l 2,21,22
 393 356 393 356 401 351 c 128,-1,23
 409 346 409 346 428 346 c 2,24,-1
 551 346 l 1,25,-1
 551 0 l 1,26,-1
 162 0 l 1,27,-1
 164 342 l 1,28,29
 194 342 194 342 220 343 c 2,30,-1
 291 344 l 2,31,32
 319 344 319 344 319 387 c 2,33,-1
 319 1182 l 2,34,35
 319 1206 319 1206 297 1206 c 2,36,-1
 154 1206 l 2,0,1
EndSplineSet
EndChar

StartChar: U
Encoding: 85 85 56
Width: 965
Flags: W
LayerCount: 2
Fore
SplineSet
197 184 m 2,0,-1
 195 1163 l 2,1,2
 195 1200 195 1200 160 1200 c 2,3,-1
 59 1200 l 1,4,-1
 61 1532 l 1,5,-1
 418 1536 l 1,6,-1
 416 1210 l 1,7,8
 388 1209 388 1209 366 1208 c 0,9,10
 323 1206 323 1206 301 1206 c 0,11,12
 270 1206 270 1206 270 1171 c 2,13,-1
 270 457 l 2,14,15
 270 392 270 392 310 360 c 1,16,17
 338 336 338 336 377 336 c 2,18,-1
 586 336 l 2,19,20
 657 336 657 336 684 404 c 0,21,22
 693 427 693 427 693 451 c 2,23,-1
 693 602 l 1,24,-1
 691 1062 l 1,25,-1
 691 1174 l 2,26,27
 691 1206 691 1206 652 1206 c 2,28,-1
 554 1206 l 1,29,-1
 546 1534 l 1,30,-1
 902 1536 l 1,31,-1
 906 1206 l 1,32,33
 882 1205 882 1205 862.5 1204.5 c 128,-1,34
 843 1204 843 1204 824 1204 c 2,35,-1
 797 1204 l 2,36,37
 767 1204 767 1204 767 1169 c 2,38,-1
 772 448 l 1,39,-1
 773 190 l 2,40,41
 773 88 773 88 749.5 55.5 c 128,-1,42
 726 23 726 23 697 11.5 c 128,-1,43
 668 0 668 0 623 0 c 2,44,-1
 350 0 l 2,45,46
 197 0 197 0 197 184 c 2,0,-1
EndSplineSet
EndChar

StartChar: V
Encoding: 86 86 57
Width: 954
Flags: W
LayerCount: 2
Fore
SplineSet
143 1196 m 2,0,-1
 79 1195 l 2,1,2
 55 1194 55 1194 27 1194 c 1,3,-1
 20 1534 l 1,4,-1
 397 1536 l 1,5,-1
 391 1202 l 1,6,7
 363 1201 363 1201 341 1200 c 0,8,9
 297 1198 297 1198 276.5 1198 c 128,-1,10
 256 1198 256 1198 253.5 1191.5 c 128,-1,11
 251 1185 251 1185 253 1174 c 128,-1,12
 255 1163 255 1163 263.5 1125 c 128,-1,13
 272 1087 272 1087 284.5 1030 c 128,-1,14
 297 973 297 973 312.5 902.5 c 128,-1,15
 328 832 328 832 344 759 c 128,-1,16
 360 686 360 686 375.5 616.5 c 128,-1,17
 391 547 391 547 403 492 c 0,18,19
 425 392 425 392 431 371 c 0,20,21
 439 342 439 342 459 342 c 2,22,-1
 491 341 l 2,23,24
 502 340 502 340 514 340 c 0,25,26
 535 340 535 340 543 371 c 0,27,28
 543 373 543 373 564 463.5 c 128,-1,29
 585 554 585 554 601 625.5 c 128,-1,30
 617 697 617 697 634.5 771.5 c 128,-1,31
 652 846 652 846 668.5 918 c 128,-1,32
 685 990 685 990 698 1048 c 0,33,34
 723 1157 723 1157 728.5 1177 c 128,-1,35
 734 1197 734 1197 725.5 1198.5 c 128,-1,36
 717 1200 717 1200 705 1200 c 2,37,-1
 565 1200 l 1,38,-1
 557 1534 l 1,39,40
 595 1534 595 1534 632 1535 c 2,41,-1
 764 1536 l 1,42,-1
 934 1536 l 1,43,-1
 920 1200 l 1,44,45
 904 1200 904 1200 889 1201 c 2,46,-1
 842 1202 l 2,47,48
 819 1202 819 1202 813 1176 c 2,49,-1
 614 358 l 1,50,51
 614 350 614 350 616.5 348 c 128,-1,52
 619 346 619 346 625 346 c 128,-1,53
 631 346 631 346 707 342 c 1,54,-1
 705 -2 l 1,55,-1
 256 2 l 1,56,-1
 246 348 l 1,57,-1
 328 348 l 2,58,59
 346 348 346 348 351 352.5 c 128,-1,60
 356 357 356 357 354.5 362.5 c 128,-1,61
 353 368 353 368 345 404.5 c 128,-1,62
 337 441 337 441 323.5 498 c 128,-1,63
 310 555 310 555 293.5 627.5 c 128,-1,64
 277 700 277 700 260 775 c 128,-1,65
 243 850 243 850 226.5 922 c 128,-1,66
 210 994 210 994 197 1050 c 0,67,68
 168 1177 168 1177 166 1186.5 c 128,-1,69
 164 1196 164 1196 143 1196 c 2,0,-1
EndSplineSet
EndChar

StartChar: W
Encoding: 87 87 58
Width: 1079
Flags: W
LayerCount: 2
Fore
SplineSet
141 1150.5 m 128,-1,1
 135 1185 135 1185 133 1194.5 c 128,-1,2
 131 1204 131 1204 119 1204 c 2,3,-1
 37 1204 l 1,4,-1
 31 1532 l 1,5,-1
 367 1536 l 1,6,-1
 369 1202 l 1,7,-1
 225 1202 l 2,8,9
 207 1202 207 1202 211 1182 c 0,10,11
 212 1179 212 1179 217.5 1147.5 c 128,-1,12
 223 1116 223 1116 232 1065.5 c 128,-1,13
 241 1015 241 1015 252 951.5 c 128,-1,14
 263 888 263 888 282.5 777.5 c 128,-1,15
 302 667 302 667 336 471 c 1,16,-1
 530 1280 l 1,17,-1
 598 1278 l 1,18,-1
 729 506 l 1,19,20
 818 906 818 906 842 1011.5 c 128,-1,21
 866 1117 866 1117 873 1148 c 128,-1,22
 880 1179 880 1179 881 1182 c 0,23,24
 884 1198 884 1198 866 1198 c 2,25,-1
 727 1198 l 1,26,-1
 727 1536 l 1,27,-1
 1049 1536 l 1,28,-1
 1047 1200 l 1,29,-1
 981 1200 l 2,30,31
 960 1200 960 1200 956 1182 c 0,32,33
 956 1181 956 1181 948 1146 c 128,-1,34
 940 1111 940 1111 927.5 1055 c 128,-1,35
 915 999 915 999 899 927 c 128,-1,36
 883 855 883 855 866.5 779.5 c 128,-1,37
 850 704 850 704 834 631.5 c 128,-1,38
 818 559 818 559 805 501 c 0,39,40
 779 385 779 385 775 370 c 0,41,42
 769 344 769 344 788 344 c 2,43,-1
 899 344 l 1,44,-1
 901 4 l 1,45,-1
 598 -6 l 1,46,-1
 586 346 l 1,47,-1
 670 346 l 2,48,49
 685 346 685 346 683.5 373 c 128,-1,50
 682 400 682 400 561 1026 c 1,51,-1
 551 1026 l 1,52,53
 466 709 466 709 441 612 c 128,-1,54
 416 515 416 515 403.5 467 c 128,-1,55
 391 419 391 419 383.5 389 c 128,-1,56
 376 359 376 359 374 355 c 0,57,58
 370 344 370 344 389 344 c 2,59,-1
 483 344 l 1,60,-1
 483 -2 l 1,61,-1
 141 4 l 1,62,-1
 141 342 l 1,63,-1
 264 342 l 2,64,65
 284 342 284 342 274 383 c 1,66,67
 265 428 265 428 240.5 573 c 128,-1,68
 216 718 216 718 203 791.5 c 128,-1,69
 190 865 190 865 178 935 c 128,-1,70
 166 1005 166 1005 156.5 1060.5 c 128,-1,0
 147 1116 147 1116 141 1150.5 c 128,-1,1
EndSplineSet
EndChar

StartChar: X
Encoding: 88 88 59
Width: 946
Flags: W
LayerCount: 2
Fore
SplineSet
893 1206 m 1,0,1
 809 1202 809 1202 789.5 1202 c 128,-1,2
 770 1202 770 1202 764.5 1190.5 c 128,-1,3
 759 1179 759 1179 748 1160 c 128,-1,4
 737 1141 737 1141 720 1112 c 0,5,6
 663 1016 663 1016 622 948 c 128,-1,7
 581 880 581 880 514 768 c 1,8,9
 566 665 566 665 596 606 c 128,-1,10
 626 547 626 547 643.5 512.5 c 128,-1,11
 661 478 661 478 675 450 c 0,12,13
 706 387 706 387 713 374.5 c 128,-1,14
 720 362 720 362 726.5 353 c 128,-1,15
 733 344 733 344 752 344 c 2,16,-1
 895 344 l 1,17,-1
 905 0 l 1,18,-1
 535 0 l 1,19,-1
 532 340 l 1,20,-1
 627 340 l 2,21,22
 637 340 637 340 637 346.5 c 128,-1,23
 637 353 637 353 635 358 c 2,24,-1
 469 692 l 1,25,26
 443 651 443 651 413 601 c 128,-1,27
 383 551 383 551 354 504 c 0,28,29
 288 396 288 396 273 374 c 0,30,31
 252 344 252 344 281 344 c 2,32,-1
 414 344 l 1,33,-1
 416 0 l 1,34,-1
 47 0 l 1,35,-1
 41 344 l 1,36,-1
 143 344 l 2,37,38
 168 344 168 344 188 369 c 0,39,40
 190 372 190 372 202 389.5 c 128,-1,41
 214 407 214 407 231.5 435 c 128,-1,42
 249 463 249 463 270 497 c 0,43,44
 321 576 321 576 430 754 c 1,45,46
 307 988 307 988 282 1035 c 128,-1,47
 257 1082 257 1082 240.5 1113 c 128,-1,48
 224 1144 224 1144 213.5 1164.5 c 128,-1,49
 203 1185 203 1185 200 1190 c 0,50,51
 192 1202 192 1202 168 1202 c 2,52,-1
 84 1202 l 1,53,-1
 84 1536 l 1,54,-1
 434 1536 l 1,55,-1
 434 1202 l 1,56,-1
 311 1202 l 2,57,58
 289 1202 289 1202 295 1184 c 0,59,60
 295 1182 295 1182 303.5 1166 c 128,-1,61
 312 1150 312 1150 324.5 1125 c 128,-1,62
 337 1100 337 1100 353.5 1068.5 c 128,-1,63
 370 1037 370 1037 398.5 982 c 128,-1,64
 427 927 427 927 477 831 c 1,65,66
 528 921 528 921 556.5 973.5 c 128,-1,67
 585 1026 585 1026 602 1057 c 128,-1,68
 619 1088 619 1088 633 1113.5 c 128,-1,69
 647 1139 647 1139 657 1156.5 c 128,-1,70
 667 1174 667 1174 671 1183 c 128,-1,71
 675 1192 675 1192 667.5 1197 c 128,-1,72
 660 1202 660 1202 647 1202 c 2,73,-1
 557 1202 l 1,74,-1
 551 1536 l 1,75,-1
 893 1536 l 1,76,-1
 893 1206 l 1,0,1
EndSplineSet
EndChar

StartChar: Y
Encoding: 89 89 60
Width: 928
Flags: W
LayerCount: 2
Fore
SplineSet
397 418 m 1,0,-1
 399 591 l 2,1,2
 400 668 400 668 401 762 c 1,3,4
 346 863 346 863 314 923 c 128,-1,5
 282 983 282 983 263 1017.5 c 128,-1,6
 244 1052 244 1052 228 1081 c 128,-1,7
 212 1110 212 1110 201 1130.5 c 128,-1,8
 190 1151 190 1151 180 1166 c 0,9,10
 155 1202 155 1202 129 1202 c 2,11,-1
 108 1202 l 2,12,13
 91 1202 91 1202 70.5 1202.5 c 128,-1,14
 50 1203 50 1203 23 1204 c 1,15,-1
 20 1534 l 1,16,-1
 389 1536 l 1,17,-1
 381 1206 l 1,18,19
 285 1210 285 1210 274 1210 c 128,-1,20
 263 1210 263 1210 256 1205 c 128,-1,21
 249 1200 249 1200 250 1192 c 0,22,23
 251 1181 251 1181 261.5 1163.5 c 128,-1,24
 272 1146 272 1146 280 1131 c 128,-1,25
 288 1116 288 1116 300 1093 c 128,-1,26
 312 1070 312 1070 327 1042 c 128,-1,27
 342 1014 342 1014 367 966.5 c 128,-1,28
 392 919 392 919 436 836 c 1,29,30
 482 906 482 906 509 947.5 c 128,-1,31
 536 989 536 989 552 1013 c 128,-1,32
 568 1037 568 1037 581 1057.5 c 128,-1,33
 594 1078 594 1078 603.5 1092.5 c 128,-1,34
 613 1107 613 1107 621 1120 c 0,35,36
 653 1170 653 1170 653 1185 c 128,-1,37
 653 1200 653 1200 612 1200 c 2,38,-1
 543 1200 l 1,39,-1
 541 1536 l 1,40,-1
 907 1528 l 1,41,-1
 895 1190 l 1,42,-1
 797 1190 l 2,43,44
 745 1190 745 1190 719 1147 c 0,45,46
 715 1141 715 1141 703 1121.5 c 128,-1,47
 691 1102 691 1102 673 1074 c 0,48,49
 547 882 547 882 475 770 c 1,50,51
 472 618 472 618 471 557.5 c 128,-1,52
 470 497 470 497 469.5 469 c 128,-1,53
 469 441 469 441 469 422 c 2,54,-1
 469 395 l 2,55,56
 469 369 469 369 483.5 359.5 c 128,-1,57
 498 350 498 350 526 350 c 2,58,-1
 653 350 l 1,59,-1
 641 0 l 1,60,-1
 217 0 l 1,61,-1
 211 342 l 1,62,-1
 336 342 l 2,63,64
 397 342 397 342 397 393 c 2,65,-1
 397 418 l 1,0,-1
EndSplineSet
EndChar

StartChar: Z
Encoding: 90 90 61
Width: 799
Flags: W
LayerCount: 2
Fore
SplineSet
170 1151 m 2,0,-1
 169 1076 l 2,1,2
 168 1054 168 1054 168 1030 c 1,3,-1
 96 1030 l 1,4,-1
 94 1528 l 1,5,6
 157 1528 157 1528 216 1529 c 2,7,-1
 596 1536 l 1,8,-1
 715 1536 l 1,9,-1
 705 1221 l 1,10,-1
 174 328 l 1,11,-1
 596 340 l 2,12,13
 621 340 621 340 637 357.5 c 128,-1,14
 653 375 653 375 653 395 c 2,15,-1
 653 436 l 2,16,17
 653 458 653 458 653.5 481 c 128,-1,18
 654 504 654 504 655 530 c 1,19,-1
 727 530 l 1,20,-1
 725 2 l 1,21,22
 650 1 650 1 586 1 c 2,23,-1
 476 0 l 2,24,25
 437 0 437 0 397 0 c 0,26,27
 364 0 364 0 72 -8 c 1,28,-1
 72 307 l 1,29,-1
 608 1208 l 1,30,31
 335 1202 335 1202 294 1202 c 2,32,-1
 246 1202 l 2,33,34
 170 1202 170 1202 170 1151 c 2,0,-1
EndSplineSet
EndChar

StartChar: bracketleft
Encoding: 91 91 62
Width: 614
Flags: W
LayerCount: 2
Fore
SplineSet
526 1460 m 1,0,-1
 233 1460 l 1,1,-1
 217 -129 l 1,2,-1
 502 -129 l 1,3,-1
 500 -203 l 1,4,-1
 143 -199 l 1,5,-1
 160 1536 l 1,6,-1
 532 1534 l 1,7,-1
 526 1460 l 1,0,-1
EndSplineSet
EndChar

StartChar: backslash
Encoding: 92 92 63
Width: 676
Flags: W
LayerCount: 2
Fore
SplineSet
563 0 m 1,0,-1
 41 1511 l 1,1,-1
 113 1536 l 1,2,-1
 635 23 l 1,3,-1
 563 0 l 1,0,-1
EndSplineSet
EndChar

StartChar: bracketright
Encoding: 93 93 64
Width: 614
Flags: W
LayerCount: 2
Fore
SplineSet
88 -127 m 1,0,-1
 381 -127 l 1,1,-1
 397 1462 l 1,2,-1
 113 1462 l 1,3,-1
 115 1536 l 1,4,-1
 471 1532 l 1,5,-1
 455 -203 l 1,6,-1
 82 -201 l 1,7,-1
 88 -127 l 1,0,-1
EndSplineSet
EndChar

StartChar: asciicircum
Encoding: 94 94 65
Width: 1024
Flags: W
LayerCount: 2
Fore
SplineSet
846 1073 m 1,0,-1
 510 1405 l 1,1,-1
 180 1081 l 1,2,-1
 115 1141 l 1,3,-1
 512 1536 l 1,4,-1
 911 1133 l 1,5,-1
 846 1073 l 1,0,-1
EndSplineSet
EndChar

StartChar: underscore
Encoding: 95 95 66
Width: 512
Flags: W
LayerCount: 2
Fore
SplineSet
0 -184 m 1,0,-1
 512 -184 l 1,1,-1
 512 -281 l 1,2,-1
 2 -281 l 1,3,-1
 0 -184 l 1,0,-1
EndSplineSet
EndChar

StartChar: grave
Encoding: 96 96 67
Width: 868
Flags: W
LayerCount: 2
Fore
SplineSet
340 1501 m 1,0,-1
 592 1206 l 1,1,-1
 524 1147 l 1,2,-1
 274 1446 l 1,3,-1
 340 1501 l 1,0,-1
EndSplineSet
EndChar

StartChar: a
Encoding: 97 97 68
Width: 842
Flags: W
LayerCount: 2
Fore
SplineSet
604 645 m 2,0,1
 604 745 604 745 384 745 c 128,-1,2
 164 745 164 745 164 645 c 2,3,-1
 164 610 l 1,4,-1
 94 606 l 1,5,-1
 100 1038 l 1,6,-1
 168 1036 l 1,7,-1
 168 928 l 1,8,9
 217 985 217 985 293.5 1008.5 c 128,-1,10
 370 1032 370 1032 440.5 1032 c 128,-1,11
 511 1032 511 1032 556.5 1011 c 128,-1,12
 602 990 602 990 628 960 c 0,13,14
 676 905 676 905 676 838 c 2,15,-1
 677 691 l 1,16,-1
 679 467 l 1,17,-1
 680 340 l 2,18,19
 680 299 680 299 713 299 c 2,20,-1
 799 299 l 1,21,-1
 797 0 l 1,22,-1
 578 -2 l 1,23,-1
 578 133 l 1,24,25
 557 84 557 84 508 52 c 0,26,27
 415 -10 415 -10 322 -10 c 0,28,29
 61 -10 61 -10 61 274 c 0,30,31
 61 420 61 420 139 496 c 0,32,33
 198 553 198 553 281 553 c 2,34,-1
 545 553 l 2,35,36
 576 553 576 553 587 568 c 0,37,38
 604 589 604 589 604 610 c 2,39,-1
 604 645 l 2,0,1
354 276 m 0,40,41
 604 276 604 276 604 444 c 0,42,43
 604 461 604 461 595 475 c 128,-1,44
 586 489 586 489 573 489 c 2,45,-1
 472 488 l 1,46,-1
 289 487 l 2,47,48
 204 487 204 487 178 422 c 0,49,50
 170 403 170 403 170 383 c 0,51,52
 170 276 170 276 354 276 c 0,40,41
EndSplineSet
EndChar

StartChar: b
Encoding: 98 98 69
Width: 786
Flags: W
LayerCount: 2
Fore
SplineSet
125 1169 m 2,0,1
 125 1236 125 1236 78 1234 c 0,2,3
 66 1233 66 1233 59 1233 c 2,4,-1
 -41 1233 l 1,5,-1
 -35 1534 l 1,6,-1
 203 1536 l 1,7,-1
 197 852 l 1,8,9
 224 971 224 971 340 1016 c 0,10,11
 384 1032 384 1032 448 1032 c 128,-1,12
 512 1032 512 1032 559.5 1018.5 c 128,-1,13
 607 1005 607 1005 638 982.5 c 128,-1,14
 669 960 669 960 686.5 932.5 c 128,-1,15
 704 905 704 905 712 876 c 1,16,17
 725 835 725 835 725 776 c 2,18,-1
 725 240 l 2,19,20
 725 56 725 56 568 2 c 0,21,22
 514 -16 514 -16 445.5 -16 c 128,-1,23
 377 -16 377 -16 335.5 -6 c 128,-1,24
 294 4 294 4 266 24 c 0,25,26
 214 63 214 63 193 143 c 1,27,-1
 184 -2 l 1,28,-1
 98 0 l 2,29,30
 96 0 96 0 100.5 22 c 128,-1,31
 105 44 105 44 110 84 c 0,32,33
 125 204 125 204 125 297 c 2,34,-1
 125 1169 l 2,0,1
429 752 m 0,35,36
 361 752 361 752 315.5 741.5 c 128,-1,37
 270 731 270 731 244 712 c 0,38,39
 197 676 197 676 197 596 c 2,40,-1
 197 401 l 2,41,42
 197 325 197 325 246 291 c 0,43,44
 301 252 301 252 432 252 c 0,45,46
 614 252 614 252 644 338 c 0,47,48
 653 364 653 364 653 393 c 2,49,-1
 653 596 l 2,50,51
 653 672 653 672 608 708 c 1,52,53
 555 752 555 752 429 752 c 0,35,36
EndSplineSet
EndChar

StartChar: c
Encoding: 99 99 70
Width: 725
Flags: W
LayerCount: 2
Fore
SplineSet
68 215 m 1,0,-1
 61 799 l 1,1,2
 61 921 61 921 148 984 c 0,3,4
 227 1040 227 1040 373.5 1040 c 128,-1,5
 520 1040 520 1040 596 934 c 1,6,-1
 596 1038 l 1,7,-1
 664 1038 l 1,8,-1
 655 573 l 1,9,-1
 588 573 l 1,10,-1
 588 653 l 2,11,12
 588 742 588 742 422 750 c 0,13,14
 382 752 382 752 338.5 752 c 128,-1,15
 295 752 295 752 253.5 744.5 c 128,-1,16
 212 737 212 737 186 719 c 0,17,18
 135 684 135 684 135 594 c 2,19,-1
 134 500 l 1,20,-1
 133 385 l 2,21,22
 133 314 133 314 178 286 c 1,23,24
 229 252 229 252 365 252 c 0,25,26
 580 252 580 252 586 354 c 1,27,-1
 588 434 l 1,28,-1
 657 436 l 1,29,30
 656 399 656 399 655 364 c 0,31,32
 653 296 653 296 653 216.5 c 128,-1,33
 653 137 653 137 630 89.5 c 128,-1,34
 607 42 607 42 567 19 c 0,35,36
 510 -14 510 -14 387 -14 c 128,-1,37
 264 -14 264 -14 208 2 c 128,-1,38
 152 18 152 18 121 48 c 0,39,40
 68 98 68 98 68 215 c 1,0,-1
EndSplineSet
EndChar

StartChar: d
Encoding: 100 100 71
Width: 838
Flags: W
LayerCount: 2
Fore
SplineSet
662 360 m 2,0,1
 662 297 662 297 705 297 c 2,2,-1
 827 297 l 1,3,-1
 827 2 l 1,4,-1
 604 -2 l 1,5,-1
 604 143 l 1,6,7
 570 21 570 21 452 -6 c 0,8,9
 409 -16 409 -16 340.5 -16 c 128,-1,10
 272 -16 272 -16 217.5 2.5 c 128,-1,11
 163 21 163 21 128 55 c 0,12,13
 61 120 61 120 61 240 c 2,14,-1
 61 776 l 2,15,16
 61 1032 61 1032 342 1032 c 0,17,18
 451 1032 451 1032 519 973 c 0,19,20
 573 926 573 926 590 852 c 1,21,-1
 588 1174 l 1,22,23
 586 1233 586 1233 540 1233 c 2,24,-1
 422 1233 l 1,25,-1
 428 1534 l 1,26,-1
 666 1536 l 1,27,-1
 662 1171 l 1,28,-1
 662 360 l 2,0,1
133 596 m 2,29,-1
 133 393 l 2,30,31
 133 326 133 326 176 293 c 0,32,33
 228 252 228 252 325.5 252 c 128,-1,34
 423 252 423 252 468.5 262 c 128,-1,35
 514 272 514 272 541 291 c 0,36,37
 590 325 590 325 590 401 c 2,38,-1
 590 596 l 2,39,40
 590 677 590 677 542 712 c 0,41,42
 487 752 487 752 388 752 c 0,43,44
 231 752 231 752 182 712 c 128,-1,45
 133 672 133 672 133 596 c 2,29,-1
EndSplineSet
EndChar

StartChar: e
Encoding: 101 101 72
Width: 733
Flags: W
LayerCount: 2
Fore
SplineSet
61 246 m 1,0,-1
 70 788 l 1,1,2
 70 922 70 922 174 987 c 0,3,4
 259 1040 259 1040 364.5 1040 c 128,-1,5
 470 1040 470 1040 522.5 1023.5 c 128,-1,6
 575 1007 575 1007 607 981 c 128,-1,7
 639 955 639 955 654.5 922.5 c 128,-1,8
 670 890 670 890 675.5 858.5 c 128,-1,9
 681 827 681 827 680.5 799.5 c 128,-1,10
 680 772 680 772 680 740 c 128,-1,11
 680 708 680 708 672 520 c 1,12,13
 672 520 672 520 137 508 c 1,14,-1
 137 430 l 2,15,16
 137 281 137 281 389 281 c 0,17,18
 494 281 494 281 548 303 c 128,-1,19
 602 325 602 325 602 360 c 2,20,-1
 602 422 l 1,21,-1
 670 430 l 1,22,23
 662 282 662 282 662 197 c 128,-1,24
 662 112 662 112 633.5 72.5 c 128,-1,25
 605 33 605 33 558 13 c 0,26,27
 486 -18 486 -18 336 -18 c 0,28,29
 61 -18 61 -18 61 246 c 1,0,-1
605 599 m 2,30,-1
 606 653 l 1,31,32
 606 750 606 750 391 750 c 0,33,34
 135 750 135 750 135 582 c 1,35,-1
 604 590 l 1,36,37
 604 592 604 592 605 599 c 2,30,-1
EndSplineSet
EndChar

StartChar: f
Encoding: 102 102 73
Width: 496
Flags: W
LayerCount: 2
Fore
SplineSet
190 1024 m 1,0,1
 180 1274 180 1274 180 1334 c 128,-1,2
 180 1394 180 1394 196.5 1435 c 128,-1,3
 213 1476 213 1476 238 1499 c 0,4,5
 280 1538 280 1538 333.5 1538 c 128,-1,6
 387 1538 387 1538 410.5 1528 c 128,-1,7
 434 1518 434 1518 448 1504 c 1,8,9
 462 1488 462 1488 481 1440 c 1,10,-1
 481 1536 l 1,11,-1
 559 1536 l 1,12,-1
 541 1096 l 1,13,-1
 469 1090 l 1,14,-1
 469 1130 l 2,15,16
 469 1189 469 1189 454 1209 c 0,17,18
 428 1245 428 1245 373 1245 c 0,19,20
 266 1245 266 1245 266 1155 c 2,21,-1
 266 1022 l 1,22,-1
 424 1028 l 1,23,-1
 420 721 l 1,24,-1
 276 717 l 1,25,-1
 283 360 l 2,26,27
 283 310 283 310 325 300 c 0,28,29
 335 297 335 297 342 297 c 2,30,-1
 453 297 l 1,31,-1
 453 -2 l 1,32,-1
 61 0 l 1,33,-1
 55 295 l 1,34,-1
 158 295 l 2,35,36
 187 295 187 295 198 312 c 128,-1,37
 209 329 209 329 209 351.5 c 128,-1,38
 209 374 209 374 208.5 393.5 c 128,-1,39
 208 413 208 413 207 439.5 c 128,-1,40
 206 466 206 466 205 497 c 128,-1,41
 204 528 204 528 202 579.5 c 128,-1,42
 200 631 200 631 197 717 c 1,43,-1
 72 717 l 1,44,45
 59 990 59 990 59 1004 c 2,46,-1
 59 1018 l 1,47,48
 143 1022 143 1022 190 1024 c 1,0,1
EndSplineSet
EndChar

StartChar: g
Encoding: 103 103 74
Width: 821
Flags: W
LayerCount: 2
Fore
SplineSet
692 717 m 2,0,1
 668 717 668 717 668 690 c 2,2,-1
 668 -250 l 2,3,4
 668 -431 668 -431 480 -474 c 0,5,6
 432 -485 432 -485 367 -485 c 0,7,8
 153 -485 153 -485 96 -340 c 0,9,10
 80 -298 80 -298 80 -244 c 2,11,-1
 80 -59 l 1,12,-1
 147 -59 l 1,13,-1
 147 -104 l 2,14,15
 147 -202 147 -202 271 -218 c 0,16,17
 310 -223 310 -223 368 -223 c 128,-1,18
 426 -223 426 -223 471.5 -212.5 c 128,-1,19
 517 -202 517 -202 545 -182 c 0,20,21
 596 -144 596 -144 596 -57 c 2,22,-1
 596 143 l 1,23,24
 573 62 573 62 522 24 c 1,25,26
 465 -16 465 -16 368.5 -16 c 128,-1,27
 272 -16 272 -16 217.5 2.5 c 128,-1,28
 163 21 163 21 128 55 c 0,29,30
 61 120 61 120 61 240 c 2,31,-1
 61 776 l 2,32,33
 61 1032 61 1032 342 1032 c 0,34,35
 451 1032 451 1032 519 973 c 0,36,37
 573 926 573 926 590 852 c 1,38,-1
 590 1024 l 1,39,-1
 776 1024 l 1,40,-1
 780 717 l 1,41,-1
 692 717 l 2,0,1
133 596 m 2,42,-1
 133 393 l 2,43,44
 133 326 133 326 176 293 c 0,45,46
 228 252 228 252 325.5 252 c 128,-1,47
 423 252 423 252 469 262 c 128,-1,48
 515 272 515 272 544 291 c 0,49,50
 596 326 596 326 596 401 c 2,51,-1
 596 596 l 2,52,53
 596 677 596 677 546 712 c 0,54,55
 488 752 488 752 388 752 c 0,56,57
 231 752 231 752 182 712 c 128,-1,58
 133 672 133 672 133 596 c 2,42,-1
EndSplineSet
EndChar

StartChar: h
Encoding: 104 104 75
Width: 930
Flags: W
LayerCount: 2
Fore
SplineSet
172 1239 m 2,0,-1
 10 1233 l 1,1,-1
 14 1532 l 1,2,-1
 264 1536 l 1,3,-1
 262 885 l 1,4,5
 308 962 308 962 404 1006 c 1,6,7
 455 1028 455 1028 530 1028 c 0,8,9
 664 1028 664 1028 724 932 c 1,10,11
 770 861 770 861 770 745 c 1,12,-1
 764 324 l 2,13,14
 764 307 764 307 768.5 300 c 128,-1,15
 773 293 773 293 788 293 c 2,16,-1
 895 293 l 1,17,-1
 895 0 l 1,18,-1
 557 2 l 1,19,-1
 557 297 l 1,20,-1
 657 297 l 2,21,22
 673 297 673 297 683.5 307 c 128,-1,23
 694 317 694 317 694 334 c 2,24,-1
 694 608 l 2,25,26
 694 659 694 659 644 696 c 0,27,28
 587 739 587 739 509 739 c 128,-1,29
 431 739 431 739 388.5 723.5 c 128,-1,30
 346 708 346 708 318 684 c 0,31,32
 260 636 260 636 260 580 c 2,33,-1
 260 328 l 2,34,35
 260 297 260 297 291 297 c 2,36,-1
 383 297 l 1,37,-1
 383 2 l 1,38,-1
 49 0 l 1,39,-1
 47 295 l 1,40,-1
 160 295 l 2,41,42
 184 295 184 295 184 326 c 2,43,-1
 190 1221 l 2,44,45
 190 1232 190 1232 186.5 1235.5 c 128,-1,46
 183 1239 183 1239 172 1239 c 2,0,-1
EndSplineSet
EndChar

StartChar: i
Encoding: 105 105 76
Width: 453
Flags: W
LayerCount: 2
Fore
SplineSet
158 297 m 2,0,1
 205 297 205 297 205 342 c 2,2,-1
 205 682 l 2,3,4
 205 702 205 702 194 709.5 c 128,-1,5
 183 717 183 717 154 717 c 2,6,-1
 39 717 l 1,7,-1
 39 1024 l 1,8,-1
 283 1024 l 1,9,10
 276 398 276 398 276 370 c 2,11,-1
 276 332 l 2,12,13
 276 321 276 321 285 309 c 128,-1,14
 294 297 294 297 309 297 c 2,15,-1
 438 297 l 1,16,-1
 438 0 l 1,17,-1
 39 0 l 1,18,-1
 43 297 l 1,19,-1
 158 297 l 2,0,1
29 1328 m 0,20,21
 29 1353 29 1353 36 1380.5 c 128,-1,22
 43 1408 43 1408 62 1432 c 0,23,24
 107 1489 107 1489 201 1489 c 0,25,26
 282 1489 282 1489 328 1436 c 0,27,28
 369 1389 369 1389 369 1347 c 128,-1,29
 369 1305 369 1305 360 1277 c 128,-1,30
 351 1249 351 1249 331 1226 c 0,31,32
 285 1171 285 1171 199 1171 c 256,33,34
 113 1171 113 1171 67 1222 c 0,35,36
 29 1265 29 1265 29 1328 c 0,20,21
EndSplineSet
EndChar

StartChar: j
Encoding: 106 106 77
Width: 430
Flags: W
LayerCount: 2
Fore
SplineSet
246 719 m 2,0,-1
 152 718 l 2,1,2
 118 717 118 717 76 717 c 1,3,-1
 76 1020 l 1,4,-1
 362 1024 l 1,5,6
 346 -112 346 -112 346 -199.5 c 128,-1,7
 346 -287 346 -287 327.5 -341.5 c 128,-1,8
 309 -396 309 -396 276 -428 c 0,9,10
 219 -485 219 -485 106 -485 c 0,11,12
 -21 -485 -21 -485 -32 -448 c 0,13,14
 -35 -437 -35 -437 -35 -426 c 2,15,-1
 -38 -229 l 2,16,17
 -40 -151 -40 -151 -41 -55 c 1,18,-1
 33 -55 l 1,19,-1
 33 -135 l 2,20,21
 33 -164 33 -164 61.5 -176 c 128,-1,22
 90 -188 90 -188 138.5 -188 c 128,-1,23
 187 -188 187 -188 209.5 -179 c 128,-1,24
 232 -170 232 -170 246 -157 c 0,25,26
 272 -131 272 -131 272 -100 c 2,27,-1
 279 684 l 2,28,29
 279 719 279 719 246 719 c 2,0,-1
57 1328 m 0,30,31
 57 1353 57 1353 64 1380.5 c 128,-1,32
 71 1408 71 1408 90 1432 c 0,33,34
 135 1489 135 1489 229 1489 c 0,35,36
 310 1489 310 1489 356 1436 c 0,37,38
 397 1389 397 1389 397 1347 c 128,-1,39
 397 1305 397 1305 388 1277 c 128,-1,40
 379 1249 379 1249 359 1226 c 0,41,42
 313 1171 313 1171 227 1171 c 256,43,44
 141 1171 141 1171 95 1222 c 0,45,46
 57 1265 57 1265 57 1328 c 0,30,31
EndSplineSet
EndChar

StartChar: k
Encoding: 107 107 78
Width: 942
Flags: W
LayerCount: 2
Fore
SplineSet
391 1536 m 1,0,-1
 381 1233 l 1,1,-1
 317 1233 l 2,2,3
 291 1233 291 1233 275.5 1225.5 c 128,-1,4
 260 1218 260 1218 260 1186 c 2,5,-1
 260 635 l 2,6,7
 260 630 260 630 261 626 c 128,-1,8
 262 622 262 622 270 625 c 1,9,10
 451 726 451 726 469 743.5 c 128,-1,11
 487 761 487 761 496.5 770 c 128,-1,12
 506 779 506 779 512 790 c 1,13,14
 526 811 526 811 526 852 c 2,15,-1
 526 1020 l 1,16,-1
 854 1024 l 1,17,-1
 848 717 l 1,18,-1
 657 717 l 2,19,20
 588 717 588 717 545 700 c 1,21,-1
 770 317 l 2,22,23
 782 297 782 297 805 297 c 2,24,-1
 915 297 l 1,25,-1
 922 0 l 1,26,-1
 584 -2 l 1,27,-1
 588 293 l 1,28,-1
 682 293 l 2,29,30
 697 293 697 293 684 313 c 1,31,-1
 481 670 l 1,32,-1
 266 537 l 2,33,34
 260 534 260 534 260 526 c 2,35,-1
 260 377 l 2,36,37
 260 346 260 346 279 320.5 c 128,-1,38
 298 295 298 295 338 295 c 2,39,-1
 410 295 l 1,40,-1
 408 0 l 1,41,-1
 49 0 l 1,42,-1
 57 297 l 1,43,-1
 123 297 l 2,44,45
 163 297 163 297 178 332 c 0,46,47
 184 345 184 345 184 365 c 2,48,-1
 184 1180 l 2,49,50
 184 1212 184 1212 169.5 1220.5 c 128,-1,51
 155 1229 155 1229 135 1229 c 2,52,-1
 51 1229 l 1,53,-1
 51 1534 l 1,54,-1
 391 1536 l 1,0,-1
EndSplineSet
EndChar

StartChar: l
Encoding: 108 108 79
Width: 446
Flags: W
LayerCount: 2
Fore
SplineSet
184 1214 m 2,0,1
 184 1237 184 1237 158 1237 c 2,2,-1
 12 1237 l 1,3,-1
 6 1530 l 1,4,-1
 268 1536 l 1,5,6
 262 567 262 567 262 458 c 2,7,-1
 262 340 l 2,8,9
 262 299 262 299 307 299 c 2,10,-1
 414 299 l 1,11,-1
 414 0 l 1,12,-1
 39 0 l 1,13,-1
 31 297 l 1,14,-1
 147 297 l 2,15,16
 175 297 175 297 179.5 310.5 c 128,-1,17
 184 324 184 324 184 344 c 2,18,-1
 184 1214 l 2,0,1
EndSplineSet
EndChar

StartChar: m
Encoding: 109 109 80
Width: 1204
Flags: W
LayerCount: 2
Fore
SplineSet
205 667 m 2,0,1
 205 717 205 717 158 717 c 2,2,-1
 74 717 l 1,3,-1
 72 1024 l 1,4,-1
 317 1024 l 1,5,-1
 317 877 l 1,6,-1
 330 877 l 1,7,8
 352 982 352 982 456 1020 c 0,9,10
 488 1032 488 1032 526 1032 c 0,11,12
 590 1032 590 1032 643 971 c 0,13,14
 666 945 666 945 682 911 c 1,15,16
 723 975 723 975 798 1013 c 0,17,18
 836 1032 836 1032 885 1032 c 0,19,20
 1018 1032 1018 1032 1040 881 c 0,21,22
 1047 834 1047 834 1047 778 c 1,23,-1
 1034 344 l 1,24,25
 1034 299 1034 299 1093 296 c 0,26,27
 1110 295 1110 295 1128 295 c 2,28,-1
 1188 295 l 1,29,-1
 1188 0 l 1,30,-1
 952 0 l 1,31,-1
 967 631 l 1,32,33
 967 690 967 690 932.5 712.5 c 128,-1,34
 898 735 898 735 839.5 735 c 128,-1,35
 781 735 781 735 751 726 c 128,-1,36
 721 717 721 717 700 701 c 0,37,38
 655 667 655 667 655 612 c 1,39,-1
 647 352 l 1,40,41
 647 307 647 307 684 298 c 0,42,43
 694 295 694 295 702 295 c 2,44,-1
 799 295 l 1,45,-1
 799 0 l 1,46,-1
 555 0 l 1,47,48
 580 571 580 571 580 594 c 128,-1,49
 580 617 580 617 581 640.5 c 128,-1,50
 582 664 582 664 572 688 c 0,51,52
 548 745 548 745 453 745 c 0,53,54
 359 745 359 745 312 680 c 0,55,56
 279 633 279 633 279 588 c 2,57,-1
 279 352 l 2,58,59
 279 318 279 318 291 306.5 c 128,-1,60
 303 295 303 295 326 295 c 2,61,-1
 422 295 l 1,62,-1
 412 0 l 1,63,-1
 63 0 l 1,64,-1
 74 297 l 1,65,-1
 162 297 l 2,66,67
 207 297 207 297 207 346 c 2,68,-1
 207 372 l 1,69,-1
 205 610 l 1,70,-1
 205 667 l 2,0,1
EndSplineSet
EndChar

StartChar: n
Encoding: 110 110 81
Width: 928
Flags: W
LayerCount: 2
Fore
SplineSet
207 651 m 1,0,1
 207 717 207 717 129 717 c 2,2,-1
 33 717 l 1,3,-1
 37 1024 l 1,4,-1
 291 1024 l 1,5,-1
 279 877 l 1,6,7
 279 904 279 904 311.5 940 c 128,-1,8
 344 976 344 976 370 992 c 0,9,10
 432 1030 432 1030 512 1030 c 128,-1,11
 592 1030 592 1030 640.5 1002 c 128,-1,12
 689 974 689 974 717 936 c 0,13,14
 765 870 765 870 768 791 c 0,15,16
 770 749 770 749 767.5 675 c 128,-1,17
 765 601 765 601 763.5 553 c 128,-1,18
 762 505 762 505 760 463 c 0,19,20
 756 379 756 379 756 355.5 c 128,-1,21
 756 332 756 332 761.5 321.5 c 128,-1,22
 767 311 767 311 774 305 c 0,23,24
 787 295 787 295 807 295 c 2,25,-1
 899 295 l 1,26,-1
 895 -2 l 1,27,-1
 553 0 l 1,28,-1
 543 297 l 1,29,-1
 635 297 l 2,30,31
 682 297 682 297 682 346 c 2,32,-1
 686 580 l 1,33,34
 686 681 686 681 584 716 c 0,35,36
 549 729 549 729 492 729 c 128,-1,37
 435 729 435 729 394 717 c 128,-1,38
 353 705 353 705 328 686 c 0,39,40
 283 654 283 654 281 598 c 1,41,42
 277 552 277 552 276 492.5 c 128,-1,43
 275 433 275 433 274.5 401 c 128,-1,44
 274 369 274 369 274 354 c 0,45,46
 274 295 274 295 324 295 c 2,47,-1
 410 295 l 1,48,-1
 414 0 l 1,49,-1
 45 -2 l 1,50,-1
 43 297 l 1,51,-1
 150 297 l 2,52,53
 201 297 201 297 201 340 c 2,54,-1
 207 651 l 1,0,1
EndSplineSet
EndChar

StartChar: o
Encoding: 111 111 82
Width: 721
Flags: W
LayerCount: 2
Fore
SplineSet
63 346 m 1,0,-1
 65 568 l 2,1,2
 66 653 66 653 67 715.5 c 128,-1,3
 68 778 68 778 68 812.5 c 128,-1,4
 68 847 68 847 75 879.5 c 128,-1,5
 82 912 82 912 98.5 940 c 128,-1,6
 115 968 115 968 148 989 c 0,7,8
 219 1034 219 1034 365 1034 c 0,9,10
 574 1034 574 1034 629 936 c 0,11,12
 657 886 657 886 657 835 c 2,13,-1
 657 287 l 2,14,15
 657 166 657 166 632.5 118.5 c 128,-1,16
 608 71 608 71 576 46 c 0,17,18
 502 -12 502 -12 365 -12 c 0,19,20
 159 -12 159 -12 99 84 c 0,21,22
 66 137 66 137 64.5 194 c 128,-1,23
 63 251 63 251 63 282 c 2,24,-1
 63 346 l 1,0,-1
135 610 m 2,25,-1
 135 408 l 2,26,27
 135 335 135 335 181 308 c 0,28,29
 231 279 231 279 332 279 c 128,-1,30
 433 279 433 279 476 287 c 128,-1,31
 519 295 519 295 544 310 c 0,32,33
 586 336 586 336 586 399 c 2,34,-1
 586 610 l 2,35,36
 586 681 586 681 541 712 c 0,37,38
 492 745 492 745 393 745 c 0,39,40
 228 745 228 745 181.5 716.5 c 128,-1,41
 135 688 135 688 135 610 c 2,25,-1
EndSplineSet
EndChar

StartChar: p
Encoding: 112 112 83
Width: 846
Flags: W
LayerCount: 2
Fore
SplineSet
174 694 m 2,0,1
 174 719 174 719 154 719 c 2,2,-1
 33 719 l 1,3,-1
 37 1020 l 1,4,-1
 268 1024 l 1,5,-1
 260 874 l 1,6,7
 336 994 336 994 462 1025 c 0,8,9
 490 1032 490 1032 537 1032 c 128,-1,10
 584 1032 584 1032 633 1013 c 128,-1,11
 682 994 682 994 716 962 c 0,12,13
 784 898 784 898 784 807 c 1,14,-1
 776 240 l 1,15,16
 776 66 776 66 620 9 c 0,17,18
 568 -10 568 -10 496 -10 c 0,19,20
 373 -10 373 -10 297 71 c 0,21,22
 263 106 263 106 244 152 c 1,23,24
 243 78 243 78 242 17 c 2,25,-1
 240 -115 l 1,26,-1
 240 -133 l 2,27,28
 240 -170 240 -170 274 -170 c 2,29,-1
 369 -170 l 1,30,-1
 360 -469 l 1,31,-1
 41 -465 l 1,32,-1
 41 -168 l 1,33,34
 66 -169 66 -169 84.5 -169.5 c 128,-1,35
 103 -170 103 -170 120 -170 c 2,36,-1
 141 -170 l 2,37,38
 166 -170 166 -170 166 -147 c 2,39,-1
 174 694 l 2,0,1
705 418 m 1,40,-1
 709 621 l 1,41,42
 709 684 709 684 654 724 c 0,43,44
 598 764 598 764 514.5 764 c 128,-1,45
 431 764 431 764 382 744 c 128,-1,46
 333 724 333 724 303 696 c 0,47,48
 248 643 248 643 248 582 c 2,49,-1
 248 403 l 2,50,51
 248 313 248 313 370 278 c 0,52,53
 414 266 414 266 472 266 c 128,-1,54
 530 266 530 266 571 280 c 128,-1,55
 612 294 612 294 642 316 c 0,56,57
 705 362 705 362 705 418 c 1,40,-1
EndSplineSet
EndChar

StartChar: q
Encoding: 113 113 84
Width: 825
Flags: W
LayerCount: 2
Fore
SplineSet
705 721 m 2,0,1
 662 721 662 721 662 657 c 2,2,-1
 662 -102 l 2,3,4
 662 -150 662 -150 688 -162 c 0,5,6
 698 -167 698 -167 709 -166.5 c 128,-1,7
 720 -166 720 -166 727 -166 c 2,8,-1
 807 -166 l 1,9,-1
 801 -467 l 1,10,-1
 582 -469 l 1,11,-1
 588 166 l 1,12,13
 561 46 561 46 446 2 c 0,14,15
 402 -14 402 -14 338 -14 c 128,-1,16
 274 -14 274 -14 226.5 -0.5 c 128,-1,17
 179 13 179 13 148 35.5 c 128,-1,18
 117 58 117 58 99.5 85.5 c 128,-1,19
 82 113 82 113 74 142 c 1,20,21
 61 183 61 183 61 242 c 2,22,-1
 61 778 l 2,23,24
 61 962 61 962 218 1016 c 0,25,26
 272 1034 272 1034 340.5 1034 c 128,-1,27
 409 1034 409 1034 452 1024 c 128,-1,28
 495 1014 495 1014 525 994 c 0,29,30
 581 955 581 955 604 874 c 1,31,-1
 604 1024 l 1,32,-1
 766 1020 l 1,33,-1
 766 721 l 1,34,-1
 705 721 l 2,0,1
357 266 m 0,35,36
 425 266 425 266 470.5 276.5 c 128,-1,37
 516 287 516 287 542 306 c 0,38,39
 590 341 590 341 590 422 c 2,40,-1
 590 616 l 2,41,42
 590 691 590 691 541 726 c 0,43,44
 486 766 486 766 386 766 c 128,-1,45
 286 766 286 766 243 755 c 128,-1,46
 200 744 200 744 176 724 c 1,47,48
 133 691 133 691 133 625 c 2,49,-1
 133 422 l 2,50,51
 133 346 133 346 178 310 c 1,52,53
 231 266 231 266 357 266 c 0,35,36
EndSplineSet
EndChar

StartChar: r
Encoding: 114 114 85
Width: 713
Flags: W
LayerCount: 2
Fore
SplineSet
205 692 m 2,0,1
 205 717 205 717 174 717 c 2,2,-1
 31 717 l 1,3,-1
 31 1024 l 1,4,-1
 287 1022 l 1,5,-1
 285 864 l 1,6,7
 349 949 349 949 406 977 c 0,8,9
 514 1030 514 1030 692 1030 c 1,10,11
 692 1027 692 1027 691.5 1006 c 128,-1,12
 691 985 691 985 690.5 952 c 128,-1,13
 690 919 690 919 689.5 877.5 c 128,-1,14
 689 836 689 836 687.5 764.5 c 128,-1,15
 686 693 686 693 684 567 c 1,16,-1
 614 565 l 1,17,18
 614 576 614 576 615 587 c 2,19,-1
 616 623 l 1,20,21
 616 669 616 669 598 690 c 1,22,23
 560 731 560 731 479 731 c 0,24,25
 395 731 395 731 334 694 c 0,26,27
 281 662 281 662 281 627 c 2,28,-1
 276 324 l 2,29,30
 276 297 276 297 295 297 c 2,31,-1
 434 297 l 1,32,-1
 436 0 l 1,33,-1
 49 0 l 1,34,-1
 45 297 l 1,35,-1
 178 297 l 2,36,37
 203 297 203 297 203 324 c 2,38,-1
 203 357 l 1,39,-1
 205 661 l 1,40,-1
 205 692 l 2,0,1
EndSplineSet
EndChar

StartChar: s
Encoding: 115 115 86
Width: 688
Flags: W
LayerCount: 2
Fore
SplineSet
336 750 m 0,0,1
 137 750 137 750 137 637 c 0,2,3
 137 584 137 584 154 568 c 0,4,5
 181 543 181 543 225 539.5 c 128,-1,6
 269 536 269 536 318 535 c 128,-1,7
 367 534 367 534 427.5 531 c 128,-1,8
 488 528 488 528 522.5 513.5 c 128,-1,9
 557 499 557 499 580 474 c 0,10,11
 627 425 627 425 627 346 c 2,12,-1
 627 195 l 2,13,14
 627 53 627 53 497 6 c 0,15,16
 451 -10 451 -10 383 -10 c 128,-1,17
 315 -10 315 -10 269.5 10.5 c 128,-1,18
 224 31 224 31 197 56 c 0,19,20
 162 88 162 88 145 131 c 1,21,-1
 145 0 l 1,22,-1
 68 0 l 1,23,-1
 78 420 l 1,24,-1
 156 420 l 1,25,26
 155 406 155 406 154.5 391 c 128,-1,27
 154 376 154 376 154 358 c 2,28,-1
 154 322 l 2,29,30
 154 255 154 255 280 250 c 0,31,32
 316 248 316 248 357.5 248 c 128,-1,33
 399 248 399 248 435.5 252 c 128,-1,34
 472 256 472 256 498 266 c 1,35,36
 551 289 551 289 551 346 c 0,37,38
 551 447 551 447 451 453 c 0,39,40
 407 455 407 455 352.5 455.5 c 128,-1,41
 298 456 298 456 242 458 c 128,-1,42
 186 460 186 460 153.5 473 c 128,-1,43
 121 486 121 486 100 506 c 0,44,45
 61 545 61 545 61 606 c 2,46,-1
 61 836 l 2,47,48
 61 928 61 928 133 982 c 0,49,50
 201 1032 201 1032 283 1032 c 0,51,52
 459 1032 459 1032 528 915 c 1,53,-1
 528 1024 l 1,54,-1
 608 1024 l 1,55,-1
 600 596 l 1,56,-1
 524 596 l 1,57,-1
 524 645 l 2,58,59
 524 713 524 713 426 740 c 0,60,61
 390 750 390 750 336 750 c 0,0,1
EndSplineSet
EndChar

StartChar: t
Encoding: 116 116 87
Width: 608
Flags: W
LayerCount: 2
Fore
SplineSet
143 1047 m 2,0,-1
 142 1146 l 1,1,-1
 142 1198 l 2,2,3
 142 1224 142 1224 143 1241 c 1,4,-1
 217 1239 l 1,5,-1
 217 1047 l 2,6,7
 217 1033 217 1033 224 1028.5 c 128,-1,8
 231 1024 231 1024 250 1024 c 2,9,-1
 506 1024 l 1,10,-1
 506 717 l 1,11,-1
 238 717 l 2,12,13
 217 717 217 717 217 686 c 2,14,-1
 217 371 l 2,15,16
 217 276 217 276 344 276 c 128,-1,17
 471 276 471 276 471 371 c 2,18,-1
 471 494 l 1,19,-1
 543 494 l 1,20,-1
 543 326 l 1,21,-1
 545 205 l 2,22,23
 548 45 548 45 441 6 c 0,24,25
 401 -8 401 -8 340 -8 c 0,26,27
 143 -8 143 -8 143 193 c 2,28,-1
 143 686 l 2,29,30
 143 706 143 706 137.5 711.5 c 128,-1,31
 132 717 132 717 111 717 c 2,32,-1
 18 717 l 1,33,-1
 20 1024 l 1,34,-1
 111 1024 l 2,35,36
 134 1024 134 1024 138.5 1030.5 c 128,-1,37
 143 1037 143 1037 143 1047 c 2,0,-1
EndSplineSet
EndChar

StartChar: u
Encoding: 117 117 88
Width: 918
Flags: W
LayerCount: 2
Fore
SplineSet
154 690 m 2,0,1
 154 719 154 719 121 719 c 2,2,-1
 25 719 l 1,3,-1
 16 1024 l 1,4,-1
 362 1024 l 1,5,-1
 362 719 l 1,6,-1
 285 719 l 2,7,8
 249 719 249 719 241 712 c 0,9,10
 229 703 229 703 229 670 c 2,11,-1
 229 406 l 2,12,13
 229 307 229 307 343 294 c 0,14,15
 380 289 380 289 437 289 c 128,-1,16
 494 289 494 289 534.5 304 c 128,-1,17
 575 319 575 319 598 342 c 0,18,19
 635 379 635 379 635 438 c 2,20,-1
 635 674 l 2,21,22
 635 706 635 706 617 712.5 c 128,-1,23
 599 719 599 719 571 719 c 2,24,-1
 532 719 l 2,25,26
 508 719 508 719 506 721 c 1,27,-1
 510 1024 l 1,28,-1
 844 1018 l 1,29,-1
 842 719 l 1,30,-1
 772 719 l 2,31,32
 713 719 713 719 713 680 c 2,33,-1
 713 656 l 1,34,-1
 712 559 l 1,35,-1
 712 500 l 1,36,37
 711 430 711 430 711 375.5 c 128,-1,38
 711 321 711 321 722 309 c 128,-1,39
 733 297 733 297 770 297 c 2,40,-1
 844 297 l 1,41,-1
 842 0 l 1,42,-1
 635 0 l 1,43,-1
 635 139 l 1,44,-1
 625 139 l 1,45,46
 611 73 611 73 555.5 31.5 c 128,-1,47
 500 -10 500 -10 415 -10 c 128,-1,48
 330 -10 330 -10 284 3.5 c 128,-1,49
 238 17 238 17 209 48 c 0,50,51
 152 107 152 107 152 250 c 2,52,-1
 152 297 l 1,53,-1
 154 650 l 1,54,-1
 154 690 l 2,0,1
EndSplineSet
EndChar

StartChar: v
Encoding: 118 118 89
Width: 811
Flags: W
LayerCount: 2
Fore
SplineSet
225 717 m 2,0,1
 213 717 213 717 213 705.5 c 128,-1,2
 213 694 213 694 215.5 690 c 128,-1,3
 218 686 218 686 225.5 668.5 c 128,-1,4
 233 651 233 651 245 624 c 0,5,6
 388 297 388 297 391 294 c 0,7,8
 398 289 398 289 407 307.5 c 128,-1,9
 416 326 416 326 432.5 362 c 128,-1,10
 449 398 449 398 467 437.5 c 128,-1,11
 485 477 485 477 503 516.5 c 128,-1,12
 521 556 521 556 536 590 c 0,13,14
 568 665 568 665 575 682 c 0,15,16
 588 717 588 717 555 717 c 2,17,-1
 469 717 l 1,18,-1
 465 1024 l 1,19,-1
 791 1020 l 1,20,-1
 786 715 l 1,21,-1
 700 715 l 2,22,23
 672 715 672 715 662 688 c 0,24,25
 661 686 661 686 648 657.5 c 128,-1,26
 635 629 635 629 616 587.5 c 128,-1,27
 597 546 597 546 575.5 498 c 128,-1,28
 554 450 554 450 535 408 c 0,29,30
 490 311 490 311 488 305 c 128,-1,31
 486 299 486 299 490 298 c 128,-1,32
 494 297 494 297 500 297 c 2,33,-1
 575 297 l 1,34,-1
 567 -2 l 1,35,-1
 197 0 l 1,36,-1
 205 297 l 1,37,-1
 299 297 l 2,38,39
 305 297 305 297 305 300.5 c 128,-1,40
 305 304 305 304 252 419 c 128,-1,41
 199 534 199 534 183.5 569.5 c 128,-1,42
 168 605 168 605 155 634 c 0,43,44
 128 692 128 692 124 703 c 0,45,46
 119 717 119 717 90 717 c 2,47,-1
 20 717 l 1,48,-1
 20 1024 l 1,49,-1
 358 1022 l 1,50,-1
 346 717 l 1,51,-1
 225 717 l 2,0,1
EndSplineSet
EndChar

StartChar: w
Encoding: 119 119 90
Width: 1022
Flags: W
LayerCount: 2
Fore
SplineSet
582 297 m 2,0,1
 598 297 598 297 594 307 c 0,2,3
 594 309 594 309 589 323.5 c 128,-1,4
 584 338 584 338 576.5 360.5 c 128,-1,5
 569 383 569 383 559 411 c 128,-1,6
 549 439 549 439 532 487.5 c 128,-1,7
 515 536 515 536 485 621 c 1,8,9
 482 612 482 612 473 587 c 128,-1,10
 464 562 464 562 452 528.5 c 128,-1,11
 440 495 440 495 426.5 458.5 c 128,-1,12
 413 422 413 422 402 390.5 c 128,-1,13
 391 359 391 359 382.5 337 c 128,-1,14
 374 315 374 315 372 309 c 0,15,16
 368 297 368 297 385 297 c 2,17,-1
 465 297 l 1,18,-1
 459 2 l 1,19,-1
 135 -2 l 1,20,-1
 137 297 l 1,21,-1
 242 297 l 2,22,23
 262 297 262 297 262 313 c 1,24,25
 241 375 241 375 221 441.5 c 128,-1,26
 201 508 201 508 184 564 c 0,27,28
 144 694 144 694 136 705 c 0,29,30
 126 717 126 717 102 717 c 2,31,-1
 31 717 l 1,32,-1
 31 1022 l 1,33,-1
 346 1024 l 1,34,-1
 336 717 l 1,35,-1
 236 717 l 2,36,37
 219 717 219 717 217.5 710.5 c 128,-1,38
 216 704 216 704 217.5 698.5 c 128,-1,39
 219 693 219 693 223.5 678 c 128,-1,40
 228 663 228 663 236 639 c 0,41,42
 263 552 263 552 319 358 c 1,43,44
 379 514 379 514 409.5 596.5 c 128,-1,45
 440 679 440 679 452 709 c 0,46,47
 476 772 476 772 479 781.5 c 128,-1,48
 482 791 482 791 486 791 c 128,-1,49
 490 791 490 791 492.5 786.5 c 128,-1,50
 495 782 495 782 502 762.5 c 128,-1,51
 509 743 509 743 520 713 c 0,52,53
 587 530 587 530 645 365 c 1,54,55
 682 456 682 456 703.5 507.5 c 128,-1,56
 725 559 725 559 737 588.5 c 128,-1,57
 749 618 749 618 759 642 c 128,-1,58
 769 666 769 666 775 681 c 128,-1,59
 781 696 781 696 782 700 c 0,60,61
 786 710 786 710 773 715 c 0,62,63
 768 717 768 717 760 717 c 2,64,-1
 676 717 l 1,65,-1
 670 1022 l 1,66,-1
 991 1024 l 1,67,-1
 981 717 l 1,68,-1
 895 717 l 2,69,70
 872 717 872 717 867 707.5 c 128,-1,71
 862 698 862 698 849 668 c 128,-1,72
 836 638 836 638 818 595.5 c 128,-1,73
 800 553 800 553 779.5 504 c 128,-1,74
 759 455 759 455 741 413 c 0,75,76
 704 326 704 326 698.5 313 c 128,-1,77
 693 300 693 300 697.5 298.5 c 128,-1,78
 702 297 702 297 709 297 c 2,79,-1
 821 297 l 1,80,-1
 827 0 l 1,81,-1
 512 2 l 1,82,-1
 518 297 l 1,83,-1
 582 297 l 2,0,1
EndSplineSet
EndChar

StartChar: x
Encoding: 120 120 91
Width: 907
Flags: W
LayerCount: 2
Fore
SplineSet
56 869 m 2,0,-1
 59 1028 l 1,1,-1
 401 1024 l 1,2,-1
 387 717 l 1,3,-1
 307 717 l 2,4,5
 286 717 286 717 284.5 712 c 128,-1,6
 283 707 283 707 286.5 704 c 128,-1,7
 290 701 290 701 297.5 694 c 128,-1,8
 305 687 305 687 316 676 c 128,-1,9
 327 665 327 665 341 651.5 c 128,-1,10
 355 638 355 638 378.5 614.5 c 128,-1,11
 402 591 402 591 444 551 c 1,12,13
 547 636 547 636 574 660 c 128,-1,14
 601 684 601 684 609 691 c 0,15,16
 639 717 639 717 604 717 c 2,17,-1
 504 717 l 1,18,-1
 508 1024 l 1,19,-1
 850 1024 l 1,20,-1
 850 717 l 1,21,-1
 782 717 l 2,22,23
 749 717 749 717 705 680 c 0,24,25
 703 678 703 678 692.5 670 c 128,-1,26
 682 662 682 662 667 649 c 128,-1,27
 652 636 652 636 633 620.5 c 128,-1,28
 614 605 614 605 582 578 c 128,-1,29
 550 551 550 551 494 504 c 1,30,31
 546 456 546 456 576 427.5 c 128,-1,32
 606 399 606 399 624 382.5 c 128,-1,33
 642 366 642 366 657 352 c 0,34,35
 687 324 687 324 699 314 c 0,36,37
 722 295 722 295 752 295 c 2,38,-1
 856 295 l 1,39,-1
 852 0 l 1,40,-1
 492 2 l 1,41,-1
 485 297 l 1,42,-1
 559 297 l 2,43,44
 578 297 578 297 578 307 c 0,45,46
 578 315 578 315 550 344 c 1,47,-1
 508 385 l 2,48,49
 477 415 477 415 438 451 c 1,50,51
 402 419 402 419 374 394 c 0,52,53
 306 335 306 335 292 321 c 128,-1,54
 278 307 278 307 282 301 c 128,-1,55
 286 295 286 295 291 295 c 2,56,-1
 399 295 l 1,57,-1
 393 0 l 1,58,-1
 55 2 l 1,59,-1
 51 297 l 1,60,-1
 106 297 l 2,61,62
 154 297 154 297 184 322 c 0,63,64
 185 323 185 323 195 331 c 128,-1,65
 205 339 205 339 220 352 c 128,-1,66
 235 365 235 365 253.5 380.5 c 128,-1,67
 272 396 272 396 304 424 c 128,-1,68
 336 452 336 452 391 500 c 1,69,70
 203 685 203 685 185 697 c 1,71,72
 158 717 158 717 129 717 c 2,73,-1
 53 717 l 1,74,75
 54 801 54 801 56 869 c 2,0,-1
EndSplineSet
EndChar

StartChar: y
Encoding: 121 121 92
Width: 825
Flags: W
LayerCount: 2
Fore
SplineSet
377 1024 m 1,0,-1
 375 717 l 1,1,-1
 260 717 l 2,2,3
 248 717 248 717 237 713 c 128,-1,4
 226 709 226 709 228 701 c 128,-1,5
 230 693 230 693 238.5 672.5 c 128,-1,6
 247 652 247 652 260 620 c 128,-1,7
 273 588 273 588 290 548 c 128,-1,8
 307 508 307 508 335.5 438 c 128,-1,9
 364 368 364 368 416 246 c 1,10,11
 506 453 506 453 533 518 c 128,-1,12
 560 583 560 583 573.5 615 c 128,-1,13
 587 647 587 647 596 668 c 128,-1,14
 605 689 605 689 607 695.5 c 128,-1,15
 609 702 609 702 601.5 709.5 c 128,-1,16
 594 717 594 717 582 717 c 2,17,-1
 492 717 l 1,18,-1
 487 1026 l 1,19,-1
 797 1024 l 1,20,-1
 797 717 l 1,21,-1
 723 717 l 2,22,23
 714 717 714 717 703.5 708 c 128,-1,24
 693 699 693 699 691 693.5 c 128,-1,25
 689 688 689 688 673 651 c 128,-1,26
 657 614 657 614 631.5 555.5 c 128,-1,27
 606 497 606 497 573.5 422 c 128,-1,28
 541 347 541 347 507 269 c 128,-1,29
 473 191 473 191 440 116 c 128,-1,30
 407 41 407 41 381 -18 c 0,31,32
 327 -141 327 -141 321 -153 c 0,33,34
 313 -168 313 -168 320 -173 c 0,35,36
 323 -175 323 -175 328 -174 c 1,37,-1
 432 -174 l 1,38,-1
 436 -467 l 1,39,-1
 84 -469 l 1,40,-1
 82 -178 l 1,41,-1
 193 -178 l 2,42,43
 212 -178 212 -178 223 -160 c 1,44,-1
 367 152 l 1,45,-1
 133 705 l 2,46,47
 131 710 131 710 128 712 c 0,48,49
 118 716 118 716 111 717 c 1,50,-1
 37 717 l 1,51,-1
 33 1024 l 1,52,-1
 377 1024 l 1,0,-1
EndSplineSet
EndChar

StartChar: z
Encoding: 122 122 93
Width: 756
Flags: W
LayerCount: 2
Fore
SplineSet
137 686 m 2,0,-1
 136 617 l 2,1,2
 135 591 135 591 135 559 c 1,3,-1
 66 559 l 1,4,-1
 72 1020 l 1,5,-1
 678 1024 l 1,6,-1
 672 766 l 1,7,-1
 227 307 l 2,8,9
 209 289 209 289 231 289 c 2,10,-1
 580 297 l 2,11,12
 597 297 597 297 607.5 303.5 c 128,-1,13
 618 310 618 310 618 355 c 128,-1,14
 618 400 618 400 623 520 c 1,15,-1
 694 518 l 1,16,-1
 682 2 l 1,17,18
 610 1 610 1 548 1 c 2,19,-1
 440 0 l 2,20,21
 400 0 400 0 360 0 c 2,22,-1
 184 -3 l 1,23,24
 126 -5 126 -5 61 -6 c 1,25,-1
 61 240 l 1,26,27
 188 369 188 369 260 441.5 c 128,-1,28
 332 514 332 514 373 556.5 c 128,-1,29
 414 599 414 599 447 632 c 0,30,31
 520 706 520 706 523.5 715 c 128,-1,32
 527 724 527 724 517.5 725.5 c 128,-1,33
 508 727 508 727 494 727 c 2,34,-1
 170 721 l 2,35,36
 137 721 137 721 137 686 c 2,0,-1
EndSplineSet
EndChar

StartChar: braceleft
Encoding: 123 123 94
Width: 614
Flags: W
LayerCount: 2
Fore
SplineSet
512 -160 m 1,0,1
 344 -160 344 -160 277.5 -126.5 c 128,-1,2
 211 -93 211 -93 179 -41.5 c 128,-1,3
 147 10 147 10 147 78 c 128,-1,4
 147 146 147 146 160.5 197 c 128,-1,5
 174 248 174 248 190 302 c 0,6,7
 233 445 233 445 233 497.5 c 128,-1,8
 233 550 233 550 225.5 571.5 c 128,-1,9
 218 593 218 593 206 608 c 0,10,11
 158 668 158 668 59 672 c 1,12,-1
 63 731 l 1,13,14
 186 745 186 745 216 836 c 0,15,16
 223 857 223 857 223 896 c 128,-1,17
 223 935 223 935 213 977.5 c 128,-1,18
 203 1020 203 1020 190 1058 c 0,19,20
 158 1157 158 1157 158 1222.5 c 128,-1,21
 158 1288 158 1288 178 1347.5 c 128,-1,22
 198 1407 198 1407 240 1449 c 0,23,24
 327 1536 327 1536 504 1536 c 1,25,-1
 512 1464 l 1,26,27
 387 1464 387 1464 331.5 1431.5 c 128,-1,28
 276 1399 276 1399 248.5 1353 c 128,-1,29
 221 1307 221 1307 221 1250.5 c 128,-1,30
 221 1194 221 1194 233 1153 c 128,-1,31
 245 1112 245 1112 259 1069 c 0,32,33
 297 952 297 952 297 900.5 c 128,-1,34
 297 849 297 849 280 814.5 c 128,-1,35
 263 780 263 780 241 757 c 0,36,37
 209 723 209 723 176 707 c 1,38,39
 178 706 178 706 199 697 c 128,-1,40
 220 688 220 688 244 666 c 0,41,42
 307 608 307 608 307 532 c 128,-1,43
 307 456 307 456 293.5 408.5 c 128,-1,44
 280 361 280 361 264 312 c 0,45,46
 221 180 221 180 221 74 c 0,47,48
 221 -57 221 -57 363 -83 c 0,49,50
 425 -95 425 -95 506 -86 c 1,51,-1
 512 -160 l 1,0,1
EndSplineSet
EndChar

StartChar: bar
Encoding: 124 124 95
Width: 676
Flags: W
LayerCount: 2
Fore
SplineSet
299 -512 m 1,0,-1
 299 1536 l 1,1,-1
 375 1536 l 1,2,-1
 375 -510 l 1,3,-1
 299 -512 l 1,0,-1
EndSplineSet
EndChar

StartChar: braceright
Encoding: 125 125 96
Width: 614
Flags: W
LayerCount: 2
Fore
SplineSet
102 1534 m 1,0,1
 270 1534 270 1534 336.5 1500.5 c 128,-1,2
 403 1467 403 1467 435 1415.5 c 128,-1,3
 467 1364 467 1364 467 1296 c 128,-1,4
 467 1228 467 1228 453.5 1177 c 128,-1,5
 440 1126 440 1126 424 1072 c 0,6,7
 381 929 381 929 381 852 c 0,8,9
 381 758 381 758 468 721 c 0,10,11
 506 704 506 704 555 702 c 1,12,-1
 551 643 l 1,13,14
 464 633 464 633 416 574 c 0,15,16
 391 544 391 544 391 491.5 c 128,-1,17
 391 439 391 439 401.5 397 c 128,-1,18
 412 355 412 355 424 316 c 0,19,20
 457 211 457 211 457 148.5 c 128,-1,21
 457 86 457 86 437 26.5 c 128,-1,22
 417 -33 417 -33 374 -75 c 0,23,24
 286 -162 286 -162 111 -162 c 1,25,-1
 102 -90 l 1,26,27
 228 -90 228 -90 283 -57.5 c 128,-1,28
 338 -25 338 -25 365.5 21.5 c 128,-1,29
 393 68 393 68 393 124.5 c 128,-1,30
 393 181 393 181 381 221.5 c 128,-1,31
 369 262 369 262 355 306 c 0,32,33
 317 424 317 424 317 474.5 c 128,-1,34
 317 525 317 525 334 559.5 c 128,-1,35
 351 594 351 594 372 618 c 1,36,37
 404 652 404 652 436 668 c 1,38,39
 434 669 434 669 413.5 678 c 128,-1,40
 393 687 393 687 370 708 c 0,41,42
 307 766 307 766 307 842 c 128,-1,43
 307 918 307 918 320.5 966 c 128,-1,44
 334 1014 334 1014 350 1062 c 0,45,46
 393 1193 393 1193 393 1300 c 0,47,48
 393 1431 393 1431 251 1457 c 0,49,50
 189 1469 189 1469 109 1460 c 1,51,-1
 102 1534 l 1,0,1
EndSplineSet
EndChar

StartChar: asciitilde
Encoding: 126 126 97
Width: 717
Flags: W
LayerCount: 2
Fore
SplineSet
504 594 m 0,0,1
 578 594 578 594 578 684 c 2,2,-1
 578 766 l 1,3,-1
 651 766 l 1,4,-1
 651 707 l 2,5,6
 651 586 651 586 579 540 c 0,7,8
 549 520 549 520 508.5 520 c 128,-1,9
 468 520 468 520 441 533 c 128,-1,10
 414 546 414 546 390.5 565 c 128,-1,11
 367 584 367 584 345.5 607 c 128,-1,12
 324 630 324 630 304 649 c 0,13,14
 255 694 255 694 218 694 c 128,-1,15
 181 694 181 694 160 664.5 c 128,-1,16
 139 635 139 635 139 586 c 2,17,-1
 139 520 l 1,18,-1
 66 520 l 1,19,-1
 66 592 l 2,20,21
 66 673 66 673 107 720.5 c 128,-1,22
 148 768 148 768 219 768 c 0,23,24
 294 768 294 768 371.5 681 c 128,-1,25
 449 594 449 594 504 594 c 0,0,1
EndSplineSet
EndChar

StartChar: exclamdown
Encoding: 161 161 99
Width: 502
Flags: W
LayerCount: 2
Fore
SplineSet
285 -86 m 2,0,1
 285 -127 285 -127 315 -127 c 2,2,-1
 426 -127 l 1,3,-1
 428 -469 l 1,4,-1
 78 -463 l 1,5,-1
 84 -125 l 1,6,-1
 182 -125 l 2,7,8
 211 -125 211 -125 211 -96 c 0,9,10
 211 -33 211 -33 221 627 c 1,11,-1
 297 625 l 1,12,-1
 285 -86 l 2,0,1
426 916 m 0,13,14
 426 891 426 891 419 863.5 c 128,-1,15
 412 836 412 836 393 812 c 0,16,17
 349 756 349 756 254 756 c 0,18,19
 173 756 173 756 126 810 c 0,20,21
 86 856 86 856 86 897.5 c 128,-1,22
 86 939 86 939 95 967.5 c 128,-1,23
 104 996 104 996 124 1020 c 0,24,25
 170 1073 170 1073 256 1073 c 256,26,27
 342 1073 342 1073 388 1022 c 0,28,29
 426 979 426 979 426 916 c 0,13,14
EndSplineSet
EndChar

StartChar: cent
Encoding: 162 162 100
Width: 674
Flags: W
LayerCount: 2
Fore
SplineSet
616 608 m 1,0,1
 612 488 612 488 612 412 c 128,-1,2
 612 336 612 336 595 289.5 c 128,-1,3
 578 243 578 243 546 218 c 0,4,5
 497 180 497 180 371 178 c 1,6,-1
 371 -92 l 1,7,-1
 307 -94 l 1,8,-1
 307 178 l 1,9,10
 158 182 158 182 106 244 c 0,11,12
 68 290 68 290 68 408 c 1,13,-1
 61 991 l 1,14,15
 61 1218 61 1218 307 1231 c 1,16,-1
 307 1444 l 1,17,-1
 371 1444 l 1,18,-1
 371 1233 l 1,19,20
 490 1228 490 1228 532 1198 c 0,21,22
 614 1139 614 1139 614 1004 c 2,23,-1
 614 786 l 1,24,-1
 547 786 l 1,25,-1
 547 866 l 2,26,27
 547 945 547 945 432 960 c 0,28,29
 400 964 400 964 371 965 c 1,30,-1
 371 424 l 1,31,32
 539 429 539 429 545 526 c 1,33,-1
 547 606 l 1,34,-1
 616 608 l 1,0,1
135 807 m 2,35,-1
 133 557 l 2,36,37
 133 488 133 488 156 467 c 0,38,39
 197 428 197 428 307 424 c 1,40,-1
 307 965 l 1,41,42
 206 961 206 961 170.5 927.5 c 128,-1,43
 135 894 135 894 135 807 c 2,35,-1
EndSplineSet
EndChar

StartChar: sterling
Encoding: 163 163 101
Width: 760
Flags: W
LayerCount: 2
Fore
SplineSet
451 1378 m 2,0,1
 539 1378 539 1378 594 1303 c 1,2,-1
 596 1378 l 1,3,-1
 672 1378 l 1,4,-1
 672 897 l 1,5,-1
 602 897 l 1,6,-1
 602 975 l 2,7,8
 602 1051 602 1051 524 1051 c 2,9,-1
 240 1051 l 2,10,11
 145 1051 145 1051 145 928 c 0,12,13
 145 845 145 845 231 707 c 1,14,-1
 416 709 l 1,15,-1
 416 643 l 1,16,-1
 258 641 l 1,17,18
 289 591 289 591 289 451 c 2,19,-1
 289 346 l 1,20,21
 365 347 365 347 427 349 c 2,22,-1
 586 352 l 2,23,24
 606 352 606 352 616.5 367.5 c 128,-1,25
 627 383 627 383 627 397 c 2,26,-1
 627 582 l 1,27,-1
 698 584 l 1,28,-1
 698 2 l 1,29,-1
 35 -4 l 1,30,-1
 31 346 l 1,31,32
 70 345 70 345 102 345 c 2,33,-1
 166 345 l 2,34,35
 196 345 196 345 215 346 c 1,36,-1
 215 461 l 2,37,38
 215 594 215 594 180 637 c 1,39,-1
 33 637 l 1,40,-1
 33 705 l 1,41,-1
 154 705 l 1,42,43
 100 817 100 817 86 866 c 0,44,45
 59 961 59 961 59 1077.5 c 128,-1,46
 59 1194 59 1194 81.5 1248 c 128,-1,47
 104 1302 104 1302 136 1331 c 0,48,49
 189 1378 189 1378 270 1378 c 2,50,-1
 451 1378 l 2,0,1
EndSplineSet
EndChar

StartChar: currency
Encoding: 164 164 102
Width: 674
Flags: W
LayerCount: 2
Fore
SplineSet
571 717 m 2,0,1
 571 595 571 595 516 537 c 1,2,-1
 600 410 l 1,3,-1
 541 381 l 1,4,-1
 469 502 l 1,5,6
 421 475 421 475 332.5 475 c 128,-1,7
 244 475 244 475 197 506 c 1,8,-1
 123 381 l 1,9,-1
 66 412 l 1,10,-1
 150 543 l 1,11,12
 102 597 102 597 102 721 c 2,13,-1
 102 725 l 2,14,15
 102 849 102 849 152 911 c 1,16,-1
 66 1049 l 1,17,-1
 123 1079 l 1,18,-1
 197 950 l 1,19,20
 250 981 250 981 332.5 981 c 128,-1,21
 415 981 415 981 467 954 c 1,22,-1
 541 1079 l 1,23,-1
 600 1051 l 1,24,-1
 514 918 l 1,25,26
 571 856 571 856 571 741 c 2,27,-1
 571 717 l 2,0,1
168 719 m 2,28,29
 168 632 168 632 204 594 c 1,30,31
 243 551 243 551 320 551 c 128,-1,32
 397 551 397 551 429.5 566.5 c 128,-1,33
 462 582 462 582 478 607 c 0,34,35
 504 646 504 646 504 723 c 2,36,-1
 504 739 l 2,37,38
 504 814 504 814 481 844 c 0,39,40
 436 903 436 903 338 903 c 0,41,42
 200 903 200 903 176 798 c 0,43,44
 168 765 168 765 168 725 c 2,45,-1
 168 719 l 2,28,29
EndSplineSet
EndChar

StartChar: yen
Encoding: 165 165 103
Width: 846
Flags: W
LayerCount: 2
Fore
SplineSet
551 1040 m 2,0,-1
 502 1040 l 1,1,-1
 500 1376 l 1,2,-1
 825 1368 l 1,3,-1
 813 1030 l 1,4,-1
 735 1030 l 2,5,6
 685 1030 685 1030 657 987 c 0,7,8
 652 980 652 980 637 954.5 c 128,-1,9
 622 929 622 929 601 894 c 0,10,11
 542 794 542 794 510 737 c 1,12,-1
 668 739 l 1,13,-1
 670 664 l 1,14,-1
 465 662 l 1,15,-1
 434 610 l 1,16,17
 432 594 432 594 432 579 c 2,18,-1
 432 553 l 1,19,-1
 666 555 l 1,20,-1
 664 479 l 1,21,-1
 428 477 l 1,22,-1
 428 395 l 2,23,24
 428 350 428 350 485 350 c 2,25,-1
 592 350 l 1,26,-1
 580 0 l 1,27,-1
 197 0 l 1,28,-1
 190 342 l 1,29,-1
 295 342 l 2,30,31
 356 342 356 342 356 393 c 2,32,-1
 356 477 l 1,33,-1
 125 477 l 1,34,-1
 125 553 l 1,35,-1
 358 553 l 1,36,-1
 358 572 l 2,37,38
 358 590 358 590 360 602 c 1,39,40
 351 618 351 618 332 662 c 1,41,-1
 125 662 l 1,42,-1
 127 737 l 1,43,-1
 295 737 l 1,44,45
 223 890 223 890 196.5 939.5 c 128,-1,46
 170 989 170 989 160 1006 c 1,47,48
 136 1042 136 1042 109 1042 c 2,49,-1
 90 1042 l 2,50,51
 77 1042 77 1042 60.5 1042.5 c 128,-1,52
 44 1043 44 1043 23 1044 c 1,53,-1
 20 1374 l 1,54,-1
 348 1376 l 1,55,-1
 340 1047 l 1,56,57
 268 1051 268 1051 262 1051 c 0,58,59
 215 1051 215 1051 236 1012 c 1,60,61
 263 965 263 965 367 737 c 1,62,-1
 430 737 l 1,63,64
 467 802 467 802 494 850 c 0,65,66
 544 937 544 937 556 954 c 1,67,68
 592 1011 592 1011 592 1025.5 c 128,-1,69
 592 1040 592 1040 551 1040 c 2,0,-1
EndSplineSet
EndChar

StartChar: brokenbar
Encoding: 166 166 104
Width: 676
Flags: W
LayerCount: 2
Fore
SplineSet
299 635 m 1,0,-1
 299 1372 l 1,1,-1
 375 1372 l 1,2,-1
 375 637 l 1,3,-1
 299 635 l 1,0,-1
299 -348 m 1,4,-1
 299 389 l 1,5,-1
 375 389 l 1,6,-1
 375 -346 l 1,7,-1
 299 -348 l 1,4,-1
EndSplineSet
EndChar

StartChar: section
Encoding: 167 167 105
Width: 750
Flags: W
LayerCount: 2
Fore
SplineSet
102 1257 m 2,0,1
 102 1454 102 1454 387 1454 c 0,2,3
 564 1454 564 1454 620 1349 c 0,4,5
 641 1311 641 1311 641 1255 c 2,6,-1
 641 1018 l 1,7,-1
 565 1018 l 1,8,-1
 565 1108 l 2,9,10
 565 1175 565 1175 467 1202 c 0,11,12
 431 1212 431 1212 379 1212 c 128,-1,13
 327 1212 327 1212 289.5 1205 c 128,-1,14
 252 1198 252 1198 228 1181 c 0,15,16
 178 1147 178 1147 178 1059 c 0,17,18
 178 987 178 987 244 966 c 0,19,20
 263 959 263 959 286 954 c 128,-1,21
 309 949 309 949 329 944.5 c 128,-1,22
 349 940 349 940 370 935 c 0,23,24
 433 921 433 921 496.5 904.5 c 128,-1,25
 560 888 560 888 603.5 845 c 128,-1,26
 647 802 647 802 647 727 c 2,27,-1
 647 608 l 2,28,29
 647 497 647 497 598 453 c 1,30,31
 647 417 647 417 647 352 c 2,32,-1
 647 123 l 2,33,34
 647 -74 647 -74 367 -74 c 0,35,36
 193 -74 193 -74 132 30 c 0,37,38
 109 69 109 69 109 125 c 2,39,-1
 109 362 l 1,40,-1
 184 362 l 1,41,-1
 184 272 l 2,42,43
 184 205 184 205 282 178 c 0,44,45
 319 168 319 168 371 168 c 128,-1,46
 423 168 423 168 460 175.5 c 128,-1,47
 497 183 497 183 522 201 c 0,48,49
 571 236 571 236 571 322 c 0,50,51
 571 393 571 393 506 414 c 0,52,53
 485 421 485 421 442.5 430.5 c 128,-1,54
 400 440 400 440 378.5 445.5 c 128,-1,55
 357 451 357 451 332 457 c 128,-1,56
 307 463 307 463 248 478 c 128,-1,57
 189 493 189 493 145.5 535.5 c 128,-1,58
 102 578 102 578 102 653 c 2,59,-1
 102 772 l 2,60,61
 102 878 102 878 150 926 c 1,62,63
 102 964 102 964 102 1028 c 2,64,-1
 102 1257 l 2,0,1
537 485 m 1,65,66
 573 515 573 515 573 551 c 2,67,-1
 573 727 l 2,68,69
 573 804 573 804 508 824 c 1,70,71
 481 831 481 831 440 841 c 128,-1,72
 399 851 399 851 376 857 c 0,73,74
 324 870 324 870 288 877 c 0,75,76
 227 889 227 889 213 895 c 1,77,78
 176 868 176 868 176 829 c 2,79,-1
 176 653 l 2,80,81
 176 578 176 578 242 557 c 0,82,83
 260 551 260 551 282 546 c 128,-1,84
 304 541 304 541 327 535 c 128,-1,85
 350 529 350 529 374 523 c 0,86,87
 415 512 415 512 456 504.5 c 128,-1,88
 497 497 497 497 510.5 492.5 c 128,-1,89
 524 488 524 488 537 485 c 1,65,66
EndSplineSet
EndChar

StartChar: dieresis
Encoding: 168 168 106
Width: 868
Flags: W
LayerCount: 2
Fore
SplineSet
367 1370 m 1,0,-1
 358 1192 l 1,1,-1
 184 1190 l 1,2,-1
 178 1370 l 1,3,-1
 367 1370 l 1,0,-1
690 1374 m 1,4,-1
 690 1190 l 1,5,-1
 518 1196 l 1,6,-1
 510 1368 l 1,7,-1
 690 1374 l 1,4,-1
EndSplineSet
EndChar

StartChar: copyright
Encoding: 169 169 107
Width: 1202
Flags: W
LayerCount: 2
Fore
SplineSet
109 397 m 2,0,1
 109 397 109 397 102 1071 c 1,2,3
 102 1345 102 1345 269 1456 c 0,4,5
 391 1538 391 1538 610 1538 c 0,6,7
 836 1538 836 1538 958 1446 c 0,8,9
 1050 1377 1050 1377 1082 1258 c 0,10,11
 1098 1199 1098 1199 1098 1102 c 2,12,-1
 1098 389 l 2,13,14
 1098 292 1098 292 1083.5 237.5 c 128,-1,15
 1069 183 1069 183 1040.5 133 c 128,-1,16
 1012 83 1012 83 958 42 c 0,17,18
 836 -49 836 -49 610 -49 c 0,19,20
 293 -49 293 -49 183 108 c 0,21,22
 123 192 123 192 114 302 c 0,23,24
 109 353 109 353 109 397 c 2,0,1
178 1071 m 2,25,-1
 180 391 l 2,26,27
 180 199 180 199 268 118 c 0,28,29
 368 25 368 25 616 25 c 0,30,31
 990 25 990 25 1020 334 c 0,32,33
 1024 382 1024 382 1024 426 c 2,34,-1
 1024 1106 l 2,35,36
 1024 1213 1024 1213 1005 1265.5 c 128,-1,37
 986 1318 986 1318 958.5 1352 c 128,-1,38
 931 1386 931 1386 886 1411 c 0,39,40
 789 1464 789 1464 637 1464 c 128,-1,41
 485 1464 485 1464 400.5 1436.5 c 128,-1,42
 316 1409 316 1409 266 1358 c 0,43,44
 178 1267 178 1267 178 1071 c 2,25,-1
367 478 m 1,45,-1
 365 966 l 1,46,-1
 365 1065 l 2,47,48
 365 1174 365 1174 440 1226 c 1,49,50
 494 1262 494 1262 567 1262 c 2,51,-1
 643 1262 l 2,52,53
 709 1262 709 1262 750 1223 c 0,54,55
 765 1208 765 1208 771.5 1194.5 c 128,-1,56
 778 1181 778 1181 780 1178 c 1,57,-1
 776 1257 l 1,58,-1
 846 1257 l 1,59,-1
 844 870 l 1,60,-1
 780 868 l 1,61,-1
 780 911 l 2,62,63
 780 959 780 959 752 987.5 c 128,-1,64
 724 1016 724 1016 672 1016 c 2,65,-1
 551 1016 l 2,66,67
 501 1016 501 1016 466.5 986.5 c 128,-1,68
 432 957 432 957 432 903 c 2,69,-1
 436 578 l 1,70,71
 436 467 436 467 535 467 c 2,72,-1
 682 467 l 2,73,74
 728 467 728 467 753 490.5 c 128,-1,75
 778 514 778 514 778 549 c 2,76,-1
 778 631 l 1,77,-1
 842 631 l 1,78,79
 842 610 842 610 843 579 c 2,80,-1
 844 420 l 2,81,82
 844 314 844 314 803 266.5 c 128,-1,83
 762 219 762 219 694 219 c 2,84,-1
 660 219 l 1,85,-1
 627 218 l 1,86,-1
 582 217 l 1,87,-1
 532 217 l 2,88,89
 367 217 367 217 367 406 c 2,90,-1
 367 478 l 1,45,-1
EndSplineSet
EndChar

StartChar: ordfeminine
Encoding: 170 170 108
Width: 666
Flags: W
LayerCount: 2
Fore
SplineSet
311 1178 m 0,0,1
 150 1178 150 1178 150 1108 c 2,2,-1
 150 1083 l 1,3,-1
 86 1079 l 1,4,-1
 92 1378 l 1,5,-1
 152 1378 l 1,6,-1
 152 1305 l 1,7,8
 153 1306 153 1306 164 1318 c 128,-1,9
 175 1330 175 1330 198 1343 c 0,10,11
 260 1378 260 1378 329.5 1378 c 128,-1,12
 399 1378 399 1378 433 1363 c 128,-1,13
 467 1348 467 1348 486 1327 c 0,14,15
 522 1289 522 1289 522 1241 c 2,16,-1
 523 1138 l 1,17,-1
 525 982 l 1,18,-1
 526 893 l 2,19,20
 526 864 526 864 551 864 c 2,21,-1
 614 864 l 1,22,-1
 614 655 l 1,23,-1
 449 653 l 1,24,-1
 449 750 l 1,25,26
 436 718 436 718 398 693 c 0,27,28
 328 647 328 647 258 647 c 0,29,30
 61 647 61 647 61 848 c 0,31,32
 61 951 61 951 120 1005 c 0,33,34
 166 1047 166 1047 227 1047 c 2,35,-1
 414 1047 l 2,36,37
 442 1047 442 1047 450.5 1059.5 c 128,-1,38
 459 1072 459 1072 459 1083 c 2,39,-1
 459 1108 l 2,40,41
 459 1138 459 1138 442 1150 c 0,42,43
 405 1178 405 1178 311 1178 c 0,0,1
143 920 m 0,44,45
 143 846 143 846 283 846 c 0,46,47
 428 846 428 846 452 912 c 0,48,49
 459 932 459 932 459 960.5 c 128,-1,50
 459 989 459 989 436 989 c 2,51,-1
 233 989 l 2,52,53
 187 989 187 989 165 968 c 128,-1,54
 143 947 143 947 143 920 c 0,44,45
578 473 m 1,55,-1
 98 471 l 1,56,-1
 100 545 l 1,57,-1
 578 543 l 1,58,-1
 578 473 l 1,55,-1
EndSplineSet
EndChar

StartChar: guillemotleft
Encoding: 171 171 109
Width: 705
Flags: W
LayerCount: 2
Fore
SplineSet
391 942 m 1,0,-1
 139 590 l 1,1,-1
 383 233 l 1,2,-1
 319 188 l 1,3,-1
 47 586 l 1,4,-1
 328 985 l 1,5,-1
 391 942 l 1,0,-1
637 942 m 1,6,-1
 385 590 l 1,7,-1
 629 233 l 1,8,-1
 565 188 l 1,9,-1
 293 586 l 1,10,-1
 573 985 l 1,11,-1
 637 942 l 1,6,-1
EndSplineSet
EndChar

StartChar: logicalnot
Encoding: 172 172 110
Width: 717
Flags: W
LayerCount: 2
Fore
SplineSet
631 489 m 1,0,-1
 557 485 l 1,1,-1
 557 770 l 1,2,-1
 66 766 l 1,3,-1
 68 842 l 1,4,-1
 633 842 l 1,5,-1
 631 489 l 1,0,-1
EndSplineSet
EndChar

StartChar: sfthyphen
Encoding: 173 173 111
Width: 655
Flags: W
LayerCount: 2
Fore
SplineSet
342.5 444.5 m 128,-1,1
 236 441 236 441 109 444 c 1,2,-1
 102 717 l 1,3,-1
 553 713 l 1,4,-1
 547 444 l 1,5,0
 449 448 449 448 342.5 444.5 c 128,-1,1
EndSplineSet
EndChar

StartChar: registered
Encoding: 174 174 112
Width: 1202
Flags: W
LayerCount: 2
Fore
SplineSet
106 1071 m 2,0,1
 106 1348 106 1348 222 1456 c 0,2,3
 309 1538 309 1538 469 1538 c 0,4,5
 636 1538 636 1538 726 1446 c 0,6,7
 823 1348 823 1348 830 1168 c 0,8,9
 831 1126 831 1126 831 1102 c 2,10,-1
 831 909 l 2,11,12
 831 666 831 666 730 562 c 0,13,14
 641 471 641 471 475 471 c 0,15,16
 242 471 242 471 162 628 c 1,17,18
 117 714 117 714 111.5 793.5 c 128,-1,19
 106 873 106 873 106 918 c 2,20,-1
 106 1071 l 2,0,1
178 911 m 2,21,22
 178 721 178 721 239 638 c 0,23,24
 308 545 308 545 479 545 c 0,25,26
 736 545 736 545 755 832 c 0,27,28
 758 877 758 877 758 922 c 2,29,-1
 758 1106 l 2,30,31
 758 1271 758 1271 710 1352 c 0,32,33
 643 1464 643 1464 473 1464 c 256,34,35
 303 1464 303 1464 236 1358 c 0,36,37
 178 1268 178 1268 178 1071 c 2,38,-1
 178 911 l 2,21,22
557 1010 m 1,39,40
 600 998 600 998 600 946 c 2,41,-1
 600 856 l 2,42,43
 600 834 600 834 623 834 c 2,44,-1
 700 834 l 1,45,-1
 700 682 l 1,46,-1
 582 682 l 2,47,48
 559 682 559 682 551 690 c 128,-1,49
 543 698 543 698 543 717 c 2,50,-1
 543 932 l 2,51,52
 543 995 543 995 471 995 c 2,53,-1
 403 995 l 2,54,55
 395 995 395 995 395 985 c 2,56,-1
 395 852 l 2,57,58
 395 834 395 834 416 834 c 2,59,-1
 479 834 l 1,60,-1
 479 682 l 1,61,-1
 248 682 l 1,62,-1
 248 834 l 1,63,-1
 311 834 l 2,64,65
 336 834 336 834 336 856 c 2,66,-1
 336 1159 l 2,67,68
 336 1171 336 1171 311 1171 c 2,69,-1
 246 1171 l 1,70,-1
 246 1319 l 1,71,72
 295 1319 295 1319 340 1320 c 2,73,-1
 481 1321 l 2,74,75
 567 1321 567 1321 603 1298 c 0,76,77
 672 1254 672 1254 672 1153 c 0,78,79
 672 1031 672 1031 557 1010 c 1,39,40
518 1047 m 2,80,81
 616 1047 616 1047 616 1108 c 0,82,83
 616 1171 616 1171 537 1171 c 2,84,-1
 408 1171 l 2,85,86
 395 1171 395 1171 395 1165 c 2,87,-1
 395 1055 l 2,88,89
 395 1047 395 1047 406 1047 c 2,90,-1
 518 1047 l 2,80,81
EndSplineSet
EndChar

StartChar: macron
Encoding: 175 175 113
Width: 868
Flags: W
LayerCount: 2
Fore
SplineSet
684 1235 m 1,0,-1
 184 1233 l 1,1,-1
 186 1323 l 1,2,-1
 684 1321 l 1,3,-1
 684 1235 l 1,0,-1
EndSplineSet
EndChar

StartChar: degree
Encoding: 176 176 114
Width: 528
Flags: W
LayerCount: 2
Fore
SplineSet
264 1006 m 0,0,1
 217 1006 217 1006 180.5 1022.5 c 128,-1,2
 144 1039 144 1039 120 1066 c 0,3,4
 72 1120 72 1120 74 1196 c 0,5,6
 77 1318 77 1318 183 1364 c 0,7,8
 218 1380 218 1380 264 1380 c 0,9,10
 351 1380 351 1380 406 1322 c 1,11,12
 457 1270 457 1270 457 1196 c 0,13,14
 457 1125 457 1125 408 1070 c 0,15,16
 351 1006 351 1006 264 1006 c 0,0,1
211 1089.5 m 128,-1,18
 234 1079 234 1079 265 1079 c 128,-1,19
 296 1079 296 1079 318 1090.5 c 128,-1,20
 340 1102 340 1102 354 1120 c 0,21,22
 379 1153 379 1153 379 1198 c 0,23,24
 379 1267 379 1267 316 1297 c 0,25,26
 294 1307 294 1307 264.5 1307 c 128,-1,27
 235 1307 235 1307 213 1298 c 128,-1,28
 191 1289 191 1289 176 1274 c 0,29,30
 147 1244 147 1244 145 1209.5 c 128,-1,31
 143 1175 143 1175 150.5 1154 c 128,-1,32
 158 1133 158 1133 173 1116.5 c 128,-1,17
 188 1100 188 1100 211 1089.5 c 128,-1,18
EndSplineSet
EndChar

StartChar: plusminus
Encoding: 177 177 115
Width: 717
Flags: W
LayerCount: 2
Fore
SplineSet
393 956 m 1,0,-1
 395 680 l 1,1,-1
 649 680 l 1,2,-1
 653 608 l 1,3,-1
 395 606 l 1,4,-1
 393 346 l 1,5,-1
 319 342 l 1,6,-1
 319 606 l 1,7,-1
 66 602 l 1,8,-1
 68 678 l 1,9,-1
 322 680 l 1,10,-1
 322 952 l 1,11,-1
 393 956 l 1,0,-1
86 172 m 1,12,-1
 88 248 l 1,13,-1
 629 250 l 1,14,-1
 633 178 l 1,15,-1
 86 172 l 1,12,-1
EndSplineSet
EndChar

StartChar: twosuperior
Encoding: 178 178 116
Width: 530
Flags: W
LayerCount: 2
Fore
SplineSet
365 1147 m 2,0,-1
 164 1143 l 2,1,2
 145 1143 145 1143 130 1139.5 c 128,-1,3
 115 1136 115 1136 115 1114 c 2,4,-1
 115 1047 l 1,5,-1
 51 1049 l 1,6,-1
 53 1378 l 1,7,-1
 117 1378 l 1,8,-1
 115 1309 l 1,9,10
 149 1378 149 1378 227 1378 c 2,11,-1
 340 1378 l 2,12,13
 469 1378 469 1378 477 1284 c 0,14,15
 479 1260 479 1260 479 1239 c 2,16,-1
 477 1038 l 2,17,18
 477 966 477 966 400 930 c 0,19,20
 378 920 378 920 356 911 c 2,21,-1
 203 844 l 1,22,23
 129 813 129 813 129 729 c 2,24,-1
 129 692 l 1,25,-1
 383 700 l 1,26,27
 416 700 416 700 416 723 c 2,28,-1
 416 809 l 1,29,-1
 477 811 l 1,30,-1
 467 455 l 1,31,-1
 66 453 l 1,32,33
 63 570 63 570 63 616 c 2,34,-1
 63 711 l 2,35,36
 63 848 63 848 178 899 c 2,37,-1
 330 965 l 2,38,39
 383 988 383 988 394 999 c 0,40,41
 412 1017 412 1017 412 1065 c 2,42,-1
 412 1102 l 2,43,44
 412 1147 412 1147 365 1147 c 2,0,-1
EndSplineSet
EndChar

StartChar: threesuperior
Encoding: 179 179 117
Width: 522
Flags: W
LayerCount: 2
Fore
SplineSet
170 1147 m 1,0,1
 113 1147 113 1147 113 1094 c 2,2,-1
 113 1061 l 1,3,-1
 51 1061 l 1,4,-1
 53 1378 l 1,5,-1
 125 1378 l 1,6,-1
 125 1319 l 1,7,8
 148 1354 148 1354 161 1362 c 0,9,10
 184 1378 184 1378 221 1378 c 2,11,-1
 352 1378 l 2,12,13
 427 1378 427 1378 458 1324 c 0,14,15
 467 1307 467 1307 467 1286 c 2,16,-1
 471 1040 l 1,17,18
 471 926 471 926 379 920 c 1,19,-1
 379 918 l 1,20,21
 422 915 422 915 438 903 c 0,22,23
 471 877 471 877 471 811 c 2,24,-1
 471 610 l 2,25,26
 471 503 471 503 396 466 c 0,27,28
 372 455 372 455 344 455 c 2,29,-1
 215 455 l 2,30,31
 135 455 135 455 119 518 c 1,32,-1
 121 457 l 1,33,-1
 53 455 l 1,34,-1
 57 786 l 1,35,-1
 121 786 l 1,36,-1
 121 723 l 2,37,38
 121 672 121 672 170 672 c 2,39,-1
 362 672 l 2,40,41
 403 672 403 672 403 739 c 2,42,-1
 403 834 l 2,43,44
 403 858 403 858 382 874.5 c 128,-1,45
 361 891 361 891 326 891 c 2,46,-1
 166 891 l 1,47,-1
 166 952 l 1,48,-1
 324 952 l 2,49,50
 368 952 368 952 385.5 971.5 c 128,-1,51
 403 991 403 991 403 1016 c 2,52,-1
 403 1090 l 2,53,54
 403 1143 403 1143 340 1143 c 1,55,-1
 170 1147 l 1,0,1
EndSplineSet
EndChar

StartChar: acute
Encoding: 180 180 118
Width: 868
Flags: W
LayerCount: 2
Fore
SplineSet
592 1446 m 1,0,-1
 342 1147 l 1,1,-1
 274 1206 l 1,2,-1
 526 1501 l 1,3,-1
 592 1446 l 1,0,-1
EndSplineSet
EndChar

StartChar: mu
Encoding: 181 181 119
Width: 942
Flags: W
LayerCount: 2
Fore
SplineSet
692 654 m 1,0,-1
 691 546 l 2,1,2
 691 513 691 513 690.5 457.5 c 128,-1,3
 690 402 690 402 690 307 c 0,4,5
 690 278 690 278 710 265 c 128,-1,6
 730 252 730 252 756.5 252 c 128,-1,7
 783 252 783 252 798 269.5 c 128,-1,8
 813 287 813 287 813 306 c 2,9,-1
 813 343 l 2,10,11
 813 362 813 362 813.5 380.5 c 128,-1,12
 814 399 814 399 815 420 c 1,13,-1
 881 422 l 1,14,-1
 881 178 l 2,15,16
 881 98 881 98 865 63 c 0,17,18
 832 -8 832 -8 756 -8 c 0,19,20
 641 -8 641 -8 627 114 c 0,21,22
 623 149 623 149 623 184 c 1,23,24
 597 39 597 39 492 2 c 0,25,26
 460 -10 460 -10 426 -10 c 0,27,28
 268 -10 268 -10 236 152 c 1,29,30
 237 78 237 78 238 17 c 2,31,-1
 240 -115 l 1,32,-1
 240 -133 l 2,33,34
 240 -170 240 -170 274 -170 c 2,35,-1
 369 -170 l 1,36,-1
 360 -469 l 1,37,-1
 41 -465 l 1,38,-1
 41 -168 l 1,39,40
 66 -169 66 -169 84.5 -169.5 c 128,-1,41
 103 -170 103 -170 120 -170 c 2,42,-1
 141 -170 l 2,43,44
 166 -170 166 -170 166 -147 c 2,45,-1
 174 690 l 2,46,47
 174 719 174 719 141 719 c 2,48,-1
 45 719 l 1,49,-1
 37 1024 l 1,50,-1
 383 1024 l 1,51,-1
 383 719 l 1,52,-1
 305 719 l 2,53,54
 269 719 269 719 261 712 c 0,55,56
 250 704 250 704 250 670 c 2,57,-1
 250 444 l 2,58,59
 250 361 250 361 292 320 c 128,-1,60
 334 279 334 279 415 279 c 128,-1,61
 496 279 496 279 533 295.5 c 128,-1,62
 570 312 570 312 588 336 c 0,63,64
 614 372 614 372 614 438 c 2,65,-1
 614 674 l 2,66,67
 614 706 614 706 596.5 712.5 c 128,-1,68
 579 719 579 719 551 719 c 2,69,-1
 511 719 l 2,70,71
 487 719 487 719 485 721 c 1,72,-1
 489 1024 l 1,73,-1
 823 1018 l 1,74,-1
 821 719 l 1,75,-1
 752 719 l 2,76,77
 692 719 692 719 692 680 c 2,78,-1
 692 654 l 1,0,-1
EndSplineSet
EndChar

StartChar: paragraph
Encoding: 182 182 120
Width: 842
Flags: W
LayerCount: 2
Fore
SplineSet
539 1200 m 2,0,1
 513 1200 513 1200 510 1178 c 1,2,-1
 510 0 l 1,3,-1
 297 0 l 1,4,-1
 303 305 l 1,5,-1
 416 305 l 2,6,7
 425 305 425 305 430.5 307 c 128,-1,8
 436 309 436 309 436 318 c 2,9,-1
 436 354 l 1,10,-1
 434 658 l 1,11,-1
 434 686 l 2,12,13
 434 691 434 691 433 696.5 c 128,-1,14
 432 702 432 702 420 702 c 2,15,-1
 334 702 l 2,16,17
 247 702 247 702 171 755.5 c 128,-1,18
 95 809 95 809 60 938 c 0,19,20
 41 1006 41 1006 41 1104 c 0,21,22
 41 1281 41 1281 114 1391 c 1,23,24
 167 1473 167 1473 258 1512 c 0,25,26
 316 1536 316 1536 371 1536 c 2,27,-1
 676 1536 l 1,28,-1
 676 367 l 2,29,30
 676 319 676 319 702 307 c 0,31,32
 712 302 712 302 723 302.5 c 128,-1,33
 734 303 734 303 741 303 c 2,34,-1
 801 303 l 1,35,-1
 795 0 l 1,36,-1
 598 -2 l 1,37,-1
 604 1165 l 2,38,39
 604 1188 604 1188 600 1194 c 128,-1,40
 596 1200 596 1200 582 1200 c 2,41,-1
 539 1200 l 2,0,1
399 778 m 2,42,43
 440 778 440 778 440 811 c 0,44,45
 440 819 440 819 439.5 849 c 128,-1,46
 439 879 439 879 438.5 918.5 c 128,-1,47
 438 958 438 958 437 1002 c 128,-1,48
 436 1046 436 1046 435.5 1083 c 128,-1,49
 435 1120 435 1120 434 1144 c 1,50,-1
 434 1167 l 2,51,52
 434 1187 434 1187 428.5 1194.5 c 128,-1,53
 423 1202 423 1202 395 1202 c 2,54,-1
 362 1202 l 2,55,56
 238 1202 238 1202 180 1114 c 0,57,58
 154 1075 154 1075 154 1004 c 128,-1,59
 154 933 154 933 174.5 887.5 c 128,-1,60
 195 842 195 842 223 818 c 0,61,62
 268 778 268 778 326 778 c 2,63,-1
 399 778 l 2,42,43
EndSplineSet
EndChar

StartChar: periodcentered
Encoding: 183 183 121
Width: 463
Flags: W
LayerCount: 2
Fore
SplineSet
61 704 m 0,0,1
 61 729 61 729 68 756.5 c 128,-1,2
 75 784 75 784 94 808 c 0,3,4
 138 864 138 864 233 864 c 0,5,6
 314 864 314 864 360 810 c 1,7,8
 401 764 401 764 401 722.5 c 128,-1,9
 401 681 401 681 392 652.5 c 128,-1,10
 383 624 383 624 363 600 c 0,11,12
 317 547 317 547 231 547 c 256,13,14
 145 547 145 547 99 598 c 0,15,16
 61 641 61 641 61 704 c 0,0,1
EndSplineSet
EndChar

StartChar: cedilla
Encoding: 184 184 122
Width: 868
Flags: W
LayerCount: 2
Fore
SplineSet
510 -196 m 0,0,1
 485 -195 485 -195 466 -195 c 128,-1,2
 447 -195 447 -195 371 -203 c 1,3,-1
 369 23 l 1,4,-1
 451 20 l 1,5,-1
 451 -121 l 1,6,7
 483 -117 483 -117 512 -117 c 128,-1,8
 541 -117 541 -117 573.5 -126.5 c 128,-1,9
 606 -136 606 -136 632 -155 c 0,10,11
 690 -199 690 -199 690 -255.5 c 128,-1,12
 690 -312 690 -312 675.5 -349.5 c 128,-1,13
 661 -387 661 -387 631 -414 c 0,14,15
 567 -473 567 -473 435 -473 c 128,-1,16
 303 -473 303 -473 176 -416 c 1,17,-1
 178 -328 l 1,18,19
 327 -391 327 -391 430 -391 c 0,20,21
 608 -391 608 -391 608 -281 c 0,22,23
 608 -202 608 -202 510 -196 c 0,0,1
EndSplineSet
EndChar

StartChar: onesuperior
Encoding: 185 185 123
Width: 473
Flags: W
LayerCount: 2
Fore
SplineSet
221 1065 m 2,0,1
 221 1108 221 1108 143 1108 c 2,2,-1
 41 1108 l 1,3,-1
 43 1309 l 1,4,-1
 150 1309 l 2,5,6
 187 1309 187 1309 203 1344 c 0,7,8
 207 1353 207 1353 207 1360 c 2,9,-1
 207 1380 l 1,10,-1
 291 1378 l 1,11,12
 281 781 281 781 281 745 c 0,13,14
 281 690 281 690 309 690 c 2,15,-1
 442 690 l 1,16,-1
 442 453 l 1,17,-1
 49 453 l 1,18,-1
 53 690 l 1,19,-1
 184 690 l 2,20,21
 203 690 203 690 209 700.5 c 128,-1,22
 215 711 215 711 215 719 c 2,23,-1
 221 1065 l 2,0,1
EndSplineSet
EndChar

StartChar: ordmasculine
Encoding: 186 186 124
Width: 573
Flags: W
LayerCount: 2
Fore
SplineSet
63 896 m 1,0,-1
 65 1052 l 2,1,2
 66 1112 66 1112 67 1161 c 128,-1,3
 68 1210 68 1210 69.5 1246 c 128,-1,4
 71 1282 71 1282 90 1312 c 0,5,6
 134 1378 134 1378 289 1378 c 0,7,8
 482 1378 482 1378 506 1268 c 0,9,10
 510 1246 510 1246 510 1225 c 2,11,-1
 510 854 l 2,12,13
 510 768 510 768 491 735 c 128,-1,14
 472 702 472 702 448 684 c 1,15,16
 392 645 392 645 289 645 c 0,17,18
 135 645 135 645 90 712 c 0,19,20
 66 749 66 749 64.5 789 c 128,-1,21
 63 829 63 829 63 850 c 2,22,-1
 63 896 l 1,0,-1
369 1170 m 128,-1,24
 338 1176 338 1176 287 1176 c 128,-1,25
 236 1176 236 1176 203.5 1171 c 128,-1,26
 171 1166 171 1166 153 1154 c 0,27,28
 123 1135 123 1135 123 1081 c 2,29,-1
 123 938 l 2,30,31
 123 887 123 887 148 872 c 1,32,33
 192 848 192 848 289 848 c 0,34,35
 385 848 385 848 411.5 864.5 c 128,-1,36
 438 881 438 881 443.5 896.5 c 128,-1,37
 449 912 449 912 449 932 c 2,38,-1
 449 1081 l 2,39,40
 449 1133 449 1133 424.5 1148.5 c 128,-1,23
 400 1164 400 1164 369 1170 c 128,-1,24
496 473 m 1,41,-1
 78 471 l 1,42,-1
 80 545 l 1,43,-1
 496 543 l 1,44,-1
 496 473 l 1,41,-1
EndSplineSet
EndChar

StartChar: guillemotright
Encoding: 187 187 125
Width: 705
Flags: W
LayerCount: 2
Fore
SplineSet
68 229 m 1,0,-1
 319 582 l 1,1,-1
 76 938 l 1,2,-1
 139 983 l 1,3,-1
 412 586 l 1,4,-1
 131 186 l 1,5,-1
 68 229 l 1,0,-1
313 229 m 1,6,-1
 565 582 l 1,7,-1
 322 938 l 1,8,-1
 385 983 l 1,9,-1
 657 586 l 1,10,-1
 377 186 l 1,11,-1
 313 229 l 1,6,-1
EndSplineSet
EndChar

StartChar: onequarter
Encoding: 188 188 126
Width: 1241
Flags: W
LayerCount: 2
Fore
SplineSet
952 295 m 2,0,1
 952 309 952 309 936 309 c 2,2,-1
 659 309 l 2,3,4
 637 309 637 309 635.5 317.5 c 128,-1,5
 634 326 634 326 638.5 334.5 c 128,-1,6
 643 343 643 343 659 365 c 128,-1,7
 675 387 675 387 701 424 c 128,-1,8
 727 461 727 461 762 510.5 c 128,-1,9
 797 560 797 560 838 618 c 1,10,11
 804 618 804 618 780 621 c 1,12,-1
 778 842 l 1,13,-1
 1081 842 l 1,14,-1
 1075 618 l 1,15,-1
 1014 618 l 1,16,-1
 1016 383 l 2,17,18
 1016 371 1016 371 1026 371 c 2,19,-1
 1112 371 l 2,20,21
 1121 371 1121 371 1122.5 374 c 128,-1,22
 1124 377 1124 377 1124 385 c 2,23,-1
 1124 436 l 1,24,-1
 1180 436 l 1,25,-1
 1180 252 l 1,26,-1
 1130 252 l 1,27,-1
 1130 297 l 2,28,29
 1130 311 1130 311 1116 311 c 2,30,-1
 1030 311 l 2,31,32
 1018 311 1018 311 1018 306 c 2,33,-1
 1018 244 l 2,34,35
 1018 227 1018 227 1036 227 c 2,36,-1
 1116 227 l 1,37,-1
 1122 0 l 1,38,-1
 848 0 l 1,39,-1
 852 223 l 1,40,-1
 938 223 l 2,41,42
 952 223 952 223 952 244 c 2,43,-1
 952 295 l 2,0,1
221 1065 m 2,44,45
 221 1108 221 1108 143 1108 c 2,46,-1
 61 1108 l 1,47,-1
 63 1309 l 1,48,-1
 150 1309 l 2,49,50
 187 1309 187 1309 203 1344 c 0,51,52
 207 1353 207 1353 207 1360 c 2,53,-1
 207 1380 l 1,54,-1
 291 1378 l 1,55,56
 281 858 281 858 281 824 c 0,57,58
 281 772 281 772 309 772 c 2,59,-1
 422 772 l 1,60,-1
 422 535 l 1,61,-1
 70 535 l 1,62,-1
 74 772 l 1,63,-1
 184 772 l 2,64,65
 203 772 203 772 209 782.5 c 128,-1,66
 215 793 215 793 215 801 c 2,67,-1
 221 1065 l 2,44,45
231 23 m 1,68,-1
 918 1378 l 1,69,-1
 983 1354 l 1,70,-1
 297 0 l 1,71,-1
 231 23 l 1,68,-1
949 372 m 128,-1,73
 950 373 950 373 950 417.5 c 128,-1,74
 950 462 950 462 946 618 c 1,75,-1
 907 618 l 1,76,-1
 735 371 l 1,77,-1
 936 371 l 2,78,72
 948 371 948 371 949 372 c 128,-1,73
EndSplineSet
EndChar

StartChar: onehalf
Encoding: 189 189 127
Width: 1257
Flags: W
LayerCount: 2
Fore
SplineSet
1081 621 m 1,0,-1
 881 616 l 2,1,2
 862 616 862 616 846.5 612.5 c 128,-1,3
 831 609 831 609 831 588 c 2,4,-1
 831 510 l 1,5,-1
 768 512 l 1,6,-1
 770 842 l 1,7,-1
 834 842 l 1,8,-1
 831 772 l 1,9,10
 865 842 865 842 944 842 c 2,11,-1
 1057 842 l 2,12,13
 1186 842 1186 842 1194 748 c 0,14,15
 1196 724 1196 724 1196 702 c 2,16,-1
 1195 634 l 1,17,-1
 1194 543 l 2,18,19
 1194 468 1194 468 1116 434 c 0,20,21
 1094 425 1094 425 1073 416 c 2,22,-1
 920 348 l 1,23,24
 846 317 846 317 846 250 c 2,25,-1
 846 227 l 1,26,-1
 1100 236 l 1,27,28
 1133 236 1133 236 1133 258 c 0,29,30
 1133 273 1133 273 1136 288.5 c 128,-1,31
 1139 304 1139 304 1142 318 c 0,32,33
 1147 349 1147 349 1141 354 c 1,34,-1
 1194 356 l 1,35,-1
 1184 0 l 1,36,-1
 782 -2 l 1,37,38
 781 26 781 26 780.5 57.5 c 128,-1,39
 780 89 780 89 780 128 c 2,40,-1
 780 215 l 2,41,42
 780 352 780 352 895 403 c 2,43,-1
 1047 469 l 2,44,45
 1089 488 1089 488 1108.5 510.5 c 128,-1,46
 1128 533 1128 533 1128 577 c 128,-1,47
 1128 621 1128 621 1081 621 c 1,0,-1
221 1073 m 2,48,49
 221 1116 221 1116 143 1116 c 2,50,-1
 61 1116 l 1,51,-1
 63 1309 l 1,52,-1
 150 1309 l 2,53,54
 187 1309 187 1309 203 1344 c 0,55,56
 207 1353 207 1353 207 1360 c 2,57,-1
 207 1380 l 1,58,-1
 291 1378 l 1,59,60
 281 851 281 851 281 817 c 0,61,62
 281 764 281 764 309 764 c 2,63,-1
 422 764 l 1,64,-1
 422 535 l 1,65,-1
 70 535 l 1,66,-1
 74 764 l 1,67,-1
 184 764 l 2,68,69
 203 764 203 764 209 774.5 c 128,-1,70
 215 785 215 785 215 793 c 2,71,-1
 221 1073 l 2,48,49
231 23 m 1,72,-1
 918 1378 l 1,73,-1
 983 1354 l 1,74,-1
 297 0 l 1,75,-1
 231 23 l 1,72,-1
1133 354 m 1,76,-1
 1141 354 l 1,77,-1
 1133 354 l 1,76,-1
EndSplineSet
EndChar

StartChar: threequarters
Encoding: 190 190 128
Width: 1251
Flags: W
LayerCount: 2
Fore
SplineSet
963 295 m 2,0,1
 963 309 963 309 946 309 c 2,2,-1
 670 309 l 2,3,4
 647 309 647 309 645.5 317.5 c 128,-1,5
 644 326 644 326 648.5 334.5 c 128,-1,6
 653 343 653 343 669 365 c 128,-1,7
 685 387 685 387 711 424 c 128,-1,8
 737 461 737 461 772 510.5 c 128,-1,9
 807 560 807 560 848 618 c 1,10,11
 814 618 814 618 791 621 c 1,12,-1
 788 842 l 1,13,-1
 1092 842 l 1,14,-1
 1085 618 l 1,15,-1
 1024 618 l 1,16,-1
 1026 383 l 2,17,18
 1026 371 1026 371 1036 371 c 2,19,-1
 1122 371 l 2,20,21
 1132 371 1132 371 1133.5 374 c 128,-1,22
 1135 377 1135 377 1135 385 c 2,23,-1
 1135 436 l 1,24,-1
 1190 436 l 1,25,-1
 1190 252 l 1,26,-1
 1141 252 l 1,27,-1
 1141 297 l 2,28,29
 1141 311 1141 311 1126 311 c 2,30,-1
 1040 311 l 2,31,32
 1028 311 1028 311 1028 306 c 2,33,-1
 1028 244 l 2,34,35
 1028 227 1028 227 1047 227 c 2,36,-1
 1126 227 l 1,37,-1
 1133 0 l 1,38,-1
 858 0 l 1,39,-1
 862 223 l 1,40,-1
 948 223 l 2,41,42
 963 223 963 223 963 244 c 2,43,-1
 963 295 l 2,0,1
186 1157 m 1,44,45
 129 1157 129 1157 129 1104 c 2,46,-1
 129 1061 l 1,47,-1
 68 1061 l 1,48,-1
 70 1378 l 1,49,-1
 141 1378 l 1,50,-1
 141 1319 l 1,51,52
 164 1354 164 1354 177 1362 c 0,53,54
 201 1378 201 1378 238 1378 c 2,55,-1
 348 1378 l 2,56,57
 423 1378 423 1378 454 1324 c 0,58,59
 463 1307 463 1307 463 1286 c 2,60,-1
 467 1081 l 1,61,62
 467 967 467 967 375 961 c 1,63,-1
 375 958 l 1,64,65
 418 955 418 955 434 943 c 0,66,67
 467 917 467 917 467 852 c 2,68,-1
 467 692 l 2,69,70
 467 585 467 585 392 548 c 0,71,72
 368 537 368 537 340 537 c 2,73,-1
 231 537 l 2,74,75
 151 537 151 537 135 600 c 1,76,-1
 137 539 l 1,77,-1
 70 537 l 1,78,-1
 74 868 l 1,79,-1
 137 868 l 1,80,-1
 137 795 l 2,81,82
 137 743 137 743 186 743 c 2,83,-1
 358 743 l 2,84,85
 399 743 399 743 399 811 c 2,86,-1
 399 874 l 2,87,88
 399 899 399 899 378 915.5 c 128,-1,89
 357 932 357 932 322 932 c 2,90,-1
 182 932 l 1,91,-1
 182 993 l 1,92,-1
 319 993 l 2,93,94
 364 993 364 993 381.5 1012.5 c 128,-1,95
 399 1032 399 1032 399 1057 c 2,96,-1
 399 1100 l 2,97,98
 399 1153 399 1153 336 1153 c 1,99,-1
 186 1157 l 1,44,45
242 23 m 1,100,-1
 928 1378 l 1,101,-1
 993 1354 l 1,102,-1
 307 0 l 1,103,-1
 242 23 l 1,100,-1
960 372 m 128,-1,105
 961 373 961 373 961 398 c 128,-1,106
 961 423 961 423 956 618 c 1,107,-1
 918 618 l 1,108,-1
 745 371 l 1,109,-1
 946 371 l 2,110,104
 959 371 959 371 960 372 c 128,-1,105
EndSplineSet
EndChar

StartChar: questiondown
Encoding: 191 191 129
Width: 655
Flags: W
LayerCount: 2
Fore
SplineSet
461 -129 m 2,0,1
 518 -129 518 -129 518 -51 c 2,2,-1
 518 35 l 1,3,-1
 588 35 l 1,4,-1
 594 -467 l 1,5,-1
 516 -469 l 1,6,-1
 520 -358 l 1,7,8
 500 -412 500 -412 467.5 -440.5 c 128,-1,9
 435 -469 435 -469 373 -469 c 2,10,-1
 233 -469 l 2,11,12
 174 -469 174 -469 134 -422 c 0,13,14
 102 -384 102 -384 102 -344 c 2,15,-1
 103 -242 l 1,16,-1
 105 -82 l 1,17,-1
 106 55 l 2,18,19
 106 129 106 129 173 175 c 0,20,21
 189 186 189 186 201 195 c 2,22,-1
 279 248 l 1,23,24
 342 289 342 289 342 350 c 2,25,-1
 342 375 l 1,26,-1
 340 504 l 2,27,28
 339 559 339 559 338 623 c 1,29,-1
 416 623 l 1,30,-1
 416 342 l 2,31,32
 416 252 416 252 350 202 c 0,33,34
 335 191 335 191 328 186 c 2,35,-1
 227 123 l 1,36,37
 180 92 180 92 180 41 c 2,38,-1
 180 -76 l 2,39,40
 180 -99 180 -99 197 -115 c 128,-1,41
 214 -131 214 -131 231 -131 c 2,42,-1
 461 -129 l 2,0,1
535 916 m 0,43,44
 535 891 535 891 528 863.5 c 128,-1,45
 521 836 521 836 502 812 c 0,46,47
 458 756 458 756 362 756 c 0,48,49
 281 756 281 756 235 810 c 0,50,51
 195 856 195 856 195 897.5 c 128,-1,52
 195 939 195 939 204 967.5 c 128,-1,53
 213 996 213 996 233 1020 c 0,54,55
 279 1073 279 1073 365 1073 c 0,56,57
 450 1073 450 1073 496 1022 c 0,58,59
 535 979 535 979 535 916 c 0,43,44
EndSplineSet
EndChar

StartChar: AE
Encoding: 198 198 136
Width: 1257
Flags: W
LayerCount: 2
Fore
SplineSet
596 344 m 2,0,1
 639 344 639 344 639 422 c 2,2,-1
 639 719 l 1,3,-1
 348 719 l 1,4,-1
 231 401 l 2,5,6
 208 340 208 340 250 340 c 2,7,-1
 373 340 l 1,8,-1
 369 -2 l 1,9,-1
 0 -2 l 1,10,-1
 8 344 l 1,11,-1
 84 344 l 2,12,13
 127 344 127 344 143 379 c 1,14,15
 159 406 159 406 283.5 758 c 128,-1,16
 408 1110 408 1110 420.5 1147 c 128,-1,17
 433 1184 433 1184 430.5 1194 c 128,-1,18
 428 1204 428 1204 414 1204 c 2,19,-1
 289 1204 l 1,20,-1
 287 1536 l 1,21,-1
 480 1537 l 1,22,-1
 630 1537 l 1,23,-1
 978 1536 l 1,24,-1
 1155 1536 l 1,25,-1
 1149 1024 l 1,26,-1
 1075 1022 l 1,27,-1
 1076 1029 l 1,28,-1
 1077 1114 l 2,29,30
 1077 1195 1077 1195 954 1208 c 0,31,32
 916 1212 916 1212 863.5 1212 c 128,-1,33
 811 1212 811 1212 779.5 1204 c 128,-1,34
 748 1196 748 1196 733 1185 c 0,35,36
 713 1170 713 1170 713 1137 c 2,37,-1
 713 827 l 1,38,-1
 856 827 l 2,39,40
 873 827 873 827 888 839.5 c 128,-1,41
 903 852 903 852 904.5 875.5 c 128,-1,42
 906 899 906 899 906 923 c 2,43,-1
 906 969 l 2,44,45
 906 995 906 995 905 1022 c 1,46,-1
 979 1026 l 1,47,-1
 985 526 l 1,48,-1
 913 526 l 1,49,-1
 913 593 l 1,50,51
 912 621 912 621 911 650 c 0,52,53
 909 710 909 710 897.5 726 c 128,-1,54
 886 742 886 742 876 748 c 0,55,56
 859 758 859 758 845 758 c 0,57,58
 812 758 812 758 777 756.5 c 128,-1,59
 742 755 742 755 713 754 c 1,60,61
 712 682 712 682 712 619 c 2,62,-1
 711 510 l 1,63,-1
 711 428 l 2,64,65
 711 382 711 382 730 364 c 0,66,67
 757 340 757 340 782 340 c 2,68,-1
 1053 340 l 2,69,70
 1124 340 1124 340 1124 428 c 1,71,-1
 1123 509 l 2,72,73
 1122 531 1122 531 1122 553 c 1,74,-1
 1196 555 l 1,75,-1
 1184 -6 l 1,76,77
 1011 4 1011 4 947 4 c 2,78,-1
 852 4 l 1,79,-1
 803 4 l 1,80,-1
 616 2 l 2,81,82
 543 1 543 1 465 0 c 1,83,-1
 465 344 l 1,84,-1
 596 344 l 2,0,1
639 1155 m 2,85,86
 639 1210 639 1210 586 1210 c 0,87,88
 521 1210 521 1210 508 1178 c 0,89,90
 505 1170 505 1170 504 1167 c 2,91,-1
 371 791 l 1,92,-1
 639 793 l 1,93,-1
 639 1155 l 2,85,86
EndSplineSet
EndChar

StartChar: Ccedilla
Encoding: 199 199 137
Width: 795
Flags: W
LayerCount: 2
Fore
SplineSet
76 330 m 1,0,-1
 72 1168 l 1,1,-1
 72 1270 l 2,2,3
 72 1458 72 1458 234 1517 c 0,4,5
 287 1536 287 1536 348 1536 c 2,6,-1
 453 1536 l 2,7,8
 544 1536 544 1536 605 1484 c 0,9,10
 639 1454 639 1454 655 1423 c 1,11,-1
 651 1532 l 1,12,-1
 729 1532 l 1,13,-1
 725 948 l 1,14,-1
 655 944 l 1,15,-1
 655 1059 l 2,16,17
 655 1124 655 1124 617 1162 c 128,-1,18
 579 1200 579 1200 508 1200 c 2,19,-1
 307 1202 l 1,20,21
 196 1202 196 1202 158 1113 c 0,22,23
 145 1084 145 1084 145 1047 c 2,24,-1
 150 492 l 1,25,26
 150 366 150 366 238 347 c 0,27,28
 262 342 262 342 285 342 c 2,29,-1
 522 342 l 2,30,31
 585 342 585 342 620 373.5 c 128,-1,32
 655 405 655 405 655 453 c 2,33,-1
 656 526 l 2,34,35
 656 563 656 563 651 643 c 1,36,-1
 723 649 l 1,37,38
 723 597 723 597 724 536 c 2,39,-1
 725 276 l 2,40,41
 725 69 725 69 604 18 c 0,42,43
 566 2 566 2 520 2 c 2,44,-1
 450 1 l 1,45,-1
 416 0 l 1,46,-1
 416 -121 l 1,47,48
 448 -117 448 -117 477 -117 c 128,-1,49
 506 -117 506 -117 538.5 -126.5 c 128,-1,50
 571 -136 571 -136 596 -155 c 0,51,52
 655 -199 655 -199 655 -255.5 c 128,-1,53
 655 -312 655 -312 640.5 -349.5 c 128,-1,54
 626 -387 626 -387 596 -414 c 1,55,56
 534 -473 534 -473 402.5 -473 c 128,-1,57
 271 -473 271 -473 141 -416 c 1,58,-1
 143 -328 l 1,59,60
 292 -391 292 -391 395 -391 c 0,61,62
 573 -391 573 -391 573 -281 c 0,63,64
 573 -202 573 -202 476 -196 c 0,65,66
 450 -195 450 -195 431 -195 c 128,-1,67
 412 -195 412 -195 336 -203 c 1,68,-1
 334 0 l 1,69,-1
 301 0 l 2,70,71
 76 0 76 0 76 256 c 2,72,-1
 76 330 l 1,0,-1
EndSplineSet
EndChar

StartChar: Eth
Encoding: 208 208 146
Width: 831
Flags: W
LayerCount: 2
Fore
SplineSet
221.5 385.5 m 128,-1,1
 223 405 223 405 223 469.5 c 128,-1,2
 223 534 223 534 219 762 c 1,3,-1
 70 762 l 1,4,-1
 68 834 l 1,5,-1
 219 834 l 1,6,-1
 219 1090 l 2,7,8
 219 1148 219 1148 199.5 1172 c 128,-1,9
 180 1196 180 1196 133 1196 c 2,10,-1
 51 1196 l 1,11,-1
 51 1534 l 1,12,13
 130 1534 130 1534 212 1535 c 2,14,-1
 520 1536 l 2,15,16
 721 1536 721 1536 750 1396 c 0,17,18
 760 1351 760 1351 760 1296 c 2,19,-1
 760 256 l 2,20,21
 760 31 760 31 623 7 c 0,22,23
 583 0 583 0 539 0 c 2,24,-1
 61 0 l 1,25,-1
 61 332 l 1,26,-1
 168 332 l 2,27,28
 204 332 204 332 212 349 c 128,-1,0
 220 366 220 366 221.5 385.5 c 128,-1,1
296 510 m 1,29,-1
 297 379 l 2,30,31
 297 335 297 335 330 330 c 0,32,33
 339 328 339 328 348 328 c 2,34,-1
 612 328 l 2,35,36
 679 328 679 328 684 382 c 0,37,38
 686 398 686 398 686 416 c 2,39,-1
 686 1120 l 2,40,41
 686 1199 686 1199 628 1208 c 0,42,43
 611 1210 611 1210 590 1210 c 2,44,-1
 352 1210 l 2,45,46
 315 1210 315 1210 304 1186.5 c 128,-1,47
 293 1163 293 1163 293 1130 c 2,48,-1
 293 1041 l 2,49,50
 293 952 293 952 295 834 c 1,51,-1
 498 834 l 1,52,-1
 498 762 l 1,53,-1
 295 762 l 1,54,-1
 296 510 l 1,29,-1
EndSplineSet
EndChar

StartChar: multiply
Encoding: 215 215 153
Width: 717
Flags: W
LayerCount: 2
Fore
SplineSet
115 932 m 1,0,-1
 356 694 l 1,1,-1
 578 918 l 1,2,-1
 633 868 l 1,3,-1
 408 641 l 1,4,-1
 647 399 l 1,5,-1
 598 344 l 1,6,-1
 354 588 l 1,7,-1
 133 362 l 1,8,-1
 82 418 l 1,9,-1
 303 641 l 1,10,-1
 68 879 l 1,11,-1
 115 932 l 1,0,-1
EndSplineSet
EndChar

StartChar: Oslash
Encoding: 216 216 154
Width: 805
Flags: W
LayerCount: 2
Fore
SplineSet
504 4 m 2,0,-1
 262 0 l 2,1,2
 214 0 214 0 180 18 c 1,3,-1
 104 -203 l 1,4,-1
 33 -180 l 1,5,-1
 119 74 l 1,6,7
 76 138 76 138 76 219 c 2,8,-1
 76 284 l 1,9,-1
 72 1248 l 1,10,-1
 72 1329 l 2,11,12
 72 1421 72 1421 130 1480 c 1,13,14
 185 1534 185 1534 254 1534 c 128,-1,15
 323 1534 323 1534 360.5 1534.5 c 128,-1,16
 398 1535 398 1535 421 1535 c 2,17,-1
 500 1536 l 1,18,-1
 524 1536 l 2,19,20
 576 1536 576 1536 614 1509 c 1,21,-1
 678 1690 l 1,22,-1
 750 1665 l 1,23,-1
 676 1450 l 1,24,25
 723 1376 723 1376 723 1294 c 2,26,-1
 728 443 l 1,27,-1
 729 229 l 2,28,29
 729 72 729 72 594 20 c 0,30,31
 553 4 553 4 504 4 c 2,0,-1
319 338 m 1,32,-1
 530 342 l 1,33,34
 611 342 611 342 639 418 c 0,35,36
 649 446 649 446 649 487 c 2,37,-1
 649 1044 l 2,38,39
 649 1138 649 1138 580 1174 c 1,40,-1
 291 338 l 1,41,-1
 319 338 l 1,32,-1
147 970 m 1,42,-1
 150 572 l 1,43,-1
 150 496 l 2,44,45
 150 398 150 398 219 360 c 1,46,-1
 504 1190 l 1,47,-1
 307 1190 l 2,48,49
 193 1190 193 1190 159 1101 c 0,50,51
 147 1070 147 1070 147 1039 c 2,52,-1
 147 970 l 1,42,-1
EndSplineSet
EndChar

StartChar: Thorn
Encoding: 222 222 160
Width: 811
Flags: W
LayerCount: 2
Fore
SplineSet
219 365 m 2,0,-1
 225 989 l 1,1,-1
 225 1155 l 2,2,3
 225 1198 225 1198 186 1198 c 2,4,-1
 70 1198 l 1,5,6
 70 1474 70 1474 76 1528 c 1,7,8
 114 1530 114 1530 150 1532 c 0,9,10
 222 1536 222 1536 295 1536 c 0,11,12
 360 1536 360 1536 496 1532 c 1,13,-1
 477 1204 l 1,14,-1
 356 1204 l 2,15,16
 317 1204 317 1204 310 1197 c 0,17,18
 299 1187 299 1187 298 1158.5 c 128,-1,19
 297 1130 297 1130 300.5 1115 c 128,-1,20
 304 1100 304 1100 326 1100 c 2,21,-1
 451 1100 l 2,22,23
 548 1100 548 1100 638 1054 c 0,24,25
 721 1012 721 1012 760 922 c 1,26,27
 780 873 780 873 780 804.5 c 128,-1,28
 780 736 780 736 761.5 687.5 c 128,-1,29
 743 639 743 639 714 606.5 c 128,-1,30
 685 574 685 574 650 554.5 c 128,-1,31
 615 535 615 535 582 526 c 0,32,33
 529 510 529 510 487 510 c 2,34,-1
 319 510 l 2,35,36
 307 510 307 510 306 504.5 c 128,-1,37
 305 499 305 499 305 494 c 2,38,-1
 304 432 l 1,39,-1
 303 362 l 2,40,41
 303 350 303 350 308.5 348 c 128,-1,42
 314 346 314 346 324 346 c 2,43,-1
 477 346 l 1,44,-1
 483 0 l 1,45,-1
 51 0 l 1,46,-1
 59 344 l 1,47,48
 97 344 97 344 128 345 c 2,49,-1
 203 346 l 2,50,51
 219 346 219 346 219 365 c 2,0,-1
299 618 m 0,52,53
 299 586 299 586 340 586 c 2,54,-1
 475 586 l 2,55,56
 590 586 590 586 646 691 c 0,57,58
 670 736 670 736 670 795.5 c 128,-1,59
 670 855 670 855 656.5 887.5 c 128,-1,60
 643 920 643 920 621.5 942.5 c 128,-1,61
 600 965 600 965 573.5 979 c 128,-1,62
 547 993 547 993 521 1001 c 0,63,64
 479 1014 479 1014 438 1014 c 2,65,-1
 344 1014 l 2,66,67
 315 1014 315 1014 310 1006.5 c 128,-1,68
 305 999 305 999 305 979 c 2,69,-1
 304 955 l 2,70,71
 304 931 304 931 303.5 893.5 c 128,-1,72
 303 856 303 856 302 811.5 c 128,-1,73
 301 767 301 767 300.5 726.5 c 128,-1,74
 300 686 300 686 299.5 656 c 128,-1,75
 299 626 299 626 299 618 c 0,52,53
EndSplineSet
EndChar

StartChar: germandbls
Encoding: 223 223 161
Width: 823
Flags: W
LayerCount: 2
Fore
SplineSet
186 324 m 0,0,1
 186 503 186 503 174 1339 c 1,2,3
 174 1477 174 1477 321 1522 c 0,4,5
 369 1536 369 1536 428 1536 c 128,-1,6
 487 1536 487 1536 538.5 1522.5 c 128,-1,7
 590 1509 590 1509 630 1470 c 0,8,9
 719 1382 719 1382 719 1169 c 0,10,11
 719 1024 719 1024 668 924 c 0,12,13
 633 854 633 854 586 823 c 1,14,-1
 586 815 l 1,15,16
 762 756 762 756 762 467 c 0,17,18
 762 114 762 114 624 24 c 0,19,20
 586 0 586 0 551.5 0 c 128,-1,21
 517 0 517 0 365 -4 c 1,22,-1
 358 297 l 1,23,-1
 559 297 l 1,24,25
 623 299 623 299 647 332 c 0,26,27
 692 392 692 392 692 537 c 0,28,29
 692 659 692 659 632 720 c 0,30,31
 585 768 585 768 524 768 c 2,32,-1
 350 768 l 1,33,-1
 348 840 l 1,34,-1
 481 840 l 2,35,36
 539 840 539 840 582 892 c 0,37,38
 629 950 629 950 629 1043.5 c 128,-1,39
 629 1137 629 1137 582.5 1183 c 128,-1,40
 536 1229 536 1229 430 1229 c 0,41,42
 297 1229 297 1229 262 1160 c 0,43,44
 252 1142 252 1142 252 1124 c 2,45,-1
 251 1058 l 1,46,47
 251 632 251 632 264 2 c 1,48,-1
 45 -2 l 1,49,-1
 41 295 l 1,50,-1
 162 295 l 2,51,52
 186 295 186 295 186 324 c 0,0,1
EndSplineSet
EndChar

StartChar: ae
Encoding: 230 230 168
Width: 1276
Flags: W
LayerCount: 2
Fore
SplineSet
643 911 m 1,0,1
 718 1040 718 1040 934 1040 c 0,2,3
 1187 1040 1187 1040 1218 858 c 0,4,5
 1224 827 1224 827 1223.5 799.5 c 128,-1,6
 1223 772 1223 772 1223 753 c 128,-1,7
 1223 734 1223 734 1214 514 c 1,8,-1
 678 502 l 1,9,-1
 678 430 l 2,10,11
 678 281 678 281 932 281 c 0,12,13
 1037 281 1037 281 1091 303 c 128,-1,14
 1145 325 1145 325 1145 360 c 2,15,-1
 1145 422 l 1,16,-1
 1212 430 l 1,17,18
 1204 282 1204 282 1204 197 c 128,-1,19
 1204 112 1204 112 1175.5 72.5 c 128,-1,20
 1147 33 1147 33 1100 13 c 0,21,22
 1028 -18 1028 -18 879 -18 c 0,23,24
 658 -18 658 -18 614 150 c 1,25,26
 532 -10 532 -10 322 -10 c 0,27,28
 61 -10 61 -10 61 274 c 0,29,30
 61 433 61 433 139 506 c 0,31,32
 195 559 195 559 281 559 c 2,33,-1
 545 559 l 2,34,35
 576 559 576 559 587 574 c 0,36,37
 604 595 604 595 604 616 c 2,38,-1
 604 645 l 2,39,40
 604 745 604 745 384 745 c 128,-1,41
 164 745 164 745 164 645 c 2,42,-1
 164 610 l 1,43,-1
 94 606 l 1,44,-1
 100 1038 l 1,45,-1
 168 1036 l 1,46,-1
 168 928 l 1,47,48
 217 985 217 985 293.5 1008.5 c 128,-1,49
 370 1032 370 1032 442 1032 c 0,50,51
 599 1032 599 1032 643 911 c 1,0,1
170 383 m 0,52,53
 170 276 170 276 354 276 c 0,54,55
 549 276 549 276 592 377 c 0,56,57
 604 407 604 407 604 436 c 0,58,59
 604 496 604 496 559 496 c 2,60,-1
 466 495 l 1,61,-1
 289 494 l 2,62,63
 204 494 204 494 178 423 c 0,64,65
 170 403 170 403 170 383 c 0,52,53
1148 596 m 2,66,-1
 1149 653 l 1,67,68
 1149 750 1149 750 934 750 c 0,69,70
 796 750 796 750 730 696 c 1,71,72
 678 652 678 652 678 575 c 1,73,74
 725 576 725 576 768 577 c 128,-1,75
 811 578 811 578 855 578.5 c 128,-1,76
 899 579 899 579 931.5 580 c 128,-1,77
 964 581 964 581 1001.5 581.5 c 128,-1,78
 1039 582 1039 582 1074 583 c 128,-1,79
 1109 584 1109 584 1147 584 c 1,80,81
 1147 587 1147 587 1148 596 c 2,66,-1
EndSplineSet
EndChar

StartChar: ccedilla
Encoding: 231 231 169
Width: 725
Flags: W
LayerCount: 2
Fore
SplineSet
68 215 m 2,0,-1
 61 799 l 1,1,2
 61 921 61 921 148 984 c 0,3,4
 227 1040 227 1040 373.5 1040 c 128,-1,5
 520 1040 520 1040 596 934 c 1,6,-1
 596 1038 l 1,7,-1
 664 1038 l 1,8,-1
 655 573 l 1,9,-1
 588 573 l 1,10,-1
 588 653 l 2,11,12
 588 742 588 742 422 750 c 0,13,14
 382 752 382 752 338.5 752 c 128,-1,15
 295 752 295 752 253.5 744.5 c 128,-1,16
 212 737 212 737 186 719 c 0,17,18
 135 684 135 684 135 594 c 2,19,-1
 134 500 l 1,20,-1
 133 385 l 2,21,22
 133 314 133 314 178 286 c 1,23,24
 229 252 229 252 365 252 c 0,25,26
 580 252 580 252 586 354 c 1,27,-1
 588 434 l 1,28,-1
 657 436 l 1,29,30
 656 399 656 399 655 364 c 0,31,32
 653 296 653 296 653 218.5 c 128,-1,33
 653 141 653 141 632.5 94.5 c 128,-1,34
 612 48 612 48 576 24 c 0,35,36
 521 -12 521 -12 381 -14 c 1,37,-1
 381 -121 l 1,38,39
 413 -117 413 -117 442 -117 c 128,-1,40
 471 -117 471 -117 503.5 -126.5 c 128,-1,41
 536 -136 536 -136 562 -155 c 0,42,43
 621 -198 621 -198 621 -255 c 128,-1,44
 621 -312 621 -312 606.5 -349.5 c 128,-1,45
 592 -387 592 -387 562 -414 c 0,46,47
 498 -473 498 -473 367 -473 c 128,-1,48
 236 -473 236 -473 106 -416 c 1,49,-1
 109 -328 l 1,50,51
 258 -391 258 -391 356.5 -391 c 128,-1,52
 455 -391 455 -391 497 -359.5 c 128,-1,53
 539 -328 539 -328 539 -288.5 c 128,-1,54
 539 -249 539 -249 524.5 -231.5 c 128,-1,55
 510 -214 510 -214 488 -206 c 0,56,57
 459 -195 459 -195 418 -195 c 128,-1,58
 377 -195 377 -195 301 -203 c 1,59,-1
 299 -12 l 1,60,61
 104 -1 104 -1 76 126 c 0,62,63
 68 166 68 166 68 215 c 2,0,-1
EndSplineSet
EndChar

StartChar: eth
Encoding: 240 240 178
Width: 721
Flags: W
LayerCount: 2
Fore
SplineSet
63 348 m 1,0,-1
 65 553 l 2,1,2
 66 630 66 630 67 687 c 128,-1,3
 68 744 68 744 68 778.5 c 128,-1,4
 68 813 68 813 75 845 c 128,-1,5
 82 877 82 877 98.5 905 c 128,-1,6
 115 933 115 933 148 954 c 0,7,8
 219 999 219 999 365 999 c 0,9,10
 512 999 512 999 580 952 c 1,11,12
 565 1174 565 1174 481 1278 c 1,13,14
 427 1238 427 1238 274 1110 c 1,15,-1
 223 1167 l 1,16,-1
 430 1329 l 1,17,18
 294 1419 294 1419 168 1444 c 1,19,-1
 201 1518 l 1,20,21
 366 1466 366 1466 485 1370 c 1,22,-1
 662 1511 l 1,23,-1
 702 1450 l 1,24,-1
 535 1321 l 1,25,26
 643 1192 643 1192 654 936 c 0,27,28
 657 864 657 864 657 793 c 2,29,-1
 657 291 l 2,30,31
 657 170 657 170 632.5 122.5 c 128,-1,32
 608 75 608 75 576 50 c 0,33,34
 502 -8 502 -8 365 -8 c 0,35,36
 159 -8 159 -8 99 89 c 0,37,38
 66 142 66 142 64.5 199 c 128,-1,39
 63 256 63 256 63 286 c 2,40,-1
 63 348 l 1,0,-1
135 575 m 2,41,-1
 135 412 l 2,42,43
 135 339 135 339 181 312 c 0,44,45
 231 283 231 283 332 283 c 128,-1,46
 433 283 433 283 476 291 c 128,-1,47
 519 299 519 299 544 314 c 0,48,49
 586 340 586 340 586 403 c 2,50,-1
 586 575 l 2,51,52
 586 647 586 647 541 678 c 0,53,54
 492 711 492 711 393 711 c 0,55,56
 227 711 227 711 181 682 c 128,-1,57
 135 653 135 653 135 575 c 2,41,-1
EndSplineSet
EndChar

StartChar: divide
Encoding: 247 247 185
Width: 717
Flags: W
LayerCount: 2
Fore
SplineSet
629 680 m 1,0,-1
 633 608 l 1,1,-1
 86 602 l 1,2,-1
 88 678 l 1,3,-1
 629 680 l 1,0,-1
280.5 411 m 128,-1,5
 276 425 276 425 276 438 c 128,-1,6
 276 451 276 451 279.5 464.5 c 128,-1,7
 283 478 283 478 292 490 c 0,8,9
 315 518 315 518 349.5 518 c 128,-1,10
 384 518 384 518 399.5 510.5 c 128,-1,11
 415 503 415 503 425 492 c 0,12,13
 444 470 444 470 444 448.5 c 128,-1,14
 444 427 444 427 440 413 c 128,-1,15
 436 399 436 399 426 387 c 0,16,17
 404 360 404 360 370.5 360 c 128,-1,18
 337 360 337 360 321 367 c 128,-1,19
 305 374 305 374 295 385.5 c 128,-1,4
 285 397 285 397 280.5 411 c 128,-1,5
283.5 819 m 128,-1,21
 279 833 279 833 279 846 c 128,-1,22
 279 859 279 859 282.5 872.5 c 128,-1,23
 286 886 286 886 295 898 c 0,24,25
 316 926 316 926 351 926 c 128,-1,26
 386 926 386 926 401.5 918.5 c 128,-1,27
 417 911 417 911 427 900 c 0,28,29
 446 878 446 878 446 856.5 c 128,-1,30
 446 835 446 835 442 821 c 128,-1,31
 438 807 438 807 428 795 c 0,32,33
 406 768 406 768 372.5 768 c 128,-1,34
 339 768 339 768 323 775 c 128,-1,35
 307 782 307 782 297.5 793.5 c 128,-1,20
 288 805 288 805 283.5 819 c 128,-1,21
EndSplineSet
EndChar

StartChar: oslash
Encoding: 248 248 186
Width: 721
Flags: W
LayerCount: 2
Fore
SplineSet
492 4 m 128,-1,1
 441 -12 441 -12 365.5 -12 c 128,-1,2
 290 -12 290 -12 225 2 c 1,3,-1
 145 -225 l 1,4,-1
 74 -203 l 1,5,-1
 156 31 l 1,6,7
 68 83 68 83 64 214 c 0,8,9
 63 251 63 251 63 282 c 2,10,-1
 63 346 l 1,11,-1
 65 568 l 2,12,13
 66 653 66 653 67 715.5 c 128,-1,14
 68 778 68 778 68 812.5 c 128,-1,15
 68 847 68 847 75 879.5 c 128,-1,16
 82 912 82 912 98.5 940 c 128,-1,17
 115 968 115 968 148 989 c 0,18,19
 219 1034 219 1034 365 1034 c 0,20,21
 437 1034 437 1034 498 1020 c 1,22,-1
 571 1229 l 1,23,-1
 643 1204 l 1,24,-1
 569 993 l 1,25,26
 657 943 657 943 657 818 c 2,27,-1
 657 287 l 2,28,29
 657 166 657 166 632.5 118.5 c 128,-1,30
 608 71 608 71 575.5 45.5 c 128,-1,0
 543 20 543 20 492 4 c 128,-1,1
385 745 m 2,31,-1
 335 745 l 2,32,33
 228 745 228 745 191 722.5 c 128,-1,34
 154 700 154 700 144.5 674 c 128,-1,35
 135 648 135 648 135 610 c 2,36,-1
 135 408 l 2,37,38
 135 355 135 355 158 326.5 c 128,-1,39
 181 298 181 298 244 287 c 1,40,-1
 403 743 l 1,41,42
 394 745 394 745 385 745 c 2,31,-1
586 610 m 2,43,44
 586 661 586 661 563 691 c 128,-1,45
 540 721 540 721 479 735 c 1,46,-1
 322 279 l 1,47,-1
 365 279 l 2,48,49
 550 279 550 279 577 348 c 0,50,51
 586 370 586 370 586 399 c 2,52,-1
 586 610 l 2,43,44
EndSplineSet
EndChar

StartChar: thorn
Encoding: 254 254 192
Width: 831
Flags: W
LayerCount: 2
Fore
SplineSet
172 1206 m 2,0,1
 172 1231 172 1231 152 1231 c 2,2,-1
 18 1231 l 1,3,-1
 23 1532 l 1,4,-1
 254 1536 l 1,5,-1
 246 874 l 1,6,7
 322 994 322 994 448 1025 c 0,8,9
 476 1032 476 1032 523 1032 c 128,-1,10
 570 1032 570 1032 619 1013 c 128,-1,11
 668 994 668 994 702 962 c 0,12,13
 770 898 770 898 770 807 c 1,14,-1
 762 240 l 1,15,16
 762 67 762 67 606 9 c 0,17,18
 554 -10 554 -10 484 -10 c 128,-1,19
 414 -10 414 -10 366.5 13 c 128,-1,20
 319 36 319 36 289 64 c 0,21,22
 256 96 256 96 229 150 c 1,23,-1
 226 -52 l 1,24,-1
 225 -133 l 2,25,26
 225 -170 225 -170 260 -170 c 2,27,-1
 354 -170 l 1,28,-1
 346 -469 l 1,29,-1
 27 -465 l 1,30,-1
 27 -168 l 1,31,32
 52 -169 52 -169 70.5 -169.5 c 128,-1,33
 89 -170 89 -170 106 -170 c 2,34,-1
 127 -170 l 2,35,36
 152 -170 152 -170 152 -147 c 2,37,-1
 172 1206 l 2,0,1
690 418 m 1,38,-1
 694 621 l 1,39,40
 694 684 694 684 638 724 c 0,41,42
 583 764 583 764 499.5 764 c 128,-1,43
 416 764 416 764 367 744 c 128,-1,44
 318 724 318 724 288 696 c 0,45,46
 233 643 233 643 233 582 c 2,47,-1
 233 403 l 2,48,49
 233 312 233 312 355 278 c 0,50,51
 400 266 400 266 458 266 c 128,-1,52
 516 266 516 266 557 280 c 128,-1,53
 598 294 598 294 628 316 c 0,54,55
 690 363 690 363 690 418 c 1,38,-1
EndSplineSet
EndChar

StartChar: Aogonek
Encoding: 260 260 198
Width: 872
Flags: W
LayerCount: 2
Fore
SplineSet
694 -365 m 0,0,1
 803 -365 803 -365 895 -287 c 1,2,-1
 897 -381 l 1,3,4
 818 -446 818 -446 703.5 -446 c 128,-1,5
 589 -446 589 -446 533 -398 c 128,-1,6
 477 -350 477 -350 477 -266 c 0,7,8
 477 -151 477 -151 638 -51 c 0,9,10
 684 -22 684 -22 735 0 c 1,11,-1
 489 4 l 1,12,-1
 485 338 l 1,13,-1
 606 338 l 2,14,15
 631 338 631 338 643 357.5 c 128,-1,16
 655 377 655 377 653.5 387.5 c 128,-1,17
 652 398 652 398 647.5 425.5 c 128,-1,18
 643 453 643 453 635.5 497.5 c 128,-1,19
 628 542 628 542 618.5 599.5 c 128,-1,20
 609 657 609 657 598 719 c 1,21,-1
 317 719 l 1,22,-1
 250 393 l 2,23,24
 242 359 242 359 246 345.5 c 128,-1,25
 250 332 250 332 268 332 c 2,26,-1
 383 332 l 1,27,-1
 379 -2 l 1,28,-1
 10 -2 l 1,29,-1
 18 336 l 1,30,-1
 102 336 l 2,31,32
 154 336 154 336 162 371 c 0,33,34
 167 391 167 391 185 473.5 c 128,-1,35
 203 556 203 556 218.5 625.5 c 128,-1,36
 234 695 234 695 250 767.5 c 128,-1,37
 266 840 266 840 281.5 910 c 128,-1,38
 297 980 297 980 309.5 1036.5 c 128,-1,39
 322 1093 322 1093 330 1130.5 c 128,-1,40
 338 1168 338 1168 340 1179 c 0,41,42
 345 1200 345 1200 319 1200 c 2,43,-1
 199 1200 l 1,44,-1
 195 1536 l 1,45,-1
 748 1532 l 1,46,-1
 750 1206 l 1,47,48
 610 1202 610 1202 608 1202 c 0,49,50
 593 1202 593 1202 596 1184 c 0,51,52
 596 1179 596 1179 596 1176.5 c 128,-1,53
 596 1174 596 1174 602 1140 c 128,-1,54
 608 1106 608 1106 617.5 1051 c 128,-1,55
 627 996 627 996 639.5 926 c 128,-1,56
 652 856 652 856 665 783 c 128,-1,57
 678 710 678 710 691 639 c 128,-1,58
 704 568 704 568 714 512 c 0,59,60
 740 366 740 366 747 351 c 128,-1,61
 754 336 754 336 774 336 c 2,62,-1
 852 336 l 1,63,-1
 856 -4 l 1,64,65
 559 -116 559 -116 559 -260 c 0,66,67
 559 -333 559 -333 630 -356 c 0,68,69
 656 -365 656 -365 694 -365 c 0,0,1
332 791 m 1,70,-1
 586 793 l 1,71,72
 573 867 573 867 562 937 c 0,73,74
 521 1182 521 1182 514.5 1192 c 128,-1,75
 508 1202 508 1202 496 1202 c 2,76,-1
 436 1202 l 2,77,78
 418 1202 418 1202 414 1182 c 2,79,-1
 332 791 l 1,70,-1
EndSplineSet
EndChar

StartChar: aogonek
Encoding: 261 261 199
Width: 842
Flags: W
LayerCount: 2
Fore
SplineSet
604 645 m 2,0,1
 604 745 604 745 384 745 c 128,-1,2
 164 745 164 745 164 645 c 2,3,-1
 164 610 l 1,4,-1
 94 606 l 1,5,-1
 100 1038 l 1,6,-1
 168 1036 l 1,7,-1
 168 928 l 1,8,9
 217 985 217 985 293.5 1008.5 c 128,-1,10
 370 1032 370 1032 440.5 1032 c 128,-1,11
 511 1032 511 1032 556.5 1011 c 128,-1,12
 602 990 602 990 628 960 c 0,13,14
 676 905 676 905 676 838 c 2,15,-1
 677 691 l 1,16,-1
 679 467 l 1,17,-1
 680 340 l 2,18,19
 680 299 680 299 713 299 c 2,20,-1
 799 299 l 1,21,-1
 797 0 l 1,22,23
 608 -67 608 -67 543 -185 c 0,24,25
 522 -223 522 -223 522 -252 c 128,-1,26
 522 -281 522 -281 529 -300.5 c 128,-1,27
 536 -320 536 -320 552 -334 c 0,28,29
 587 -365 587 -365 657 -365 c 0,30,31
 766 -365 766 -365 858 -287 c 1,32,-1
 860 -381 l 1,33,34
 781 -446 781 -446 666.5 -446 c 128,-1,35
 552 -446 552 -446 496 -398 c 128,-1,36
 440 -350 440 -350 440 -266 c 0,37,38
 440 -187 440 -187 510 -110 c 0,39,40
 573 -41 573 -41 670 -2 c 1,41,-1
 578 -2 l 1,42,-1
 578 133 l 1,43,44
 557 84 557 84 508 52 c 0,45,46
 415 -10 415 -10 322 -10 c 0,47,48
 61 -10 61 -10 61 274 c 0,49,50
 61 420 61 420 139 496 c 0,51,52
 198 553 198 553 281 553 c 2,53,-1
 545 553 l 2,54,55
 576 553 576 553 587 568 c 0,56,57
 604 589 604 589 604 610 c 2,58,-1
 604 645 l 2,0,1
354 276 m 0,59,60
 604 276 604 276 604 444 c 0,61,62
 604 461 604 461 595 475 c 128,-1,63
 586 489 586 489 573 489 c 2,64,-1
 472 488 l 1,65,-1
 289 487 l 2,66,67
 204 487 204 487 178 422 c 0,68,69
 170 403 170 403 170 383 c 0,70,71
 170 276 170 276 354 276 c 0,59,60
EndSplineSet
EndChar

StartChar: Dcroat
Encoding: 272 272 210
Width: 831
Flags: W
LayerCount: 2
Fore
SplineSet
221.5 385.5 m 128,-1,1
 223 405 223 405 223 469.5 c 128,-1,2
 223 534 223 534 219 762 c 1,3,-1
 70 762 l 1,4,-1
 68 834 l 1,5,-1
 219 834 l 1,6,-1
 219 1090 l 2,7,8
 219 1148 219 1148 199.5 1172 c 128,-1,9
 180 1196 180 1196 133 1196 c 2,10,-1
 51 1196 l 1,11,-1
 51 1534 l 1,12,13
 130 1534 130 1534 212 1535 c 2,14,-1
 520 1536 l 2,15,16
 721 1536 721 1536 750 1396 c 0,17,18
 760 1351 760 1351 760 1296 c 2,19,-1
 760 256 l 2,20,21
 760 31 760 31 623 7 c 0,22,23
 583 0 583 0 539 0 c 2,24,-1
 61 0 l 1,25,-1
 61 332 l 1,26,-1
 168 332 l 2,27,28
 204 332 204 332 212 349 c 128,-1,0
 220 366 220 366 221.5 385.5 c 128,-1,1
296 510 m 1,29,-1
 297 379 l 2,30,31
 297 335 297 335 330 330 c 0,32,33
 339 328 339 328 348 328 c 2,34,-1
 612 328 l 2,35,36
 679 328 679 328 684 382 c 0,37,38
 686 398 686 398 686 416 c 2,39,-1
 686 1120 l 2,40,41
 686 1199 686 1199 628 1208 c 0,42,43
 611 1210 611 1210 590 1210 c 2,44,-1
 352 1210 l 2,45,46
 315 1210 315 1210 304 1186.5 c 128,-1,47
 293 1163 293 1163 293 1130 c 2,48,-1
 293 1041 l 2,49,50
 293 952 293 952 295 834 c 1,51,-1
 498 834 l 1,52,-1
 498 762 l 1,53,-1
 295 762 l 1,54,-1
 296 510 l 1,29,-1
EndSplineSet
EndChar

StartChar: dcroat
Encoding: 273 273 211
Width: 838
Flags: W
LayerCount: 2
Fore
SplineSet
662 360 m 2,0,1
 662 297 662 297 705 297 c 2,2,-1
 827 297 l 1,3,-1
 827 2 l 1,4,-1
 604 -2 l 1,5,-1
 604 143 l 1,6,7
 570 21 570 21 452 -6 c 0,8,9
 409 -16 409 -16 340.5 -16 c 128,-1,10
 272 -16 272 -16 217.5 2.5 c 128,-1,11
 163 21 163 21 128 55 c 0,12,13
 61 120 61 120 61 240 c 2,14,-1
 61 776 l 2,15,16
 61 1032 61 1032 342 1032 c 0,17,18
 451 1032 451 1032 519 973 c 0,19,20
 573 926 573 926 590 852 c 1,21,-1
 588 1110 l 1,22,-1
 381 1110 l 1,23,-1
 379 1182 l 1,24,-1
 588 1182 l 1,25,-1
 588 1202 l 1,26,27
 586 1262 586 1262 540 1262 c 2,28,-1
 422 1262 l 1,29,-1
 428 1534 l 1,30,-1
 666 1536 l 1,31,-1
 662 1200 l 1,32,-1
 662 1182 l 1,33,-1
 809 1182 l 1,34,-1
 809 1110 l 1,35,-1
 662 1110 l 1,36,-1
 662 360 l 2,0,1
133 596 m 2,37,-1
 133 393 l 2,38,39
 133 326 133 326 176 293 c 0,40,41
 228 252 228 252 325.5 252 c 128,-1,42
 423 252 423 252 468.5 262 c 128,-1,43
 514 272 514 272 541 291 c 0,44,45
 590 325 590 325 590 401 c 2,46,-1
 590 596 l 2,47,48
 590 677 590 677 542 712 c 0,49,50
 487 752 487 752 388 752 c 0,51,52
 231 752 231 752 182 712 c 128,-1,53
 133 672 133 672 133 596 c 2,37,-1
EndSplineSet
EndChar

StartChar: Eogonek
Encoding: 280 280 218
Width: 842
Flags: W
LayerCount: 2
Fore
SplineSet
180 344 m 2,0,1
 223 344 223 344 223 422 c 2,2,-1
 223 1116 l 2,3,4
 223 1185 223 1185 182 1197 c 0,5,6
 157 1204 157 1204 92 1204 c 2,7,-1
 35 1204 l 1,8,-1
 35 1532 l 1,9,10
 125 1533 125 1533 207 1534 c 2,11,-1
 411 1536 l 1,12,-1
 739 1536 l 1,13,-1
 733 1024 l 1,14,-1
 659 1022 l 1,15,16
 662 1043 662 1043 662 1094 c 128,-1,17
 662 1145 662 1145 647 1164 c 128,-1,18
 632 1183 632 1183 605 1194 c 0,19,20
 557 1212 557 1212 476 1212 c 128,-1,21
 395 1212 395 1212 363.5 1204 c 128,-1,22
 332 1196 332 1196 317 1185 c 0,23,24
 297 1170 297 1170 297 1137 c 2,25,-1
 297 827 l 1,26,-1
 440 827 l 2,27,28
 457 827 457 827 472 839.5 c 128,-1,29
 487 852 487 852 488.5 875.5 c 128,-1,30
 490 899 490 899 490 923 c 2,31,32
 490 923 490 923 490 969 c 0,33,34
 490 995 490 995 489 1022 c 1,35,-1
 563 1026 l 1,36,-1
 569 526 l 1,37,-1
 498 526 l 1,38,-1
 498 593 l 1,39,40
 497 621 497 621 496 650 c 0,41,42
 494 710 494 710 482.5 726 c 128,-1,43
 471 742 471 742 460 748 c 0,44,45
 443 758 443 758 428 758 c 0,46,47
 396 758 396 758 361 756.5 c 128,-1,48
 326 755 326 755 297 754 c 1,49,50
 296 682 296 682 296 619 c 2,51,-1
 295 510 l 1,52,-1
 295 428 l 2,53,54
 295 381 295 381 314 364 c 0,55,56
 342 340 342 340 367 340 c 2,57,-1
 637 340 l 2,58,59
 709 340 709 340 709 428 c 1,60,-1
 708 509 l 2,61,62
 707 531 707 531 707 553 c 1,63,-1
 780 555 l 1,64,-1
 766 2 l 1,65,66
 637 2 637 2 536 -89 c 0,67,68
 442 -173 442 -173 442 -260 c 0,69,70
 442 -365 442 -365 578 -365 c 0,71,72
 686 -365 686 -365 778 -287 c 1,73,-1
 780 -381 l 1,74,75
 701 -446 701 -446 586.5 -446 c 128,-1,76
 472 -446 472 -446 416 -398 c 128,-1,77
 360 -350 360 -350 360 -266 c 0,78,79
 360 -173 360 -173 433 -94 c 0,80,81
 494 -28 494 -28 580 4 c 1,82,83
 484 4 484 4 387 4 c 1,84,-1
 200 2 l 2,85,86
 127 1 127 1 49 0 c 1,87,-1
 49 344 l 1,88,-1
 180 344 l 2,0,1
EndSplineSet
EndChar

StartChar: eogonek
Encoding: 281 281 219
Width: 733
Flags: W
LayerCount: 2
Fore
SplineSet
61 246 m 1,0,-1
 70 788 l 1,1,2
 70 922 70 922 174 987 c 0,3,4
 259 1040 259 1040 364.5 1040 c 128,-1,5
 470 1040 470 1040 522.5 1023.5 c 128,-1,6
 575 1007 575 1007 607 981 c 128,-1,7
 639 955 639 955 654.5 922.5 c 128,-1,8
 670 890 670 890 675.5 858.5 c 128,-1,9
 681 827 681 827 680.5 799.5 c 128,-1,10
 680 772 680 772 680 740 c 128,-1,11
 680 708 680 708 672 520 c 1,12,13
 672 520 672 520 137 508 c 1,14,-1
 137 430 l 2,15,16
 137 281 137 281 389 281 c 0,17,18
 494 281 494 281 548 303 c 128,-1,19
 602 325 602 325 602 360 c 2,20,-1
 602 422 l 1,21,-1
 670 430 l 1,22,23
 662 282 662 282 662 213.5 c 128,-1,24
 662 145 662 145 653.5 119 c 128,-1,25
 645 93 645 93 630 73 c 0,26,27
 604 37 604 37 557 11 c 128,-1,28
 510 -15 510 -15 469 -46 c 128,-1,29
 428 -77 428 -77 397 -112 c 0,30,31
 330 -186 330 -186 330 -260 c 0,32,33
 330 -333 330 -333 402 -356 c 0,34,35
 427 -365 427 -365 465 -365 c 0,36,37
 574 -365 574 -365 666 -287 c 1,38,-1
 668 -381 l 1,39,40
 589 -446 589 -446 474.5 -446 c 128,-1,41
 360 -446 360 -446 304 -398 c 128,-1,42
 248 -350 248 -350 248 -266 c 0,43,44
 248 -142 248 -142 403 -16 c 1,45,46
 386 -18 386 -18 370 -18 c 2,47,-1
 336 -18 l 2,48,49
 61 -18 61 -18 61 246 c 1,0,-1
605 599 m 2,50,-1
 606 653 l 1,51,52
 606 750 606 750 391 750 c 0,53,54
 135 750 135 750 135 582 c 1,55,-1
 604 590 l 1,56,57
 604 592 604 592 605 599 c 2,50,-1
EndSplineSet
EndChar

StartChar: gcommaaccent
Encoding: 291 291 229
Width: 821
Flags: W
LayerCount: 2
Fore
SplineSet
692 717 m 2,0,1
 668 717 668 717 668 690 c 2,2,-1
 668 -250 l 2,3,4
 668 -431 668 -431 480 -474 c 0,5,6
 432 -485 432 -485 367 -485 c 0,7,8
 153 -485 153 -485 96 -340 c 0,9,10
 80 -298 80 -298 80 -244 c 2,11,-1
 80 -59 l 1,12,-1
 147 -59 l 1,13,-1
 147 -104 l 2,14,15
 147 -202 147 -202 271 -218 c 0,16,17
 310 -223 310 -223 368 -223 c 128,-1,18
 426 -223 426 -223 471.5 -212.5 c 128,-1,19
 517 -202 517 -202 545 -182 c 0,20,21
 596 -144 596 -144 596 -57 c 2,22,-1
 596 143 l 1,23,24
 573 62 573 62 522 24 c 1,25,26
 465 -16 465 -16 368.5 -16 c 128,-1,27
 272 -16 272 -16 217.5 2.5 c 128,-1,28
 163 21 163 21 128 55 c 0,29,30
 61 120 61 120 61 240 c 2,31,-1
 61 776 l 2,32,33
 61 1032 61 1032 342 1032 c 0,34,35
 451 1032 451 1032 519 973 c 0,36,37
 573 926 573 926 590 852 c 1,38,-1
 590 1024 l 1,39,-1
 776 1024 l 1,40,-1
 780 717 l 1,41,-1
 692 717 l 2,0,1
133 596 m 2,42,-1
 133 393 l 2,43,44
 133 326 133 326 176 293 c 0,45,46
 228 252 228 252 325.5 252 c 128,-1,47
 423 252 423 252 469 262 c 128,-1,48
 515 272 515 272 544 291 c 0,49,50
 596 326 596 326 596 401 c 2,51,-1
 596 596 l 2,52,53
 596 677 596 677 546 712 c 0,54,55
 488 752 488 752 388 752 c 0,56,57
 231 752 231 752 182 712 c 128,-1,58
 133 672 133 672 133 596 c 2,42,-1
250 1147 m 1,59,-1
 254 1307 l 1,60,61
 254 1435 254 1435 403 1505 c 1,62,-1
 438 1448 l 1,63,64
 340 1413 340 1413 334 1341 c 1,65,-1
 446 1341 l 1,66,-1
 453 1147 l 1,67,-1
 250 1147 l 1,59,-1
EndSplineSet
EndChar

StartChar: Hbar
Encoding: 294 294 232
Width: 940
Flags: W
LayerCount: 2
Fore
SplineSet
216 342.5 m 128,-1,1
 219 353 219 353 219 498 c 128,-1,2
 219 643 219 643 225 991 c 1,3,-1
 70 991 l 1,4,-1
 68 1063 l 1,5,-1
 227 1063 l 1,6,-1
 227 1165 l 2,7,8
 227 1200 227 1200 199 1200 c 2,9,-1
 37 1204 l 1,10,-1
 37 1530 l 1,11,-1
 446 1538 l 1,12,-1
 453 1208 l 1,13,-1
 332 1208 l 2,14,15
 315 1208 315 1208 312 1196.5 c 128,-1,16
 309 1185 309 1185 309 1173 c 2,17,18
 309 1173 309 1173 309 1130 c 0,19,20
 309 1100 309 1100 307 1063 c 1,21,-1
 645 1063 l 1,22,23
 643 1108 643 1108 643 1141 c 128,-1,24
 643 1174 643 1174 640 1185 c 0,25,26
 636 1204 636 1204 604 1204 c 2,27,-1
 516 1204 l 1,28,-1
 520 1522 l 1,29,-1
 895 1534 l 1,30,-1
 887 1208 l 1,31,32
 854 1205 854 1205 829 1202 c 0,33,34
 764 1196 764 1196 756 1196 c 0,35,36
 723 1196 723 1196 723 1169 c 2,37,-1
 723 1135 l 2,38,39
 723 1106 723 1106 721 1063 c 1,40,-1
 874 1063 l 1,41,-1
 874 991 l 1,42,-1
 721 991 l 1,43,44
 720 933 720 933 719.5 866 c 128,-1,45
 719 799 719 799 718.5 732 c 128,-1,46
 718 665 718 665 717.5 602.5 c 128,-1,47
 717 540 717 540 716.5 491.5 c 128,-1,48
 716 443 716 443 715.5 413 c 128,-1,49
 715 383 715 383 715 377.5 c 128,-1,50
 715 372 715 372 716 362 c 128,-1,51
 717 352 717 352 731 352 c 2,52,-1
 887 352 l 1,53,-1
 895 0 l 1,54,-1
 528 4 l 1,55,-1
 516 340 l 1,56,57
 540 341 540 341 559.5 343 c 128,-1,58
 579 345 579 345 596 346 c 128,-1,59
 613 347 613 347 622 348 c 0,60,61
 639 351 639 351 639 381 c 2,62,-1
 639 758 l 2,63,64
 639 784 639 784 608 784 c 2,65,-1
 406 787 l 1,66,-1
 326 788 l 2,67,68
 303 788 303 788 303 768 c 2,69,-1
 300 472 l 1,70,-1
 299 360 l 2,71,72
 299 336 299 336 324 336 c 2,73,-1
 451 336 l 1,74,-1
 442 8 l 1,75,-1
 57 -16 l 1,76,-1
 41 336 l 1,77,78
 185 332 185 332 199 332 c 128,-1,0
 213 332 213 332 216 342.5 c 128,-1,1
455 859 m 2,79,-1
 554 858 l 2,80,81
 582 858 582 858 610 858 c 0,82,83
 645 858 645 858 645 899 c 2,84,-1
 645 991 l 1,85,-1
 303 991 l 1,86,87
 301 953 301 953 301 924 c 2,88,-1
 301 887 l 2,89,90
 301 860 301 860 319 860 c 0,91,92
 393 859 393 859 455 859 c 2,79,-1
EndSplineSet
EndChar

StartChar: hbar
Encoding: 295 295 233
Width: 930
Flags: W
LayerCount: 2
Fore
SplineSet
184 326 m 0,0,1
 184 736 184 736 190 1108 c 1,2,-1
 45 1108 l 1,3,-1
 43 1180 l 1,4,-1
 190 1180 l 1,5,-1
 190 1241 l 2,6,7
 190 1260 190 1260 172 1260 c 2,8,-1
 10 1253 l 1,9,-1
 14 1532 l 1,10,-1
 264 1536 l 1,11,-1
 262 1180 l 1,12,-1
 473 1180 l 1,13,-1
 473 1108 l 1,14,-1
 262 1108 l 1,15,-1
 262 885 l 1,16,17
 308 962 308 962 404 1006 c 1,18,19
 455 1028 455 1028 530 1028 c 0,20,21
 664 1028 664 1028 724 932 c 1,22,23
 770 861 770 861 770 745 c 1,24,-1
 764 324 l 2,25,26
 764 307 764 307 768.5 300 c 128,-1,27
 773 293 773 293 788 293 c 2,28,-1
 895 293 l 1,29,-1
 895 0 l 1,30,-1
 557 2 l 1,31,-1
 557 297 l 1,32,-1
 657 297 l 2,33,34
 673 297 673 297 683.5 307 c 128,-1,35
 694 317 694 317 694 334 c 2,36,-1
 694 608 l 2,37,38
 694 659 694 659 644 696 c 0,39,40
 587 739 587 739 509 739 c 128,-1,41
 431 739 431 739 388.5 723.5 c 128,-1,42
 346 708 346 708 318 684 c 0,43,44
 260 636 260 636 260 580 c 2,45,-1
 260 328 l 2,46,47
 260 297 260 297 291 297 c 2,48,-1
 383 297 l 1,49,-1
 383 2 l 1,50,-1
 49 0 l 1,51,-1
 47 295 l 1,52,-1
 160 295 l 2,53,54
 184 295 184 295 184 326 c 0,0,1
EndSplineSet
EndChar

StartChar: Iogonek
Encoding: 302 302 240
Width: 518
Flags: W
LayerCount: 2
Fore
SplineSet
225 1155 m 2,0,1
 225 1198 225 1198 186 1198 c 2,2,-1
 70 1198 l 1,3,4
 70 1474 70 1474 76 1528 c 1,5,6
 114 1530 114 1530 150 1532 c 0,7,8
 222 1536 222 1536 295 1536 c 0,9,10
 359 1536 359 1536 475 1532 c 1,11,-1
 457 1204 l 1,12,13
 437 1203 437 1203 419 1202.5 c 128,-1,14
 401 1202 401 1202 384 1202 c 2,15,-1
 354 1202 l 2,16,17
 330 1202 330 1202 315.5 1185 c 128,-1,18
 301 1168 301 1168 301 1137 c 2,19,20
 301 1137 301 1137 293 395 c 0,21,22
 293 348 293 348 332 348 c 2,23,-1
 469 348 l 1,24,-1
 457 4 l 1,25,26
 443 4 443 4 427 3 c 128,-1,27
 411 2 411 2 391 1.5 c 128,-1,28
 371 1 371 1 348 0 c 1,29,30
 249 -70 249 -70 211 -112 c 0,31,32
 137 -194 137 -194 137 -260 c 0,33,34
 137 -333 137 -333 208 -356 c 0,35,36
 234 -365 234 -365 272 -365 c 0,37,38
 381 -365 381 -365 473 -287 c 1,39,-1
 475 -381 l 1,40,41
 396 -446 396 -446 281.5 -446 c 128,-1,42
 167 -446 167 -446 111 -398 c 128,-1,43
 55 -350 55 -350 55 -266 c 0,44,45
 55 -128 55 -128 229 -2 c 1,46,47
 133 -8 133 -8 51 -8 c 1,48,-1
 53 132 l 1,49,-1
 53 354 l 1,50,-1
 184 354 l 2,51,52
 219 354 219 354 219 395 c 2,53,-1
 224 1021 l 1,54,-1
 225 1155 l 2,0,1
EndSplineSet
EndChar

StartChar: iogonek
Encoding: 303 303 241
Width: 453
Flags: W
LayerCount: 2
Fore
SplineSet
158 297 m 2,0,1
 205 297 205 297 205 342 c 2,2,-1
 205 682 l 2,3,4
 205 702 205 702 194 709.5 c 128,-1,5
 183 717 183 717 154 717 c 2,6,-1
 39 717 l 1,7,-1
 39 1024 l 1,8,-1
 283 1024 l 1,9,10
 276 398 276 398 276 370 c 2,11,-1
 276 332 l 2,12,13
 276 321 276 321 285 309 c 128,-1,14
 294 297 294 297 309 297 c 2,15,-1
 438 297 l 1,16,-1
 438 0 l 1,17,-1
 309 0 l 1,18,19
 210 -70 210 -70 172 -112 c 0,20,21
 98 -194 98 -194 98 -260 c 0,22,23
 98 -333 98 -333 170 -356 c 0,24,25
 195 -365 195 -365 233 -365 c 0,26,27
 342 -365 342 -365 434 -287 c 1,28,-1
 436 -381 l 1,29,30
 357 -446 357 -446 242.5 -446 c 128,-1,31
 128 -446 128 -446 72 -398 c 128,-1,32
 16 -350 16 -350 16 -266 c 0,33,34
 16 -130 16 -130 195 0 c 1,35,-1
 39 0 l 1,36,-1
 43 297 l 1,37,-1
 158 297 l 2,0,1
29 1328 m 0,38,39
 29 1353 29 1353 36 1380.5 c 128,-1,40
 43 1408 43 1408 62 1432 c 0,41,42
 107 1489 107 1489 201 1489 c 0,43,44
 282 1489 282 1489 328 1436 c 0,45,46
 369 1389 369 1389 369 1347 c 128,-1,47
 369 1305 369 1305 360 1277 c 128,-1,48
 351 1249 351 1249 331 1226 c 0,49,50
 285 1171 285 1171 199 1171 c 256,51,52
 113 1171 113 1171 67 1222 c 0,53,54
 29 1265 29 1265 29 1328 c 0,38,39
EndSplineSet
EndChar

StartChar: dotlessi
Encoding: 305 305 243
Width: 453
Flags: W
LayerCount: 2
Fore
SplineSet
158 297 m 2,0,1
 205 297 205 297 205 342 c 2,2,-1
 205 682 l 2,3,4
 205 702 205 702 194 709.5 c 128,-1,5
 183 717 183 717 154 717 c 2,6,-1
 39 717 l 1,7,-1
 39 1024 l 1,8,-1
 283 1024 l 1,9,10
 276 398 276 398 276 370 c 2,11,-1
 276 332 l 2,12,13
 276 321 276 321 285 309 c 128,-1,14
 294 297 294 297 309 297 c 2,15,-1
 438 297 l 1,16,-1
 438 0 l 1,17,-1
 39 0 l 1,18,-1
 43 297 l 1,19,-1
 158 297 l 2,0,1
EndSplineSet
EndChar

StartChar: kgreenlandic
Encoding: 312 312 250
Width: 942
Flags: W
LayerCount: 2
Fore
SplineSet
825 718 m 2,0,-1
 733 719 l 2,1,2
 658 719 658 719 543 647 c 1,3,-1
 770 317 l 1,4,5
 785 297 785 297 805 297 c 2,6,-1
 915 297 l 1,7,-1
 922 0 l 1,8,-1
 584 -2 l 1,9,-1
 588 293 l 1,10,-1
 680 293 l 2,11,12
 695 293 695 293 682 313 c 2,13,-1
 481 608 l 1,14,-1
 266 471 l 2,15,16
 260 468 260 468 260 461 c 2,17,-1
 260 377 l 2,18,19
 260 346 260 346 279 320.5 c 128,-1,20
 298 295 298 295 338 295 c 2,21,-1
 410 295 l 1,22,-1
 408 0 l 1,23,-1
 49 0 l 1,24,-1
 57 297 l 1,25,-1
 123 297 l 2,26,27
 163 297 163 297 178 332 c 0,28,29
 184 345 184 345 184 365 c 2,30,-1
 184 670 l 2,31,32
 184 702 184 702 169.5 710.5 c 128,-1,33
 155 719 155 719 135 719 c 2,34,-1
 51 719 l 1,35,-1
 51 1024 l 1,36,-1
 391 1026 l 1,37,-1
 381 723 l 1,38,-1
 317 723 l 2,39,40
 291 723 291 723 275.5 715.5 c 128,-1,41
 260 708 260 708 260 676 c 2,42,-1
 260 569 l 2,43,44
 260 564 260 564 261 560 c 128,-1,45
 262 556 262 556 270 559 c 1,46,47
 321 591 321 591 351.5 609.5 c 128,-1,48
 382 628 382 628 400 639.5 c 128,-1,49
 418 651 418 651 434 660 c 0,50,51
 500 701 500 701 510 720 c 0,52,53
 526 749 526 749 526 791 c 2,54,-1
 526 1020 l 1,55,-1
 854 1024 l 1,56,-1
 848 717 l 1,57,58
 840 717 840 717 825 718 c 2,0,-1
EndSplineSet
EndChar

StartChar: Lslash
Encoding: 321 321 259
Width: 791
Flags: W
LayerCount: 2
Fore
SplineSet
193 346 m 2,0,1
 213 346 213 346 213 383 c 2,2,-1
 213 700 l 1,3,-1
 72 655 l 1,4,-1
 47 723 l 1,5,-1
 213 776 l 1,6,-1
 213 1180 l 2,7,8
 213 1194 213 1194 206.5 1196 c 128,-1,9
 200 1198 200 1198 180 1198 c 2,10,-1
 47 1198 l 1,11,-1
 41 1536 l 1,12,-1
 455 1534 l 1,13,-1
 451 1200 l 1,14,-1
 315 1200 l 2,15,16
 294 1200 294 1200 291.5 1189 c 128,-1,17
 289 1178 289 1178 289 1171 c 128,-1,18
 289 1164 289 1164 288.5 1132 c 128,-1,19
 288 1100 288 1100 287.5 1049 c 128,-1,20
 287 998 287 998 286.5 933.5 c 128,-1,21
 286 869 286 869 285 801 c 1,22,-1
 510 874 l 1,23,-1
 532 807 l 1,24,-1
 285 725 l 1,25,26
 283 603 283 603 283 532 c 2,27,-1
 283 395 l 2,28,29
 283 363 283 363 296 354.5 c 128,-1,30
 309 346 309 346 332 346 c 2,31,-1
 417 347 l 1,32,-1
 548 349 l 1,33,34
 548 349 548 349 631 350 c 0,35,36
 684 350 684 350 684 403 c 1,37,-1
 681 518 l 2,38,39
 679 562 679 562 678 616 c 1,40,-1
 750 616 l 1,41,-1
 748 0 l 1,42,-1
 55 -4 l 1,43,-1
 55 346 l 1,44,-1
 193 346 l 2,0,1
EndSplineSet
EndChar

StartChar: lslash
Encoding: 322 322 260
Width: 446
Flags: W
LayerCount: 2
Fore
SplineSet
184 1214 m 2,0,1
 184 1237 184 1237 158 1237 c 2,2,-1
 12 1237 l 1,3,-1
 6 1530 l 1,4,-1
 268 1536 l 1,5,6
 268 1369 268 1369 267 1252 c 128,-1,7
 266 1135 266 1135 266 1073 c 0,8,9
 264 887 264 887 264 821 c 1,10,-1
 391 864 l 1,11,-1
 414 797 l 1,12,-1
 264 745 l 1,13,14
 262 587 262 587 262 501 c 2,15,-1
 262 340 l 2,16,17
 262 299 262 299 307 299 c 2,18,-1
 414 299 l 1,19,-1
 414 0 l 1,20,-1
 39 0 l 1,21,-1
 31 297 l 1,22,-1
 147 297 l 2,23,24
 175 297 175 297 179.5 310.5 c 128,-1,25
 184 324 184 324 184 344 c 2,26,-1
 184 719 l 1,27,-1
 51 676 l 1,28,-1
 27 743 l 1,29,-1
 184 795 l 1,30,-1
 184 1214 l 2,0,1
EndSplineSet
EndChar

StartChar: Eng
Encoding: 330 330 268
Width: 950
Flags: W
LayerCount: 2
Fore
SplineSet
586 -180 m 0,0,1
 662 -180 662 -180 662 -90 c 2,2,-1
 662 104 l 1,3,-1
 317 1204 l 1,4,5
 314 1219 314 1219 302 1218 c 1,6,7
 291 1216 291 1216 291 1204 c 2,8,-1
 291 412 l 2,9,10
 291 346 291 346 342 346 c 2,11,-1
 446 346 l 1,12,-1
 459 -2 l 1,13,-1
 55 2 l 1,14,-1
 55 334 l 1,15,16
 83 334 83 334 108 335 c 2,17,-1
 178 336 l 2,18,19
 215 336 215 336 215 391 c 2,20,-1
 215 1178 l 2,21,22
 215 1195 215 1195 208.5 1199.5 c 128,-1,23
 202 1204 202 1204 180 1204 c 2,24,-1
 59 1204 l 1,25,-1
 59 1536 l 1,26,-1
 260 1536 l 2,27,28
 293 1536 293 1536 298 1522.5 c 128,-1,29
 303 1509 303 1509 307 1497 c 2,30,-1
 666 352 l 1,31,32
 678 970 678 970 678 1165 c 0,33,34
 678 1210 678 1210 623 1210 c 2,35,-1
 555 1209 l 2,36,37
 538 1208 538 1208 524 1208 c 1,38,-1
 510 1532 l 1,39,40
 662 1536 662 1536 696 1536 c 2,41,-1
 901 1536 l 1,42,-1
 889 1210 l 1,43,44
 870 1210 870 1210 853 1211 c 2,45,-1
 799 1212 l 2,46,47
 752 1212 752 1212 752 1161 c 2,48,-1
 735 -285 l 1,49,50
 735 -435 735 -435 632 -474 c 0,51,52
 602 -485 602 -485 567 -485 c 2,53,-1
 519 -484 l 1,54,-1
 459 -483 l 2,55,56
 412 -483 412 -483 387 -457 c 0,57,58
 342 -410 342 -410 342 -362 c 2,59,-1
 342 -74 l 1,60,-1
 414 -74 l 1,61,-1
 414 -135 l 2,62,63
 414 -176 414 -176 461 -180 c 0,64,65
 489 -182 489 -182 525 -181 c 128,-1,66
 561 -180 561 -180 586 -180 c 0,0,1
EndSplineSet
EndChar

StartChar: eng
Encoding: 331 331 269
Width: 850
Flags: W
LayerCount: 2
Fore
SplineSet
680 -100 m 2,0,-1
 686 580 l 2,1,2
 686 681 686 681 584 716 c 0,3,4
 549 729 549 729 492 729 c 128,-1,5
 435 729 435 729 394 717 c 128,-1,6
 353 705 353 705 328 686 c 0,7,8
 283 654 283 654 281 598 c 1,9,10
 277 552 277 552 276 492.5 c 128,-1,11
 275 433 275 433 274.5 401 c 128,-1,12
 274 369 274 369 274 354 c 0,13,14
 274 295 274 295 324 295 c 2,15,-1
 410 295 l 1,16,-1
 414 0 l 1,17,-1
 45 -2 l 1,18,-1
 43 297 l 1,19,-1
 150 297 l 2,20,21
 201 297 201 297 201 340 c 2,22,-1
 207 651 l 1,23,24
 207 717 207 717 129 717 c 2,25,-1
 33 717 l 1,26,-1
 37 1024 l 1,27,-1
 291 1024 l 1,28,-1
 279 877 l 1,29,30
 279 904 279 904 311.5 940 c 128,-1,31
 344 976 344 976 370 992 c 0,32,33
 432 1030 432 1030 512 1030 c 128,-1,34
 592 1030 592 1030 640.5 1002 c 128,-1,35
 689 974 689 974 717 936 c 0,36,37
 765 870 765 870 768 791 c 1,38,39
 754 24 754 24 754 -203 c 128,-1,40
 754 -430 754 -430 608 -472 c 0,41,42
 564 -485 564 -485 513.5 -485 c 128,-1,43
 463 -485 463 -485 435 -480 c 128,-1,44
 407 -475 407 -475 393 -466 c 0,45,46
 373 -454 373 -454 373 -426 c 2,47,-1
 370 -239 l 2,48,49
 368 -165 368 -165 367 -76 c 1,50,-1
 440 -76 l 1,51,-1
 440 -135 l 2,52,53
 440 -164 440 -164 468.5 -176 c 128,-1,54
 497 -188 497 -188 545.5 -188 c 128,-1,55
 594 -188 594 -188 616.5 -179 c 128,-1,56
 639 -170 639 -170 653 -157 c 0,57,58
 680 -132 680 -132 680 -100 c 2,0,-1
EndSplineSet
EndChar

StartChar: OE
Encoding: 338 338 276
Width: 1276
Flags: W
LayerCount: 2
Fore
SplineSet
1202 -6 m 1,0,1
 1029 4 1029 4 965 4 c 2,2,-1
 840 4 l 2,3,4
 777 4 777 4 657 0 c 1,5,-1
 657 96 l 1,6,7
 607 0 607 0 483 0 c 2,8,-1
 262 0 l 2,9,10
 169 0 169 0 117 80 c 0,11,12
 76 142 76 142 76 219 c 2,13,-1
 76 284 l 1,14,-1
 72 1248 l 1,15,-1
 72 1329 l 2,16,17
 72 1420 72 1420 130 1476 c 0,18,19
 184 1528 184 1528 262 1528 c 1,20,21
 486 1536 486 1536 504 1536 c 0,22,23
 611 1536 611 1536 657 1423 c 1,24,-1
 657 1532 l 1,25,26
 809 1536 809 1536 895 1536 c 2,27,-1
 1174 1536 l 1,28,-1
 1167 1024 l 1,29,-1
 1094 1022 l 1,30,-1
 1095 1029 l 1,31,-1
 1096 1114 l 2,32,33
 1096 1195 1096 1195 974 1208 c 0,34,35
 935 1212 935 1212 887 1212 c 0,36,37
 719 1212 719 1212 719 1137 c 2,38,-1
 719 827 l 1,39,-1
 874 827 l 2,40,41
 891 827 891 827 906.5 839.5 c 128,-1,42
 922 852 922 852 923.5 875.5 c 128,-1,43
 925 899 925 899 925 923 c 2,44,-1
 925 969 l 2,45,46
 925 995 925 995 924 1022 c 1,47,-1
 997 1026 l 1,48,-1
 1004 526 l 1,49,-1
 932 526 l 1,50,-1
 932 593 l 1,51,52
 931 621 931 621 930 650 c 0,53,54
 928 710 928 710 916.5 726 c 128,-1,55
 905 742 905 742 895 748 c 0,56,57
 878 758 878 758 856 758 c 0,58,59
 828 758 828 758 790 756.5 c 128,-1,60
 752 755 752 755 719 754 c 1,61,62
 718 682 718 682 718 619 c 2,63,-1
 717 510 l 1,64,-1
 717 428 l 2,65,66
 717 382 717 382 736 364 c 0,67,68
 763 340 763 340 788 340 c 2,69,-1
 1071 340 l 2,70,71
 1143 340 1143 340 1143 428 c 1,72,-1
 1142 509 l 2,73,74
 1141 531 1141 531 1141 553 c 1,75,-1
 1214 555 l 1,76,-1
 1202 -6 l 1,0,1
319 338 m 1,77,-1
 530 342 l 1,78,79
 611 342 611 342 639 418 c 0,80,81
 649 446 649 446 649 487 c 2,82,-1
 649 1055 l 2,83,84
 649 1200 649 1200 498 1200 c 2,85,-1
 307 1200 l 2,86,87
 193 1200 193 1200 159 1111 c 0,88,89
 147 1080 147 1080 147 1049 c 2,90,-1
 147 980 l 1,91,-1
 150 574 l 1,92,-1
 150 496 l 2,93,94
 150 412 150 412 205 371 c 0,95,96
 249 338 249 338 319 338 c 1,77,-1
EndSplineSet
EndChar

StartChar: oe
Encoding: 339 339 277
Width: 1255
Flags: W
LayerCount: 2
Fore
SplineSet
633 913 m 1,0,1
 700 1040 700 1040 913 1040 c 0,2,3
 1166 1040 1166 1040 1198 858 c 0,4,5
 1203 827 1203 827 1202.5 799.5 c 128,-1,6
 1202 772 1202 772 1202 740 c 128,-1,7
 1202 708 1202 708 1194 520 c 1,8,-1
 659 508 l 1,9,-1
 659 430 l 2,10,11
 659 281 659 281 911 281 c 0,12,13
 1017 281 1017 281 1070.5 303 c 128,-1,14
 1124 325 1124 325 1124 360 c 2,15,-1
 1124 422 l 1,16,-1
 1192 430 l 1,17,18
 1184 282 1184 282 1184 197 c 128,-1,19
 1184 112 1184 112 1155.5 72.5 c 128,-1,20
 1127 33 1127 33 1080 13 c 0,21,22
 1008 -18 1008 -18 858 -18 c 0,23,24
 674 -18 674 -18 621 109 c 1,25,26
 563 -12 563 -12 365 -12 c 0,27,28
 159 -12 159 -12 99 84 c 0,29,30
 66 137 66 137 64.5 194 c 128,-1,31
 63 251 63 251 63 282 c 2,32,-1
 63 346 l 1,33,-1
 65 568 l 2,34,35
 66 653 66 653 67 715.5 c 128,-1,36
 68 778 68 778 68 812.5 c 128,-1,37
 68 847 68 847 75 879.5 c 128,-1,38
 82 912 82 912 98.5 940 c 128,-1,39
 115 968 115 968 148 989 c 0,40,41
 219 1034 219 1034 365 1034 c 0,42,43
 589 1034 589 1034 633 913 c 1,0,1
135 610 m 2,44,-1
 135 408 l 2,45,46
 135 335 135 335 181 308 c 0,47,48
 231 279 231 279 332 279 c 128,-1,49
 433 279 433 279 476 287 c 128,-1,50
 519 295 519 295 544 310 c 0,51,52
 586 336 586 336 586 399 c 2,53,-1
 586 610 l 2,54,55
 586 681 586 681 541 712 c 0,56,57
 492 745 492 745 393 745 c 0,58,59
 228 745 228 745 181.5 716.5 c 128,-1,60
 135 688 135 688 135 610 c 2,44,-1
1127 599 m 2,61,-1
 1128 653 l 1,62,63
 1128 750 1128 750 913 750 c 0,64,65
 657 750 657 750 657 582 c 1,66,-1
 1126 590 l 1,67,68
 1126 592 1126 592 1127 599 c 2,61,-1
EndSplineSet
EndChar

StartChar: Scedilla
Encoding: 350 350 288
Width: 780
Flags: W
LayerCount: 2
Fore
SplineSet
87 1104 m 1,0,-1
 88 1307 l 1,1,2
 88 1511 88 1511 266 1536 c 0,3,4
 317 1544 317 1544 376 1544 c 0,5,6
 472 1544 472 1544 540 1503 c 0,7,8
 569 1485 569 1485 586 1462 c 1,9,-1
 594 1462 l 1,10,-1
 594 1536 l 1,11,-1
 672 1536 l 1,12,-1
 668 995 l 1,13,-1
 596 995 l 1,14,-1
 596 1122 l 2,15,16
 596 1167 596 1167 569.5 1192 c 128,-1,17
 543 1217 543 1217 492 1217 c 2,18,-1
 266 1217 l 2,19,20
 223 1217 223 1217 193.5 1192 c 128,-1,21
 164 1167 164 1167 164 1121 c 128,-1,22
 164 1075 164 1075 162 1030.5 c 128,-1,23
 160 986 160 986 161.5 945 c 128,-1,24
 163 904 163 904 171 882.5 c 128,-1,25
 179 861 179 861 194 850 c 0,26,27
 218 831 218 831 289 831 c 2,28,-1
 477 831 l 2,29,30
 589 831 589 831 654 749 c 0,31,32
 709 679 709 679 709 580 c 2,33,-1
 709 250 l 2,34,35
 709 111 709 111 644 54 c 0,36,37
 575 -6 575 -6 408 -8 c 1,38,-1
 408 -121 l 1,39,40
 440 -117 440 -117 469 -117 c 128,-1,41
 498 -117 498 -117 530.5 -126.5 c 128,-1,42
 563 -136 563 -136 588 -155 c 0,43,44
 647 -199 647 -199 647 -255.5 c 128,-1,45
 647 -312 647 -312 632.5 -349.5 c 128,-1,46
 618 -387 618 -387 588 -414 c 0,47,48
 524 -473 524 -473 392 -473 c 128,-1,49
 260 -473 260 -473 133 -416 c 1,50,-1
 135 -328 l 1,51,52
 284 -391 284 -391 387 -391 c 0,53,54
 565 -391 565 -391 565 -281 c 0,55,56
 565 -202 565 -202 468 -196 c 0,57,58
 442 -195 442 -195 423 -195 c 128,-1,59
 404 -195 404 -195 328 -203 c 1,60,-1
 326 -2 l 1,61,62
 201 18 201 18 147 104 c 1,63,-1
 135 104 l 1,64,-1
 135 0 l 1,65,-1
 61 0 l 1,66,-1
 76 635 l 1,67,-1
 145 633 l 1,68,69
 144 587 144 587 143.5 546 c 128,-1,70
 143 505 143 505 143 464 c 2,71,-1
 143 393 l 2,72,73
 143 334 143 334 158 319 c 0,74,75
 181 295 181 295 225 295 c 2,76,-1
 349 294 l 1,77,-1
 524 293 l 2,78,79
 618 293 618 293 630 368 c 0,80,81
 633 391 633 391 633 420 c 2,82,-1
 633 569 l 2,83,84
 633 745 633 745 446 745 c 2,85,-1
 293 745 l 2,86,87
 200 745 200 745 164 768 c 0,88,89
 86 819 86 819 86 967 c 1,90,-1
 87 1104 l 1,0,-1
EndSplineSet
EndChar

StartChar: scedilla
Encoding: 351 351 289
Width: 688
Flags: W
LayerCount: 2
Fore
SplineSet
443 -196.5 m 128,-1,1
 417 -195 417 -195 398 -195 c 128,-1,2
 379 -195 379 -195 303 -203 c 1,3,-1
 301 0 l 1,4,5
 229 18 229 18 182 71 c 0,6,7
 157 99 157 99 145 129 c 1,8,-1
 145 0 l 1,9,-1
 68 0 l 1,10,-1
 78 420 l 1,11,-1
 156 420 l 1,12,13
 155 406 155 406 154.5 391 c 128,-1,14
 154 376 154 376 154 358 c 2,15,-1
 154 322 l 2,16,17
 154 255 154 255 280 250 c 0,18,19
 316 248 316 248 357.5 248 c 128,-1,20
 399 248 399 248 435.5 252 c 128,-1,21
 472 256 472 256 498 266 c 1,22,23
 551 289 551 289 551 346 c 0,24,25
 551 447 551 447 451 453 c 0,26,27
 407 455 407 455 352.5 455.5 c 128,-1,28
 298 456 298 456 242 458 c 128,-1,29
 186 460 186 460 153.5 473 c 128,-1,30
 121 486 121 486 100 506 c 0,31,32
 61 545 61 545 61 606 c 2,33,-1
 61 836 l 2,34,35
 61 928 61 928 133 982 c 0,36,37
 201 1032 201 1032 281.5 1032 c 128,-1,38
 362 1032 362 1032 404 1015.5 c 128,-1,39
 446 999 446 999 473 978 c 0,40,41
 511 948 511 948 528 915 c 1,42,-1
 528 1024 l 1,43,-1
 608 1024 l 1,44,-1
 600 596 l 1,45,-1
 524 596 l 1,46,-1
 524 645 l 2,47,48
 524 713 524 713 426 740 c 0,49,50
 390 750 390 750 336 750 c 0,51,52
 137 750 137 750 137 637 c 0,53,54
 137 584 137 584 154 568 c 0,55,56
 181 543 181 543 225 539.5 c 128,-1,57
 269 536 269 536 318 535 c 128,-1,58
 367 534 367 534 427.5 531 c 128,-1,59
 488 528 488 528 522.5 513.5 c 128,-1,60
 557 499 557 499 580 474 c 0,61,62
 627 425 627 425 627 346 c 2,63,-1
 627 195 l 2,64,65
 627 53 627 53 497 6 c 0,66,67
 451 -10 451 -10 385 -10 c 2,68,-1
 383 -10 l 1,69,-1
 383 -121 l 1,70,71
 415 -117 415 -117 444 -117 c 128,-1,72
 473 -117 473 -117 505.5 -126.5 c 128,-1,73
 538 -136 538 -136 564 -155 c 0,74,75
 623 -198 623 -198 623 -255 c 128,-1,76
 623 -312 623 -312 608.5 -349.5 c 128,-1,77
 594 -387 594 -387 564 -414 c 0,78,79
 500 -473 500 -473 368 -473 c 128,-1,80
 236 -473 236 -473 109 -416 c 1,81,-1
 111 -328 l 1,82,83
 260 -391 260 -391 358.5 -391 c 128,-1,84
 457 -391 457 -391 499 -359.5 c 128,-1,85
 541 -328 541 -328 541 -288.5 c 128,-1,86
 541 -249 541 -249 526.5 -231.5 c 128,-1,87
 512 -214 512 -214 490.5 -206 c 128,-1,0
 469 -198 469 -198 443 -196.5 c 128,-1,1
EndSplineSet
EndChar

StartChar: Tbar
Encoding: 358 358 296
Width: 725
Flags: W
LayerCount: 2
Fore
SplineSet
154 1206 m 2,0,1
 100 1206 100 1206 100 1141 c 2,2,-1
 100 930 l 1,3,-1
 31 930 l 1,4,-1
 31 1530 l 1,5,6
 289 1536 289 1536 694 1536 c 1,7,-1
 694 961 l 1,8,-1
 625 963 l 1,9,-1
 625 1153 l 2,10,11
 625 1204 625 1204 591 1210 c 0,12,13
 580 1212 580 1212 567 1212 c 2,14,-1
 416 1212 l 2,15,16
 397 1212 397 1212 397 1190 c 2,17,18
 397 1190 397 1190 396 1078 c 2,19,20
 396 1078 396 1078 395 834 c 1,21,-1
 600 834 l 1,22,-1
 600 762 l 1,23,-1
 393 762 l 1,24,-1
 393 373 l 2,25,26
 393 356 393 356 401 351 c 128,-1,27
 409 346 409 346 428 346 c 2,28,-1
 551 346 l 1,29,-1
 551 0 l 1,30,-1
 162 0 l 1,31,-1
 164 342 l 1,32,33
 194 342 194 342 220 343 c 2,34,-1
 291 344 l 2,35,36
 319 344 319 344 319 387 c 2,37,-1
 319 762 l 1,38,-1
 111 762 l 1,39,-1
 109 834 l 1,40,-1
 319 834 l 1,41,-1
 319 1182 l 2,42,43
 319 1206 319 1206 297 1206 c 2,44,-1
 154 1206 l 2,0,1
EndSplineSet
EndChar

StartChar: tbar
Encoding: 359 359 297
Width: 608
Flags: W
LayerCount: 2
Fore
SplineSet
143 1047 m 2,0,-1
 142 1146 l 1,1,-1
 142 1198 l 2,2,3
 142 1224 142 1224 143 1241 c 1,4,-1
 217 1239 l 1,5,-1
 217 1047 l 2,6,7
 217 1033 217 1033 224 1028.5 c 128,-1,8
 231 1024 231 1024 250 1024 c 2,9,-1
 506 1024 l 1,10,-1
 506 717 l 1,11,-1
 238 717 l 2,12,13
 217 717 217 717 217 686 c 2,14,-1
 217 610 l 1,15,-1
 463 610 l 1,16,-1
 463 539 l 1,17,-1
 217 539 l 1,18,-1
 217 371 l 2,19,20
 217 276 217 276 344 276 c 128,-1,21
 471 276 471 276 471 371 c 2,22,-1
 471 453 l 1,23,-1
 543 453 l 1,24,-1
 543 355 l 2,25,26
 543 257 543 257 544.5 205.5 c 128,-1,27
 546 154 546 154 536.5 114.5 c 128,-1,28
 527 75 527 75 504 48 c 0,29,30
 456 -8 456 -8 340 -8 c 0,31,32
 143 -8 143 -8 143 193 c 2,33,-1
 143 539 l 1,34,-1
 35 539 l 1,35,-1
 33 610 l 1,36,-1
 143 610 l 1,37,-1
 143 686 l 2,38,39
 143 706 143 706 137.5 711.5 c 128,-1,40
 132 717 132 717 111 717 c 2,41,-1
 18 717 l 1,42,-1
 20 1024 l 1,43,-1
 111 1024 l 2,44,45
 134 1024 134 1024 138.5 1030.5 c 128,-1,46
 143 1037 143 1037 143 1047 c 2,0,-1
EndSplineSet
EndChar

StartChar: Uogonek
Encoding: 370 370 308
Width: 965
Flags: W
LayerCount: 2
Fore
SplineSet
197 184 m 2,0,-1
 195 1163 l 2,1,2
 195 1200 195 1200 160 1200 c 2,3,-1
 59 1200 l 1,4,-1
 61 1532 l 1,5,-1
 428 1536 l 1,6,-1
 426 1210 l 1,7,8
 396 1209 396 1209 372 1208 c 0,9,10
 324 1206 324 1206 301 1206 c 0,11,12
 270 1206 270 1206 270 1171 c 2,13,-1
 270 457 l 2,14,15
 270 392 270 392 310 360 c 1,16,17
 338 336 338 336 377 336 c 2,18,-1
 586 336 l 2,19,20
 657 336 657 336 684 404 c 0,21,22
 693 427 693 427 693 451 c 2,23,-1
 693 602 l 1,24,-1
 691 1062 l 1,25,-1
 691 1174 l 2,26,27
 691 1206 691 1206 652 1206 c 2,28,-1
 544 1206 l 1,29,-1
 536 1534 l 1,30,-1
 902 1536 l 1,31,-1
 906 1206 l 1,32,33
 882 1205 882 1205 862.5 1204.5 c 128,-1,34
 843 1204 843 1204 824 1204 c 2,35,-1
 797 1204 l 2,36,37
 767 1204 767 1204 767 1169 c 2,38,-1
 772 448 l 1,39,-1
 773 190 l 2,40,41
 773 88 773 88 749.5 55.5 c 128,-1,42
 726 23 726 23 697 11.5 c 128,-1,43
 668 0 668 0 623 0 c 2,44,-1
 546 0 l 1,45,46
 447 -70 447 -70 409 -112 c 0,47,48
 335 -194 335 -194 335 -260 c 0,49,50
 335 -365 335 -365 471 -365 c 0,51,52
 579 -365 579 -365 671 -287 c 1,53,-1
 673 -381 l 1,54,55
 594 -446 594 -446 479.5 -446 c 128,-1,56
 365 -446 365 -446 309 -398 c 128,-1,57
 253 -350 253 -350 253 -266 c 0,58,59
 253 -130 253 -130 432 0 c 1,60,-1
 350 0 l 2,61,62
 197 0 197 0 197 184 c 2,0,-1
EndSplineSet
EndChar

StartChar: uogonek
Encoding: 371 371 309
Width: 918
Flags: W
LayerCount: 2
Fore
SplineSet
154 690 m 2,0,1
 154 719 154 719 121 719 c 2,2,-1
 25 719 l 1,3,-1
 16 1024 l 1,4,-1
 362 1024 l 1,5,-1
 362 719 l 1,6,-1
 285 719 l 2,7,8
 249 719 249 719 241 712 c 0,9,10
 229 703 229 703 229 670 c 2,11,-1
 229 406 l 2,12,13
 229 307 229 307 343 294 c 0,14,15
 380 289 380 289 437 289 c 128,-1,16
 494 289 494 289 534.5 304 c 128,-1,17
 575 319 575 319 598 342 c 0,18,19
 635 379 635 379 635 438 c 2,20,-1
 635 674 l 2,21,22
 635 706 635 706 617 712.5 c 128,-1,23
 599 719 599 719 571 719 c 2,24,-1
 532 719 l 2,25,26
 508 719 508 719 506 721 c 1,27,-1
 510 1024 l 1,28,-1
 844 1018 l 1,29,-1
 842 719 l 1,30,-1
 772 719 l 2,31,32
 713 719 713 719 713 680 c 2,33,-1
 713 656 l 1,34,-1
 712 559 l 1,35,-1
 712 500 l 1,36,37
 711 430 711 430 711 375.5 c 128,-1,38
 711 321 711 321 722 309 c 128,-1,39
 733 297 733 297 770 297 c 2,40,-1
 844 297 l 1,41,-1
 842 0 l 1,42,43
 636 -70 636 -70 576 -186 c 0,44,45
 557 -223 557 -223 557 -252 c 128,-1,46
 557 -281 557 -281 564 -300.5 c 128,-1,47
 571 -320 571 -320 587 -334 c 0,48,49
 622 -365 622 -365 692 -365 c 0,50,51
 801 -365 801 -365 893 -287 c 1,52,-1
 895 -381 l 1,53,54
 816 -446 816 -446 701.5 -446 c 128,-1,55
 587 -446 587 -446 531 -398 c 128,-1,56
 475 -350 475 -350 475 -266 c 0,57,58
 475 -144 475 -144 610 -52 c 0,59,60
 652 -23 652 -23 705 0 c 1,61,-1
 635 0 l 1,62,-1
 635 139 l 1,63,-1
 625 139 l 1,64,65
 611 73 611 73 555.5 31.5 c 128,-1,66
 500 -10 500 -10 415 -10 c 128,-1,67
 330 -10 330 -10 284 3.5 c 128,-1,68
 238 17 238 17 209 48 c 0,69,70
 152 107 152 107 152 250 c 2,71,-1
 152 297 l 1,72,-1
 154 650 l 1,73,-1
 154 690 l 2,0,1
EndSplineSet
EndChar

StartChar: florin
Encoding: 402 402 321
Width: 623
Flags: W
LayerCount: 2
Fore
SplineSet
299 995 m 0,0,1
 299 920 299 920 305 743 c 1,2,-1
 463 745 l 1,3,-1
 459 670 l 1,4,-1
 315 670 l 1,5,-1
 326 -147 l 1,6,7
 326 -294 326 -294 292 -348 c 0,8,9
 257 -403 257 -403 158 -403 c 0,10,11
 41 -403 41 -403 10 -319 c 0,12,13
 0 -294 0 -294 0 -266 c 2,14,-1
 0 27 l 1,15,-1
 74 27 l 1,16,-1
 74 -53 l 2,17,18
 74 -80 74 -80 94 -90 c 0,19,20
 125 -106 125 -106 158 -106 c 0,21,22
 252 -106 252 -106 252 -18 c 1,23,-1
 236 670 l 1,24,-1
 111 670 l 1,25,26
 107 741 107 741 109 741 c 0,27,28
 155 743 155 743 192 743 c 2,29,-1
 229 743 l 1,30,-1
 213 1169 l 1,31,32
 213 1286 213 1286 271 1339 c 0,33,34
 313 1378 313 1378 366.5 1378 c 128,-1,35
 420 1378 420 1378 443.5 1368 c 128,-1,36
 467 1358 467 1358 480 1344 c 0,37,38
 495 1328 495 1328 514 1280 c 1,39,-1
 514 1378 l 1,40,-1
 592 1378 l 1,41,-1
 582 936 l 1,42,-1
 510 930 l 1,43,-1
 510 971 l 2,44,45
 510 1025 510 1025 487 1055 c 128,-1,46
 464 1085 464 1085 406 1085 c 0,47,48
 299 1085 299 1085 299 995 c 0,0,1
EndSplineSet
EndChar

StartChar: dotlessj
Encoding: 567 567 326
Width: 430
Flags: W
LayerCount: 2
Fore
SplineSet
246 719 m 2,0,-1
 152 718 l 2,1,2
 118 717 118 717 76 717 c 1,3,-1
 76 1020 l 1,4,-1
 362 1024 l 1,5,6
 346 -112 346 -112 346 -199.5 c 128,-1,7
 346 -287 346 -287 327.5 -341.5 c 128,-1,8
 309 -396 309 -396 276 -428 c 0,9,10
 219 -485 219 -485 106 -485 c 0,11,12
 -21 -485 -21 -485 -32 -448 c 0,13,14
 -35 -437 -35 -437 -35 -426 c 2,15,-1
 -38 -229 l 2,16,17
 -40 -151 -40 -151 -41 -55 c 1,18,-1
 33 -55 l 1,19,-1
 33 -135 l 2,20,21
 33 -164 33 -164 61.5 -176 c 128,-1,22
 90 -188 90 -188 138.5 -188 c 128,-1,23
 187 -188 187 -188 209.5 -179 c 128,-1,24
 232 -170 232 -170 246 -157 c 0,25,26
 272 -131 272 -131 272 -100 c 2,27,-1
 279 684 l 2,28,29
 279 719 279 719 246 719 c 2,0,-1
EndSplineSet
EndChar

StartChar: circumflex
Encoding: 710 710 327
Width: 868
Flags: W
LayerCount: 2
Fore
SplineSet
451 1493 m 1,0,-1
 721 1206 l 1,1,-1
 653 1147 l 1,2,-1
 444 1372 l 1,3,-1
 207 1149 l 1,4,-1
 145 1217 l 1,5,-1
 451 1493 l 1,0,-1
EndSplineSet
EndChar

StartChar: caron
Encoding: 711 711 328
Width: 868
Flags: W
LayerCount: 2
Fore
SplineSet
416 1147 m 1,0,-1
 145 1434 l 1,1,-1
 213 1493 l 1,2,-1
 422 1268 l 1,3,-1
 659 1491 l 1,4,-1
 721 1423 l 1,5,-1
 416 1147 l 1,0,-1
EndSplineSet
EndChar

StartChar: breve
Encoding: 728 728 329
Width: 868
Flags: W
LayerCount: 2
Fore
SplineSet
721 1444 m 1,0,1
 721 1341 721 1341 652 1262 c 0,2,3
 570 1167 570 1167 424 1167 c 0,4,5
 272 1167 272 1167 198 1274 c 1,6,7
 145 1353 145 1353 145 1454 c 1,8,-1
 229 1454 l 1,9,10
 229 1329 229 1329 322 1274 c 0,11,12
 360 1251 360 1251 423 1251 c 128,-1,13
 486 1251 486 1251 526.5 1273.5 c 128,-1,14
 567 1296 567 1296 591 1327 c 0,15,16
 631 1378 631 1378 637 1444 c 1,17,-1
 721 1444 l 1,0,1
EndSplineSet
EndChar

StartChar: dotaccent
Encoding: 729 729 330
Width: 868
Flags: W
LayerCount: 2
Fore
SplineSet
543 1415 m 1,0,-1
 532 1210 l 1,1,-1
 334 1208 l 1,2,-1
 326 1415 l 1,3,-1
 543 1415 l 1,0,-1
EndSplineSet
EndChar

StartChar: ring
Encoding: 730 730 331
Width: 868
Flags: W
LayerCount: 2
Fore
SplineSet
434 1106 m 0,0,1
 384 1106 384 1106 345 1124 c 128,-1,2
 306 1142 306 1142 280 1170 c 1,3,4
 229 1228 229 1228 231 1310 c 1,5,6
 231 1389 231 1389 284 1445 c 0,7,8
 340 1505 340 1505 434 1505 c 0,9,10
 527 1505 527 1505 585 1444 c 0,11,12
 638 1387 638 1387 638 1310 c 0,13,14
 638 1235 638 1235 586 1174 c 0,15,16
 529 1106 529 1106 434 1106 c 0,0,1
382.5 1203 m 128,-1,18
 405 1193 405 1193 435.5 1193 c 128,-1,19
 466 1193 466 1193 488 1204.5 c 128,-1,20
 510 1216 510 1216 524 1233 c 0,21,22
 549 1265 549 1265 549 1297 c 128,-1,23
 549 1329 549 1329 542.5 1348.5 c 128,-1,24
 536 1368 536 1368 522 1384 c 1,25,26
 489 1418 489 1418 447 1418 c 128,-1,27
 405 1418 405 1418 383.5 1409 c 128,-1,28
 362 1400 362 1400 348 1385 c 0,29,30
 319 1356 319 1356 317 1309 c 0,31,32
 315 1264 315 1264 337.5 1238.5 c 128,-1,17
 360 1213 360 1213 382.5 1203 c 128,-1,18
EndSplineSet
EndChar

StartChar: ogonek
Encoding: 731 731 332
Width: 868
Flags: W
LayerCount: 2
Fore
SplineSet
440 -365 m 0,0,1
 549 -365 549 -365 641 -287 c 1,2,-1
 643 -381 l 1,3,4
 564 -446 564 -446 449.5 -446 c 128,-1,5
 335 -446 335 -446 279 -398 c 128,-1,6
 223 -350 223 -350 223 -266 c 0,7,8
 223 -142 223 -142 368 -27 c 0,9,10
 404 2 404 2 434 20 c 1,11,-1
 545 20 l 1,12,13
 429 -62 429 -62 388 -103 c 0,14,15
 305 -188 305 -188 305 -260 c 0,16,17
 305 -333 305 -333 376 -356 c 0,18,19
 402 -365 402 -365 440 -365 c 0,0,1
EndSplineSet
EndChar

StartChar: tilde
Encoding: 732 732 333
Width: 868
Flags: W
LayerCount: 2
Fore
SplineSet
623 1309 m 2,0,-1
 622 1397 l 2,1,2
 621 1428 621 1428 621 1464 c 1,3,-1
 702 1464 l 1,4,-1
 705 1364 l 1,5,6
 705 1151 705 1151 563 1151 c 0,7,8
 475 1151 475 1151 431 1235 c 0,9,10
 404 1287 404 1287 393 1310 c 128,-1,11
 382 1333 382 1333 370 1352 c 0,12,13
 340 1397 340 1397 314 1397 c 128,-1,14
 288 1397 288 1397 276 1387 c 128,-1,15
 264 1377 264 1377 258 1364 c 0,16,17
 246 1340 246 1340 246 1319 c 2,18,-1
 246 1274 l 2,19,20
 246 1251 246 1251 246.5 1225 c 128,-1,21
 247 1199 247 1199 248 1167 c 1,22,-1
 164 1165 l 1,23,24
 163 1190 163 1190 162.5 1215 c 128,-1,25
 162 1240 162 1240 162 1268 c 2,26,-1
 162 1323 l 2,27,28
 162 1382 162 1382 189 1416 c 0,29,30
 239 1481 239 1481 305 1481 c 0,31,32
 364 1481 364 1481 417 1414 c 0,33,34
 442 1383 442 1383 460 1348 c 128,-1,35
 478 1313 478 1313 486.5 1297 c 128,-1,36
 495 1281 495 1281 506 1268 c 0,37,38
 534 1235 534 1235 556.5 1235 c 128,-1,39
 579 1235 579 1235 589.5 1242 c 128,-1,40
 600 1249 600 1249 608 1260 c 0,41,42
 623 1281 623 1281 623 1309 c 2,0,-1
EndSplineSet
EndChar

StartChar: hungarumlaut
Encoding: 733 733 334
Width: 868
Flags: W
LayerCount: 2
Fore
SplineSet
489 1446 m 1,0,-1
 240 1147 l 1,1,-1
 172 1206 l 1,2,-1
 424 1501 l 1,3,-1
 489 1446 l 1,0,-1
735 1446 m 1,4,-1
 485 1147 l 1,5,-1
 418 1206 l 1,6,-1
 670 1501 l 1,7,-1
 735 1446 l 1,4,-1
EndSplineSet
EndChar

